<?xml version="1.0" encoding="UTF-8" standalone="no"?>
<!-- Created with Inkscape (http://www.inkscape.org/) -->

<svg
   xmlns:ns0="http://www.iki.fi/pav/software/textext/"
   xmlns:dc="http://purl.org/dc/elements/1.1/"
   xmlns:cc="http://creativecommons.org/ns#"
   xmlns:rdf="http://www.w3.org/1999/02/22-rdf-syntax-ns#"
   xmlns:svg="http://www.w3.org/2000/svg"
   xmlns="http://www.w3.org/2000/svg"
   xmlns:sodipodi="http://sodipodi.sourceforge.net/DTD/sodipodi-0.dtd"
   xmlns:inkscape="http://www.inkscape.org/namespaces/inkscape"
   width="332.32986"
   height="174.52249"
   id="svg2"
   version="1.1"
   inkscape:version="0.48.4 r9939"
   sodipodi:docname="grid_trans.svg">
  <sodipodi:namedview
     id="base"
     pagecolor="#ffffff"
     bordercolor="#666666"
     borderopacity="1.0"
     inkscape:pageopacity="0.0"
     inkscape:pageshadow="2"
     inkscape:zoom="2"
     inkscape:cx="91.936868"
     inkscape:cy="58.409853"
     inkscape:document-units="px"
     inkscape:current-layer="layer1"
     showgrid="false"
     inkscape:snap-bbox="true"
     inkscape:bbox-nodes="false"
     inkscape:object-paths="true"
     inkscape:snap-smooth-nodes="false"
     inkscape:snap-object-midpoints="true"
     inkscape:snap-intersection-paths="false"
     inkscape:object-nodes="false"
     inkscape:snap-midpoints="true"
     inkscape:snap-nodes="true"
     inkscape:window-width="1366"
     inkscape:window-height="744"
     inkscape:window-x="0"
     inkscape:window-y="24"
     inkscape:window-maximized="1"
     inkscape:snap-global="true"
     inkscape:snap-to-guides="true"
     fit-margin-top="0"
     fit-margin-left="0"
     fit-margin-right="0"
     fit-margin-bottom="0"
     showguides="true"
     inkscape:guide-bbox="true" />
  <defs
     id="defs4">
    <marker
       inkscape:stockid="TriangleOutL"
       orient="auto"
       refY="0"
       refX="0"
       id="TriangleOutL"
       style="overflow:visible">
      <path
         inkscape:connector-curvature="0"
         id="path3972"
         d="m 5.77,0 -8.65,5 0,-10 8.65,5 z"
         style="fill-rule:evenodd;stroke:#000000;stroke-width:1pt"
         transform="scale(0.8,0.8)" />
    </marker>
  </defs>
  <metadata
     id="metadata7">
    <rdf:RDF>
      <cc:Work
         rdf:about="">
        <dc:format>image/svg+xml</dc:format>
        <dc:type
           rdf:resource="http://purl.org/dc/dcmitype/StillImage" />
        <dc:title />
      </cc:Work>
    </rdf:RDF>
  </metadata>
  <g
     transform="translate(-116.99168,-215.8441)"
     inkscape:label="Layer 1"
     inkscape:groupmode="layer"
     id="layer1">
    <rect
       style="fill:#ffffff;fill-opacity:1;stroke:#000000;stroke-width:1.25;stroke-miterlimit:4;stroke-opacity:1;stroke-dasharray:none"
       id="rect3796"
       width="127.27921"
       height="127.27924"
       x="120.29483"
       y="230.15237" />
    <rect
       y="293.79199"
       x="310.70859"
       height="63.63961"
       width="63.63961"
       id="rect3788"
       style="fill:#ffffff;fill-opacity:1;fill-rule:evenodd;stroke:#000000;stroke-width:1.25;stroke-linecap:butt;stroke-linejoin:miter;stroke-miterlimit:4;stroke-opacity:1;stroke-dasharray:none" />
    <rect
       style="fill:#ffffff;fill-opacity:1;fill-rule:evenodd;stroke:#000000;stroke-width:1.25;stroke-linecap:butt;stroke-linejoin:miter;stroke-miterlimit:4;stroke-opacity:1;stroke-dasharray:none"
       id="rect3790"
       width="63.63961"
       height="63.63961"
       x="374.34818"
       y="293.79199" />
    <rect
       y="230.15237"
       x="310.70859"
       height="63.63961"
       width="63.63961"
       id="rect3792"
       style="fill:#ffffff;fill-opacity:1;fill-rule:evenodd;stroke:#000000;stroke-width:1.25;stroke-linecap:butt;stroke-linejoin:miter;stroke-miterlimit:4;stroke-opacity:1;stroke-dasharray:none" />
    <rect
       style="fill:#ffffff;fill-opacity:1;fill-rule:evenodd;stroke:#000000;stroke-width:1.25;stroke-linecap:butt;stroke-linejoin:miter;stroke-miterlimit:4;stroke-opacity:1;stroke-dasharray:none"
       id="rect3794"
       width="63.63961"
       height="63.63961"
       x="374.34818"
       y="230.15237" />
    <path
       transform="translate(21.04734,47.868968)"
       d="m 101.52033,182.3683 c 0,1.25526 -1.01758,2.27284 -2.27284,2.27284 -1.255257,0 -2.272843,-1.01758 -2.272843,-2.27284 0,-1.25526 1.017586,-2.27284 2.272843,-2.27284 1.25526,0 2.27284,1.01758 2.27284,2.27284 z"
       sodipodi:ry="2.2728431"
       sodipodi:rx="2.2728431"
       sodipodi:cy="182.3683"
       sodipodi:cx="99.24749"
       id="path3800"
       style="fill:#ffffff;fill-opacity:1;stroke:#000000;stroke-width:1.25;stroke-miterlimit:4;stroke-opacity:1;stroke-dasharray:none"
       sodipodi:type="arc" />
    <path
       transform="translate(148.32655,48.226111)"
       d="m 101.52033,182.3683 c 0,1.25526 -1.01758,2.27284 -2.27284,2.27284 -1.255257,0 -2.272843,-1.01758 -2.272843,-2.27284 0,-1.25526 1.017586,-2.27284 2.272843,-2.27284 1.25526,0 2.27284,1.01758 2.27284,2.27284 z"
       sodipodi:ry="2.2728431"
       sodipodi:rx="2.2728431"
       sodipodi:cy="182.3683"
       sodipodi:cx="99.24749"
       id="path3802"
       style="fill:#ffffff;fill-opacity:1;stroke:#000000;stroke-width:1.25;stroke-miterlimit:4;stroke-opacity:1;stroke-dasharray:none"
       sodipodi:type="arc" />
    <path
       transform="translate(148.32655,175.01183)"
       d="m 101.52033,182.3683 c 0,1.25526 -1.01758,2.27284 -2.27284,2.27284 -1.255257,0 -2.272843,-1.01758 -2.272843,-2.27284 0,-1.25526 1.017586,-2.27284 2.272843,-2.27284 1.25526,0 2.27284,1.01758 2.27284,2.27284 z"
       sodipodi:ry="2.2728431"
       sodipodi:rx="2.2728431"
       sodipodi:cy="182.3683"
       sodipodi:cx="99.24749"
       id="path3804"
       style="fill:#ffffff;fill-opacity:1;stroke:#000000;stroke-width:1.25;stroke-miterlimit:4;stroke-opacity:1;stroke-dasharray:none"
       sodipodi:type="arc" />
    <path
       transform="translate(21.841888,175.06332)"
       d="m 101.52033,182.3683 c 0,1.25526 -1.01758,2.27284 -2.27284,2.27284 -1.255257,0 -2.272843,-1.01758 -2.272843,-2.27284 0,-1.25526 1.017586,-2.27284 2.272843,-2.27284 1.25526,0 2.27284,1.01758 2.27284,2.27284 z"
       sodipodi:ry="2.2728431"
       sodipodi:rx="2.2728431"
       sodipodi:cy="182.3683"
       sodipodi:cx="99.24749"
       id="path3806"
       style="fill:#ffffff;fill-opacity:1;stroke:#000000;stroke-width:1.25;stroke-miterlimit:4;stroke-opacity:1;stroke-dasharray:none"
       sodipodi:type="arc" />
    <path
       transform="translate(211.84189,175.0633)"
       d="m 101.52033,182.3683 c 0,1.25526 -1.01758,2.27284 -2.27284,2.27284 -1.255257,0 -2.272843,-1.01758 -2.272843,-2.27284 0,-1.25526 1.017586,-2.27284 2.272843,-2.27284 1.25526,0 2.27284,1.01758 2.27284,2.27284 z"
       sodipodi:ry="2.2728431"
       sodipodi:rx="2.2728431"
       sodipodi:cy="182.3683"
       sodipodi:cx="99.24749"
       id="path3808"
       style="fill:#ffffff;fill-opacity:1;stroke:#000000;stroke-width:1.25;stroke-miterlimit:4;stroke-opacity:1;stroke-dasharray:none"
       sodipodi:type="arc" />
    <path
       transform="translate(211.4611,111.79754)"
       d="m 101.52033,182.3683 c 0,1.25526 -1.01758,2.27284 -2.27284,2.27284 -1.255257,0 -2.272843,-1.01758 -2.272843,-2.27284 0,-1.25526 1.017586,-2.27284 2.272843,-2.27284 1.25526,0 2.27284,1.01758 2.27284,2.27284 z"
       sodipodi:ry="2.2728431"
       sodipodi:rx="2.2728431"
       sodipodi:cy="182.3683"
       sodipodi:cx="99.24749"
       id="path3810"
       style="fill:#ffffff;fill-opacity:1;stroke:#000000;stroke-width:1.25;stroke-miterlimit:4;stroke-opacity:1;stroke-dasharray:none"
       sodipodi:type="arc" />
    <path
       transform="translate(211.4611,47.784073)"
       d="m 101.52033,182.3683 c 0,1.25526 -1.01758,2.27284 -2.27284,2.27284 -1.255257,0 -2.272843,-1.01758 -2.272843,-2.27284 0,-1.25526 1.017586,-2.27284 2.272843,-2.27284 1.25526,0 2.27284,1.01758 2.27284,2.27284 z"
       sodipodi:ry="2.2728431"
       sodipodi:rx="2.2728431"
       sodipodi:cy="182.3683"
       sodipodi:cx="99.24749"
       id="path3812"
       style="fill:#ffffff;fill-opacity:1;stroke:#000000;stroke-width:1.25;stroke-miterlimit:4;stroke-opacity:1;stroke-dasharray:none"
       sodipodi:type="arc" />
    <path
       transform="translate(275.10069,48.583254)"
       d="m 101.52033,182.3683 c 0,1.25526 -1.01758,2.27284 -2.27284,2.27284 -1.255257,0 -2.272843,-1.01758 -2.272843,-2.27284 0,-1.25526 1.017586,-2.27284 2.272843,-2.27284 1.25526,0 2.27284,1.01758 2.27284,2.27284 z"
       sodipodi:ry="2.2728431"
       sodipodi:rx="2.2728431"
       sodipodi:cy="182.3683"
       sodipodi:cx="99.24749"
       id="path3814"
       style="fill:#ffffff;fill-opacity:1;stroke:#000000;stroke-width:1.25;stroke-miterlimit:4;stroke-opacity:1;stroke-dasharray:none"
       sodipodi:type="arc" />
    <path
       transform="translate(275.05617,111.42369)"
       d="m 101.52033,182.3683 c 0,1.25526 -1.01758,2.27284 -2.27284,2.27284 -1.255257,0 -2.272843,-1.01758 -2.272843,-2.27284 0,-1.25526 1.017586,-2.27284 2.272843,-2.27284 1.25526,0 2.27284,1.01758 2.27284,2.27284 z"
       sodipodi:ry="2.2728431"
       sodipodi:rx="2.2728431"
       sodipodi:cy="182.3683"
       sodipodi:cx="99.24749"
       id="path3816"
       style="fill:#ffffff;fill-opacity:1;stroke:#000000;stroke-width:1.25;stroke-miterlimit:4;stroke-opacity:1;stroke-dasharray:none"
       sodipodi:type="arc" />
    <path
       transform="translate(275.10071,174.29754)"
       d="m 101.52033,182.3683 c 0,1.25526 -1.01758,2.27284 -2.27284,2.27284 -1.255257,0 -2.272843,-1.01758 -2.272843,-2.27284 0,-1.25526 1.017586,-2.27284 2.272843,-2.27284 1.25526,0 2.27284,1.01758 2.27284,2.27284 z"
       sodipodi:ry="2.2728431"
       sodipodi:rx="2.2728431"
       sodipodi:cy="182.3683"
       sodipodi:cx="99.24749"
       id="path3818"
       style="fill:#ffffff;fill-opacity:1;stroke:#000000;stroke-width:1.25;stroke-miterlimit:4;stroke-opacity:1;stroke-dasharray:none"
       sodipodi:type="arc" />
    <path
       transform="translate(338.7403,173.9404)"
       d="m 101.52033,182.3683 c 0,1.25526 -1.01758,2.27284 -2.27284,2.27284 -1.255257,0 -2.272843,-1.01758 -2.272843,-2.27284 0,-1.25526 1.017586,-2.27284 2.272843,-2.27284 1.25526,0 2.27284,1.01758 2.27284,2.27284 z"
       sodipodi:ry="2.2728431"
       sodipodi:rx="2.2728431"
       sodipodi:cy="182.3683"
       sodipodi:cx="99.24749"
       id="path3820"
       style="fill:#ffffff;fill-opacity:1;stroke:#000000;stroke-width:1.25;stroke-miterlimit:4;stroke-opacity:1;stroke-dasharray:none"
       sodipodi:type="arc" />
    <path
       transform="translate(338.6276,111.42369)"
       d="m 101.52033,182.3683 c 0,1.25526 -1.01758,2.27284 -2.27284,2.27284 -1.255257,0 -2.272843,-1.01758 -2.272843,-2.27284 0,-1.25526 1.017586,-2.27284 2.272843,-2.27284 1.25526,0 2.27284,1.01758 2.27284,2.27284 z"
       sodipodi:ry="2.2728431"
       sodipodi:rx="2.2728431"
       sodipodi:cy="182.3683"
       sodipodi:cx="99.24749"
       id="path3822"
       style="fill:#ffffff;fill-opacity:1;stroke:#000000;stroke-width:1.25;stroke-miterlimit:4;stroke-opacity:1;stroke-dasharray:none"
       sodipodi:type="arc" />
    <path
       sodipodi:type="arc"
       style="fill:#ffffff;fill-opacity:1;stroke:#000000;stroke-width:1.25;stroke-miterlimit:4;stroke-opacity:1;stroke-dasharray:none"
       id="path3798"
       sodipodi:cx="99.24749"
       sodipodi:cy="182.3683"
       sodipodi:rx="2.2728431"
       sodipodi:ry="2.2728431"
       d="m 101.52033,182.3683 c 0,1.25526 -1.01758,2.27284 -2.27284,2.27284 -1.255257,0 -2.272843,-1.01758 -2.272843,-2.27284 0,-1.25526 1.017586,-2.27284 2.272843,-2.27284 1.25526,0 2.27284,1.01758 2.27284,2.27284 z"
       transform="translate(338.7403,47.784073)" />
    <path
       inkscape:connector-curvature="0"
       id="path4270"
       d="m 256.07143,268.43361 40,0"
       style="fill:none;stroke:#000000;stroke-width:1px;stroke-linecap:butt;stroke-linejoin:miter;stroke-opacity:1;marker-end:url(#TriangleOutL)" />
    <path
       style="fill:none;stroke:#000000;stroke-width:1px;stroke-linecap:butt;stroke-linejoin:miter;stroke-opacity:1;marker-end:url(#TriangleOutL)"
       d="m 300.68743,336.29075 -40,0"
       id="path3824"
       inkscape:connector-curvature="0" />
    <g
       ns0:preamble=""
       ns0:text="$\\mathcal{R}$"
       word-spacing="normal"
       letter-spacing="normal"
       font-size-adjust="none"
       font-stretch="normal"
       font-weight="normal"
       font-variant="normal"
       font-style="normal"
       stroke-miterlimit="10.433"
       xml:space="preserve"
       transform="matrix(1.5,0,0,-1.5,-63.17057,1318.1421)"
       id="g4348"
       style="font-style:normal;font-variant:normal;font-weight:normal;font-stretch:normal;letter-spacing:normal;word-spacing:normal;text-anchor:start;fill:none;stroke:#000000;stroke-linecap:butt;stroke-linejoin:miter;stroke-miterlimit:10.43299961;stroke-opacity:1;stroke-dasharray:none;stroke-dashoffset:0"><path
         id="path4350"
         d="m 227.46,663.47 0.09,0 0.09,0 0.08,0 0.08,0 0.08,-0.01 0.08,0 0.08,0 0.07,-0.01 0.08,0 0.07,-0.01 0.13,-0.01 0.13,-0.02 0.12,-0.02 0.12,-0.02 0.11,-0.03 0.1,-0.02 0.09,-0.03 0.09,-0.03 0.08,-0.03 0.08,-0.04 0.07,-0.03 0.07,-0.04 0.06,-0.04 0.05,-0.04 0.05,-0.05 0.05,-0.04 0.04,-0.05 0.03,-0.05 0.03,-0.05 0.03,-0.05 0.02,-0.05 0.02,-0.06 0.01,-0.05 0.02,-0.06 0,-0.06 0.01,-0.06 0,-0.06 c 0,-0.61 -0.48,-1.8 -2.12,-1.86 -0.49,-0.02 -0.83,-0.36 -0.83,-0.47 0,-0.06 0.04,-0.06 0.05,-0.06 0.42,-0.07 0.62,-0.27 1.14,-1.44 0.46,-1.05 0.71,-1.5 1.3,-1.5 1.21,0 2.35,1.22 2.35,1.44 0,0.07 -0.08,0.07 -0.11,0.07 -0.12,0 -0.51,-0.14 -0.72,-0.43 -0.16,-0.23 -0.37,-0.54 -0.86,-0.54 -0.51,0 -0.82,0.71 -1.16,1.48 -0.2,0.5 -0.38,0.87 -0.61,1.13 1.44,0.53 2.41,1.57 2.41,2.61 0,1.24 -1.67,1.24 -3.17,1.24 -0.99,0 -1.55,0 -2.39,-0.36 -1.33,-0.58 -1.51,-1.41 -1.51,-1.49 0,-0.06 0.04,-0.08 0.1,-0.08 0.16,0 0.39,0.14 0.47,0.19 0.21,0.14 0.24,0.2 0.3,0.39 0.14,0.4 0.41,0.74 1.67,0.8 -0.05,-0.6 -0.14,-1.53 -0.48,-2.98 -0.27,-1.11 -0.64,-2.2 -1.07,-3.27 -0.05,-0.1 -0.05,-0.12 -0.05,-0.13 0,-0.07 0.08,-0.07 0.1,-0.07 0.2,0 0.61,0.24 0.72,0.42 0.02,0.05 1.28,2.85 1.59,6.03 z"
         inkscape:connector-curvature="0"
         style="fill:#000000;stroke-width:0" /></g>    <g
       style="font-style:normal;font-variant:normal;font-weight:normal;font-stretch:normal;letter-spacing:normal;word-spacing:normal;text-anchor:start;fill:none;stroke:#000000;stroke-linecap:butt;stroke-linejoin:miter;stroke-miterlimit:10.43299961;stroke-opacity:1;stroke-dasharray:none;stroke-dashoffset:0"
       ns0:preamble=""
       ns0:text="$\\mathcal{I}$"
       word-spacing="normal"
       letter-spacing="normal"
       font-size-adjust="none"
       font-stretch="normal"
       font-weight="normal"
       font-variant="normal"
       font-style="normal"
       stroke-miterlimit="10.433"
       xml:space="preserve"
       transform="matrix(1.5,0,0,-1.5,-63.17057,1249.2136)"
       id="content"><path
         style="fill:#000000;stroke-width:0"
         inkscape:connector-curvature="0"
         id="path4382"
         d="m 226.96,664.02 -0.11,0 -0.11,0 -0.11,-0.01 -0.1,0 -0.09,-0.01 -0.1,0 -0.09,-0.01 -0.09,-0.01 -0.08,-0.01 -0.08,-0.01 -0.08,-0.01 -0.07,-0.01 -0.07,-0.01 -0.07,-0.01 -0.06,-0.01 -0.06,-0.02 -0.06,-0.01 -0.06,-0.01 -0.05,-0.01 -0.05,-0.02 -0.05,-0.01 -0.04,-0.01 -0.04,-0.02 -0.04,-0.01 -0.04,-0.01 -0.04,-0.02 -0.03,-0.01 -0.03,-0.01 -0.03,-0.01 -0.03,-0.01 -0.02,-0.01 -0.03,-0.01 c -1.01,-0.42 -1.24,-1.1 -1.24,-1.23 0,-0.07 0.05,-0.08 0.11,-0.08 0.18,0 0.66,0.25 0.74,0.47 0.12,0.37 0.15,0.46 0.81,0.55 0.34,0.04 0.67,0.06 1.01,0.06 h 0.9 c -0.62,-0.6 -0.91,-1.67 -1.27,-3.1 -0.29,-1.17 -0.52,-1.94 -0.93,-2.47 -0.1,-0.11 -0.11,-0.12 -0.37,-0.12 h -0.64 c -0.19,0 -0.3,0 -0.55,-0.15 -0.11,-0.06 -0.33,-0.23 -0.33,-0.33 0,-0.06 0.01,-0.07 0.23,-0.07 h 3.4 c 1.17,0 2.03,0.87 2.03,1.23 0,0.07 -0.08,0.07 -0.11,0.07 -0.16,0 -0.63,-0.23 -0.73,-0.48 -0.07,-0.21 -0.1,-0.27 -0.6,-0.27 h -1.9 c 0.71,0.61 1.01,1.59 1.34,2.94 0.27,1.08 0.51,2.05 0.92,2.65 0.06,0.09 0.07,0.1 0.27,0.1 h 0.84 c 0.2,0 0.29,0 0.55,0.15 0.09,0.05 0.32,0.21 0.32,0.33 0,0.06 -0.01,0.07 -0.23,0.07 z" /></g>    <text
       sodipodi:linespacing="125%"
       id="text4425"
       y="224.75035"
       x="116.05219"
       style="font-size:12px;font-style:normal;font-weight:normal;line-height:125%;letter-spacing:0px;word-spacing:0px;fill:#000000;fill-opacity:1;stroke:none;font-family:Sans"
       xml:space="preserve"><tspan
         y="224.75035"
         x="116.05219"
         id="tspan4427"
         sodipodi:role="line">1</tspan></text>
    <text
       sodipodi:linespacing="125%"
       id="text4429"
       y="224.75035"
       x="244.74562"
       style="font-size:12px;font-style:normal;font-weight:normal;line-height:125%;letter-spacing:0px;word-spacing:0px;fill:#000000;fill-opacity:1;stroke:none;font-family:Sans"
       xml:space="preserve"><tspan
         y="224.75035"
         x="244.74562"
         id="tspan4431"
         sodipodi:role="line">2</tspan></text>
    <text
       sodipodi:linespacing="125%"
       id="text4433"
       y="370.95154"
       x="116.40574"
       style="font-size:12px;font-style:normal;font-weight:normal;line-height:125%;letter-spacing:0px;word-spacing:0px;fill:#000000;fill-opacity:1;stroke:none;font-family:Sans"
       xml:space="preserve"><tspan
         y="370.95154"
         x="116.40574"
         id="tspan4435"
         sodipodi:role="line">4</tspan></text>
    <text
       sodipodi:linespacing="125%"
       id="text4437"
       y="370.59799"
       x="244.74562"
       style="font-size:12px;font-style:normal;font-weight:normal;line-height:125%;letter-spacing:0px;word-spacing:0px;fill:#000000;fill-opacity:1;stroke:none;font-family:Sans"
       xml:space="preserve"><tspan
         y="370.59799"
         x="244.74562"
         id="tspan4439"
         sodipodi:role="line">3</tspan></text>
    <text
       sodipodi:linespacing="125%"
       id="text4441"
       y="370.95154"
       x="306.61746"
       style="font-size:12px;font-style:normal;font-weight:normal;line-height:125%;letter-spacing:0px;word-spacing:0px;fill:#000000;fill-opacity:1;stroke:none;font-family:Sans"
       xml:space="preserve"><tspan
         y="370.95154"
         x="306.61746"
         id="tspan4443"
         sodipodi:role="line">4</tspan></text>
    <text
       sodipodi:linespacing="125%"
       id="text4445"
       y="370.59799"
       x="370.61063"
       style="font-size:12px;font-style:normal;font-weight:normal;line-height:125%;letter-spacing:0px;word-spacing:0px;fill:#000000;fill-opacity:1;stroke:none;font-family:Sans"
       xml:space="preserve"><tspan
         y="370.59799"
         x="370.61063"
         id="tspan4447"
         sodipodi:role="line">7</tspan></text>
    <text
       sodipodi:linespacing="125%"
       id="text4449"
       y="370.59796"
       x="434.60379"
       style="font-size:12px;font-style:normal;font-weight:normal;line-height:125%;letter-spacing:0px;word-spacing:0px;fill:#000000;fill-opacity:1;stroke:none;font-family:Sans"
       xml:space="preserve"><tspan
         y="370.59796"
         x="434.60379"
         id="tspan4451"
         sodipodi:role="line">3</tspan></text>
    <text
       sodipodi:linespacing="125%"
       id="text4453"
       y="293.69327"
       x="298.48572"
       style="font-size:12px;font-style:normal;font-weight:normal;line-height:125%;letter-spacing:0px;word-spacing:0px;fill:#000000;fill-opacity:1;stroke:none;font-family:Sans"
       xml:space="preserve"><tspan
         y="293.69327"
         x="298.48572"
         id="tspan4455"
         sodipodi:role="line">8</tspan></text>
    <text
       sodipodi:linespacing="125%"
       id="text4457"
       y="289.03568"
       x="363.89313"
       style="font-size:12px;font-style:normal;font-weight:normal;line-height:125%;letter-spacing:0px;word-spacing:0px;fill:#000000;fill-opacity:1;stroke:none;font-family:Sans"
       xml:space="preserve"><tspan
         y="289.03568"
         x="363.89313"
         id="tspan4459"
         sodipodi:role="line">9</tspan></text>
    <text
       sodipodi:linespacing="125%"
       id="text4461"
       y="293.69327"
       x="442.44263"
       style="font-size:12px;font-style:normal;font-weight:normal;line-height:125%;letter-spacing:0px;word-spacing:0px;fill:#000000;fill-opacity:1;stroke:none;font-family:Sans"
       xml:space="preserve"><tspan
         y="293.69327"
         x="442.44263"
         id="tspan4463"
         sodipodi:role="line">6</tspan></text>
    <text
       sodipodi:linespacing="125%"
       id="text4465"
       y="224.75035"
       x="305.91034"
       style="font-size:12px;font-style:normal;font-weight:normal;line-height:125%;letter-spacing:0px;word-spacing:0px;fill:#000000;fill-opacity:1;stroke:none;font-family:Sans"
       xml:space="preserve"><tspan
         y="224.75035"
         x="305.91034"
         id="tspan4467"
         sodipodi:role="line">1</tspan></text>
    <text
       sodipodi:linespacing="125%"
       id="text4469"
       y="224.75035"
       x="369.90353"
       style="font-size:12px;font-style:normal;font-weight:normal;line-height:125%;letter-spacing:0px;word-spacing:0px;fill:#000000;fill-opacity:1;stroke:none;font-family:Sans"
       xml:space="preserve"><tspan
         y="224.75035"
         x="369.90353"
         id="tspan4471"
         sodipodi:role="line">5</tspan></text>
    <text
       sodipodi:linespacing="125%"
       id="text4473"
       y="224.75035"
       x="433.54315"
       style="font-size:12px;font-style:normal;font-weight:normal;line-height:125%;letter-spacing:0px;word-spacing:0px;fill:#000000;fill-opacity:1;stroke:none;font-family:Sans"
       xml:space="preserve"><tspan
         y="224.75035"
         x="433.54315"
         id="tspan4475"
         sodipodi:role="line">2</tspan></text>
    <g
       style="font-style:normal;font-variant:normal;font-weight:normal;font-stretch:normal;letter-spacing:normal;word-spacing:normal;text-anchor:start;fill:none;stroke:#000000;stroke-linecap:butt;stroke-linejoin:miter;stroke-miterlimit:10.43299961;stroke-opacity:1;stroke-dasharray:none;stroke-dashoffset:0"
       id="g5319"
       transform="matrix(1,0,0,-1,154.04742,899.456)"
       xml:space="preserve"
       stroke-miterlimit="10.433"
       font-style="normal"
       font-variant="normal"
       font-weight="normal"
       font-stretch="normal"
       font-size-adjust="none"
       letter-spacing="normal"
       word-spacing="normal"
       ns0:text="$\\frac{1}{2}$"
       ns0:preamble=""><path
         style="fill:#000000;stroke-width:0"
         inkscape:connector-curvature="0"
         d="m 226.96,665.58 0,0.01 0,0.01 0,0.01 0,0 0,0.01 0,0.01 0,0.01 0,0 0,0.01 0,0.01 0,0 0,0.01 0,0 0,0.01 0,0.01 0,0 -0.01,0.01 0,0 0,0.01 0,0.01 0,0 -0.01,0.01 0,0.01 -0.01,0 0,0.01 -0.01,0 0,0.01 -0.01,0 -0.01,0 0,0.01 -0.01,0 -0.01,0 -0.01,0 0,0 -0.01,0 0,0 -0.01,0 -0.01,0 0,0 -0.01,0 -0.01,0 0,0 -0.01,0 -0.01,0 -0.01,0 0,0 -0.01,0 -0.01,0 -0.01,0.01 -0.01,0 c -0.44,-0.44 -1.08,-0.45 -1.36,-0.45 v -0.25 c 0.16,0 0.62,0 1.01,0.2 v -3.55 c 0,-0.23 0,-0.32 -0.7,-0.32 h -0.26 v -0.25 c 0.12,0 0.98,0.03 1.24,0.03 0.21,0 1.09,-0.03 1.24,-0.03 v 0.25 h -0.26 c -0.7,0 -0.7,0.09 -0.7,0.32 z"
         id="path5321" /><line
         style="stroke-width:0.398"
         x1="224.63"
         y1="659.72998"
         x2="228.60001"
         y2="659.72998"
         id="line5323" /><path
         style="fill:#000000;stroke-width:0"
         inkscape:connector-curvature="0"
         d="m 228.15,655.07 h -0.24 c -0.02,-0.16 -0.09,-0.57 -0.18,-0.64 -0.06,-0.04 -0.6,-0.04 -0.69,-0.04 h -1.28 c 0.73,0.65 0.97,0.84 1.39,1.17 0.51,0.41 1,0.84 1,1.5 0,0.84 -0.74,1.36 -1.64,1.36 -0.86,0 -1.44,-0.61 -1.44,-1.25 0,-0.35 0.3,-0.39 0.37,-0.39 0.16,0 0.36,0.12 0.36,0.37 0,0.13 -0.04,0.37 -0.41,0.37 0.22,0.49 0.69,0.65 1.02,0.65 0.7,0 1.06,-0.55 1.06,-1.11 0,-0.6 -0.43,-1.08 -0.65,-1.33 l -1.68,-1.66 c -0.07,-0.06 -0.07,-0.08 -0.07,-0.27 h 2.87 z"
         id="path5325" /></g>    <g
       style="font-style:normal;font-variant:normal;font-weight:normal;font-stretch:normal;letter-spacing:normal;word-spacing:normal;text-anchor:start;fill:none;stroke:#000000;stroke-linecap:butt;stroke-linejoin:miter;stroke-miterlimit:10.43299961;stroke-opacity:1;stroke-dasharray:none;stroke-dashoffset:0"
       id="g5327"
       transform="matrix(1,0,0,-1,206.19655,963.97949)"
       xml:space="preserve"
       stroke-miterlimit="10.433"
       font-style="normal"
       font-variant="normal"
       font-weight="normal"
       font-stretch="normal"
       font-size-adjust="none"
       letter-spacing="normal"
       word-spacing="normal"
       ns0:text="$\\frac{1}{2}$"
       ns0:preamble=""><path
         style="fill:#000000;stroke-width:0"
         inkscape:connector-curvature="0"
         d="m 226.96,665.58 0,0.01 0,0.01 0,0.01 0,0 0,0.01 0,0.01 0,0.01 0,0 0,0.01 0,0.01 0,0 0,0.01 0,0 0,0.01 0,0.01 0,0 -0.01,0.01 0,0 0,0.01 0,0.01 0,0 -0.01,0.01 0,0.01 -0.01,0 0,0.01 -0.01,0 0,0.01 -0.01,0 -0.01,0 0,0.01 -0.01,0 -0.01,0 -0.01,0 0,0 -0.01,0 0,0 -0.01,0 -0.01,0 0,0 -0.01,0 -0.01,0 0,0 -0.01,0 -0.01,0 -0.01,0 0,0 -0.01,0 -0.01,0 -0.01,0.01 -0.01,0 c -0.44,-0.44 -1.08,-0.45 -1.36,-0.45 v -0.25 c 0.16,0 0.62,0 1.01,0.2 v -3.55 c 0,-0.23 0,-0.32 -0.7,-0.32 h -0.26 v -0.25 c 0.12,0 0.98,0.03 1.24,0.03 0.21,0 1.09,-0.03 1.24,-0.03 v 0.25 h -0.26 c -0.7,0 -0.7,0.09 -0.7,0.32 z"
         id="path5329" /><line
         style="stroke-width:0.398"
         x1="224.63"
         y1="659.72998"
         x2="228.60001"
         y2="659.72998"
         id="line5331" /><path
         style="fill:#000000;stroke-width:0"
         inkscape:connector-curvature="0"
         d="m 228.15,655.07 h -0.24 c -0.02,-0.16 -0.09,-0.57 -0.18,-0.64 -0.06,-0.04 -0.6,-0.04 -0.69,-0.04 h -1.28 c 0.73,0.65 0.97,0.84 1.39,1.17 0.51,0.41 1,0.84 1,1.5 0,0.84 -0.74,1.36 -1.64,1.36 -0.86,0 -1.44,-0.61 -1.44,-1.25 0,-0.35 0.3,-0.39 0.37,-0.39 0.16,0 0.36,0.12 0.36,0.37 0,0.13 -0.04,0.37 -0.41,0.37 0.22,0.49 0.69,0.65 1.02,0.65 0.7,0 1.06,-0.55 1.06,-1.11 0,-0.6 -0.43,-1.08 -0.65,-1.33 l -1.68,-1.66 c -0.07,-0.06 -0.07,-0.08 -0.07,-0.27 h 2.87 z"
         id="path5333" /></g>    <g
       style="font-style:normal;font-variant:normal;font-weight:normal;font-stretch:normal;letter-spacing:normal;word-spacing:normal;text-anchor:start;fill:none;stroke:#000000;stroke-linecap:butt;stroke-linejoin:miter;stroke-miterlimit:10.43299961;stroke-opacity:1;stroke-dasharray:none;stroke-dashoffset:0"
       id="g5335"
       transform="matrix(1,0,0,-1,90.40781,962.3885)"
       xml:space="preserve"
       stroke-miterlimit="10.433"
       font-style="normal"
       font-variant="normal"
       font-weight="normal"
       font-stretch="normal"
       font-size-adjust="none"
       letter-spacing="normal"
       word-spacing="normal"
       ns0:text="$\\frac{1}{2}$"
       ns0:preamble=""><path
         style="fill:#000000;stroke-width:0"
         inkscape:connector-curvature="0"
         d="m 226.96,665.58 0,0.01 0,0.01 0,0.01 0,0 0,0.01 0,0.01 0,0.01 0,0 0,0.01 0,0.01 0,0 0,0.01 0,0 0,0.01 0,0.01 0,0 -0.01,0.01 0,0 0,0.01 0,0.01 0,0 -0.01,0.01 0,0.01 -0.01,0 0,0.01 -0.01,0 0,0.01 -0.01,0 -0.01,0 0,0.01 -0.01,0 -0.01,0 -0.01,0 0,0 -0.01,0 0,0 -0.01,0 -0.01,0 0,0 -0.01,0 -0.01,0 0,0 -0.01,0 -0.01,0 -0.01,0 0,0 -0.01,0 -0.01,0 -0.01,0.01 -0.01,0 c -0.44,-0.44 -1.08,-0.45 -1.36,-0.45 v -0.25 c 0.16,0 0.62,0 1.01,0.2 v -3.55 c 0,-0.23 0,-0.32 -0.7,-0.32 h -0.26 v -0.25 c 0.12,0 0.98,0.03 1.24,0.03 0.21,0 1.09,-0.03 1.24,-0.03 v 0.25 h -0.26 c -0.7,0 -0.7,0.09 -0.7,0.32 z"
         id="path5337" /><line
         style="stroke-width:0.398"
         x1="224.63"
         y1="659.72998"
         x2="228.60001"
         y2="659.72998"
         id="line5339" /><path
         style="fill:#000000;stroke-width:0"
         inkscape:connector-curvature="0"
         d="m 228.15,655.07 h -0.24 c -0.02,-0.16 -0.09,-0.57 -0.18,-0.64 -0.06,-0.04 -0.6,-0.04 -0.69,-0.04 h -1.28 c 0.73,0.65 0.97,0.84 1.39,1.17 0.51,0.41 1,0.84 1,1.5 0,0.84 -0.74,1.36 -1.64,1.36 -0.86,0 -1.44,-0.61 -1.44,-1.25 0,-0.35 0.3,-0.39 0.37,-0.39 0.16,0 0.36,0.12 0.36,0.37 0,0.13 -0.04,0.37 -0.41,0.37 0.22,0.49 0.69,0.65 1.02,0.65 0.7,0 1.06,-0.55 1.06,-1.11 0,-0.6 -0.43,-1.08 -0.65,-1.33 l -1.68,-1.66 c -0.07,-0.06 -0.07,-0.08 -0.07,-0.27 h 2.87 z"
         id="path5341" /></g>    <g
       style="font-style:normal;font-variant:normal;font-weight:normal;font-stretch:normal;letter-spacing:normal;word-spacing:normal;text-anchor:start;fill:none;stroke:#000000;stroke-linecap:butt;stroke-linejoin:miter;stroke-miterlimit:10.43299961;stroke-opacity:1;stroke-dasharray:none;stroke-dashoffset:0"
       id="g5343"
       transform="matrix(1,0,0,-1,153.87064,1007.113)"
       xml:space="preserve"
       stroke-miterlimit="10.433"
       font-style="normal"
       font-variant="normal"
       font-weight="normal"
       font-stretch="normal"
       font-size-adjust="none"
       letter-spacing="normal"
       word-spacing="normal"
       ns0:text="$\\frac{1}{2}$"
       ns0:preamble=""><path
         style="fill:#000000;stroke-width:0"
         inkscape:connector-curvature="0"
         d="m 226.96,665.58 0,0.01 0,0.01 0,0.01 0,0 0,0.01 0,0.01 0,0.01 0,0 0,0.01 0,0.01 0,0 0,0.01 0,0 0,0.01 0,0.01 0,0 -0.01,0.01 0,0 0,0.01 0,0.01 0,0 -0.01,0.01 0,0.01 -0.01,0 0,0.01 -0.01,0 0,0.01 -0.01,0 -0.01,0 0,0.01 -0.01,0 -0.01,0 -0.01,0 0,0 -0.01,0 0,0 -0.01,0 -0.01,0 0,0 -0.01,0 -0.01,0 0,0 -0.01,0 -0.01,0 -0.01,0 0,0 -0.01,0 -0.01,0 -0.01,0.01 -0.01,0 c -0.44,-0.44 -1.08,-0.45 -1.36,-0.45 v -0.25 c 0.16,0 0.62,0 1.01,0.2 v -3.55 c 0,-0.23 0,-0.32 -0.7,-0.32 h -0.26 v -0.25 c 0.12,0 0.98,0.03 1.24,0.03 0.21,0 1.09,-0.03 1.24,-0.03 v 0.25 h -0.26 c -0.7,0 -0.7,0.09 -0.7,0.32 z"
         id="path5345" /><line
         style="stroke-width:0.398"
         x1="224.63"
         y1="659.72998"
         x2="228.60001"
         y2="659.72998"
         id="line5347" /><path
         style="fill:#000000;stroke-width:0"
         inkscape:connector-curvature="0"
         d="m 228.15,655.07 h -0.24 c -0.02,-0.16 -0.09,-0.57 -0.18,-0.64 -0.06,-0.04 -0.6,-0.04 -0.69,-0.04 h -1.28 c 0.73,0.65 0.97,0.84 1.39,1.17 0.51,0.41 1,0.84 1,1.5 0,0.84 -0.74,1.36 -1.64,1.36 -0.86,0 -1.44,-0.61 -1.44,-1.25 0,-0.35 0.3,-0.39 0.37,-0.39 0.16,0 0.36,0.12 0.36,0.37 0,0.13 -0.04,0.37 -0.41,0.37 0.22,0.49 0.69,0.65 1.02,0.65 0.7,0 1.06,-0.55 1.06,-1.11 0,-0.6 -0.43,-1.08 -0.65,-1.33 l -1.68,-1.66 c -0.07,-0.06 -0.07,-0.08 -0.07,-0.27 h 2.87 z"
         id="path5349" /></g>    <g
       id="g5448"
       transform="matrix(1,0,0,-1,155.10808,943.4734)"
       xml:space="preserve"
       stroke-miterlimit="10.433"
       font-style="normal"
       font-variant="normal"
       font-weight="normal"
       font-stretch="normal"
       font-size-adjust="none"
       letter-spacing="normal"
       word-spacing="normal"
       ns0:text="$\\frac{1}{4}$"
       ns0:preamble=""
       style="font-style:normal;font-variant:normal;font-weight:normal;font-stretch:normal;letter-spacing:normal;word-spacing:normal;text-anchor:start;fill:none;stroke:#000000;stroke-linecap:butt;stroke-linejoin:miter;stroke-miterlimit:10.43299961;stroke-opacity:1;stroke-dasharray:none;stroke-dashoffset:0"><path
         style="fill:#000000;stroke-width:0"
         inkscape:connector-curvature="0"
         d="m 226.96,665.58 0,0.01 0,0.01 0,0.01 0,0 0,0.01 0,0.01 0,0.01 0,0 0,0.01 0,0.01 0,0 0,0.01 0,0 0,0.01 0,0.01 0,0 -0.01,0.01 0,0 0,0.01 0,0.01 0,0 -0.01,0.01 0,0.01 -0.01,0 0,0.01 -0.01,0 0,0.01 -0.01,0 -0.01,0 0,0.01 -0.01,0 -0.01,0 -0.01,0 0,0 -0.01,0 0,0 -0.01,0 -0.01,0 0,0 -0.01,0 -0.01,0 0,0 -0.01,0 -0.01,0 -0.01,0 0,0 -0.01,0 -0.01,0 -0.01,0.01 -0.01,0 c -0.44,-0.44 -1.08,-0.45 -1.36,-0.45 v -0.25 c 0.16,0 0.62,0 1.01,0.2 v -3.55 c 0,-0.23 0,-0.32 -0.7,-0.32 h -0.26 v -0.25 c 0.12,0 0.98,0.03 1.24,0.03 0.21,0 1.09,-0.03 1.24,-0.03 v 0.25 h -0.26 c -0.7,0 -0.7,0.09 -0.7,0.32 z"
         id="path5450" /><line
         style="stroke-width:0.398"
         x1="224.63"
         y1="659.72998"
         x2="228.60001"
         y2="659.72998"
         id="line5452" /><path
         style="fill:#000000;stroke-width:0"
         inkscape:connector-curvature="0"
         d="m 228.31,654.94 v 0.25 h -0.77 v 3.1 c 0,0.15 0,0.2 -0.15,0.2 -0.09,0 -0.12,0 -0.18,-0.1 l -2.31,-3.2 v -0.25 h 2.05 l 0.05,0.25 h -1.84 l 1.84,2.55 v -2.55 l -0.05,-0.25 v -0.57 c 0,-0.24 0,-0.32 -0.57,-0.32 h -0.18 v -0.25 c 0.34,0.01 0.79,0.03 1.04,0.03 0.26,0 0.7,-0.02 1.05,-0.03 v 0.25 h -0.19 c -0.56,0 -0.56,0.08 -0.56,0.32 v 0.57 z"
         id="path5454" /></g>    <g
       id="g3343"
       transform="matrix(1.5,0,0,-1.5,-159.02978,1376.2116)"
       xml:space="preserve"
       stroke-miterlimit="10.433"
       font-style="normal"
       font-variant="normal"
       font-weight="normal"
       font-stretch="normal"
       font-size-adjust="none"
       letter-spacing="normal"
       word-spacing="normal"
       ns0:text="$\\Omega^H$"
       ns0:preamble=""
       style="font-style:normal;font-variant:normal;font-weight:normal;font-stretch:normal;letter-spacing:normal;word-spacing:normal;text-anchor:start;fill:none;stroke:#000000;stroke-linecap:butt;stroke-linejoin:miter;stroke-miterlimit:10.43299961;stroke-opacity:1;stroke-dasharray:none;stroke-dashoffset:0"><path
         d="m 230.17,658.84 h -0.25 c -0.05,-0.25 -0.09,-0.48 -0.18,-0.72 -0.05,-0.16 -0.08,-0.24 -0.66,-0.24 h -0.79 c 0.13,0.56 0.44,1.03 0.88,1.69 0.47,0.71 0.88,1.39 0.88,2.17 0,1.39 -1.34,2.5 -3.03,2.5 -1.71,0 -3.03,-1.13 -3.03,-2.5 0,-0.78 0.41,-1.46 0.88,-2.17 0.43,-0.66 0.75,-1.13 0.88,-1.69 h -0.8 c -0.57,0 -0.6,0.08 -0.65,0.23 -0.08,0.23 -0.13,0.49 -0.18,0.73 h -0.25 l 0.33,-1.61 h 1.59 c 0.22,0 0.25,0 0.25,0.21 0,0.7 -0.31,1.57 -0.54,2.21 -0.21,0.57 -0.49,1.36 -0.49,2.11 0,1.58 1.1,2.26 2,2.26 0.96,0 2.01,-0.72 2.01,-2.26 0,-0.75 -0.26,-1.5 -0.55,-2.32 -0.15,-0.42 -0.47,-1.31 -0.47,-2 0,-0.21 0.03,-0.21 0.26,-0.21 h 1.58 z"
         id="path3345"
         inkscape:connector-curvature="0"
         style="fill:#000000;stroke-width:0" /><path
         d="m 236.48,665.04 0.01,0.02 0.01,0.02 0,0.02 0.01,0.02 0,0.02 0.01,0.02 0,0.02 0.01,0.01 0.01,0.02 0.01,0.01 0,0.02 0.01,0.01 0.01,0.01 0.01,0.01 0.02,0.01 0.01,0.01 0.02,0.01 0.01,0.01 0.02,0 0.02,0.01 0.02,0 0.01,0.01 0.01,0 0.02,0 0.01,0 0.01,0.01 0.02,0 0.01,0 0.01,0 0.02,0 0.02,0 0.01,0 0.02,0.01 0.02,0 0.02,0 0.01,0 0.02,0 0.02,0 0.03,0 0.02,0 0.02,0 0.02,0 0.03,0 c 0.15,0 0.23,0 0.23,0.15 0,0.03 -0.02,0.1 -0.11,0.1 -0.2,0 -0.71,-0.03 -0.91,-0.03 -0.12,0 -0.36,0 -0.48,0.01 -0.14,0.01 -0.31,0.02 -0.44,0.02 -0.04,0 -0.15,0 -0.15,-0.15 0,-0.1 0.09,-0.1 0.23,-0.1 0,0 0.14,0 0.26,-0.01 0.15,-0.02 0.16,-0.03 0.16,-0.1 0,-0.01 0,-0.05 -0.03,-0.15 l -0.41,-1.64 h -2.33 l 0.4,1.61 c 0.07,0.23 0.08,0.29 0.62,0.29 0.12,0 0.2,0 0.2,0.15 0,0.03 -0.02,0.1 -0.11,0.1 -0.2,0 -0.71,-0.03 -0.91,-0.03 -0.12,0 -0.36,0 -0.48,0.01 -0.14,0.01 -0.31,0.02 -0.44,0.02 -0.04,0 -0.14,0 -0.14,-0.15 0,-0.1 0.08,-0.1 0.22,-0.1 0.01,0 0.14,0 0.26,-0.01 0.15,-0.02 0.16,-0.03 0.16,-0.1 0,-0.02 0,-0.05 -0.02,-0.15 l -0.93,-3.7 c -0.06,-0.23 -0.07,-0.29 -0.61,-0.29 -0.12,0 -0.21,0 -0.21,-0.14 0,-0.07 0.05,-0.11 0.11,-0.11 0.2,0 0.7,0.03 0.9,0.03 0.12,0 0.37,0 0.48,-0.01 0.14,-0.01 0.32,-0.02 0.45,-0.02 0.04,0 0.15,0 0.15,0.15 0,0.1 -0.07,0.1 -0.23,0.1 -0.11,0 -0.14,0 -0.27,0.01 -0.15,0.03 -0.15,0.04 -0.15,0.11 0,0.01 0,0.05 0.03,0.15 l 0.46,1.82 h 2.33 l -0.45,-1.8 c -0.06,-0.23 -0.07,-0.29 -0.62,-0.29 -0.11,0 -0.2,0 -0.2,-0.14 0,-0.07 0.04,-0.11 0.11,-0.11 0.2,0 0.7,0.03 0.9,0.03 0.12,0 0.36,0 0.48,-0.01 0.14,-0.01 0.32,-0.02 0.45,-0.02 0.03,0 0.14,0 0.14,0.15 0,0.1 -0.06,0.1 -0.22,0.1 -0.12,0 -0.14,0 -0.27,0.01 -0.15,0.03 -0.15,0.04 -0.15,0.11 0,0.04 0.02,0.11 0.03,0.15 z"
         id="path3347"
         inkscape:connector-curvature="0"
         style="fill:#000000;stroke-width:0" /></g>    <g
       style="font-style:normal;font-variant:normal;font-weight:normal;font-stretch:normal;letter-spacing:normal;word-spacing:normal;text-anchor:start;fill:none;stroke:#000000;stroke-linecap:butt;stroke-linejoin:miter;stroke-miterlimit:10.43299961;stroke-opacity:1;stroke-dasharray:none;stroke-dashoffset:0"
       ns0:preamble=""
       ns0:text="$\\Omega^h$"
       word-spacing="normal"
       letter-spacing="normal"
       font-size-adjust="none"
       font-stretch="normal"
       font-weight="normal"
       font-variant="normal"
       font-style="normal"
       stroke-miterlimit="10.433"
       xml:space="preserve"
       transform="matrix(1.5,0,0,-1.5,32.798198,1375.858)"
       id="g3517"><path
         id="path3519"
         d="m 230.17,658.84 h -0.25 c -0.05,-0.25 -0.09,-0.48 -0.18,-0.72 -0.05,-0.16 -0.08,-0.24 -0.66,-0.24 h -0.79 c 0.13,0.56 0.44,1.03 0.88,1.69 0.47,0.71 0.88,1.39 0.88,2.17 0,1.39 -1.34,2.5 -3.03,2.5 -1.71,0 -3.03,-1.13 -3.03,-2.5 0,-0.78 0.41,-1.46 0.88,-2.17 0.43,-0.66 0.75,-1.13 0.88,-1.69 h -0.8 c -0.57,0 -0.6,0.08 -0.65,0.23 -0.08,0.23 -0.13,0.49 -0.18,0.73 h -0.25 l 0.33,-1.61 h 1.59 c 0.22,0 0.25,0 0.25,0.21 0,0.7 -0.31,1.57 -0.54,2.21 -0.21,0.57 -0.49,1.36 -0.49,2.11 0,1.58 1.1,2.26 2,2.26 0.96,0 2.01,-0.72 2.01,-2.26 0,-0.75 -0.26,-1.5 -0.55,-2.32 -0.15,-0.42 -0.47,-1.31 -0.47,-2 0,-0.21 0.03,-0.21 0.26,-0.21 h 1.58 z"
         inkscape:connector-curvature="0"
         style="fill:#000000;stroke-width:0" /><path
         id="path3521"
         d="m 232.81,665.47 0,0 0,0 0,0 0,0 0,0 0,0 0,0.01 0,0 0,0 0,0 0,0.01 0,0 0.01,0 0,0.01 0,0 0,0.01 0,0 0,0.01 0,0.01 0.01,0.01 0,0 0,0.01 0,0 0,0 0,0.01 0,0 0,0.01 0,0 0,0 0,0 0,0 0,0 0,0 0,0.01 0,0 0,0 0,0 0,0 0,0 0.01,0 c 0,0.03 -0.03,0.1 -0.12,0.1 -0.14,0 -0.71,-0.06 -0.89,-0.07 -0.05,-0.01 -0.15,-0.02 -0.15,-0.16 0,-0.1 0.1,-0.1 0.18,-0.1 0.33,0 0.33,-0.05 0.33,-0.1 0,-0.05 -0.01,-0.09 -0.02,-0.16 l -0.99,-3.93 c -0.03,-0.13 -0.03,-0.14 -0.03,-0.16 0,-0.1 0.08,-0.22 0.24,-0.22 0.07,0 0.21,0.04 0.28,0.18 0.02,0.04 0.09,0.29 0.12,0.44 l 0.16,0.62 c 0.02,0.1 0.09,0.37 0.11,0.47 0.07,0.27 0.07,0.27 0.21,0.5 0.22,0.34 0.57,0.73 1.11,0.73 0.39,0 0.42,-0.32 0.42,-0.48 0,-0.42 -0.3,-1.19 -0.42,-1.48 -0.07,-0.2 -0.1,-0.26 -0.1,-0.38 0,-0.37 0.31,-0.6 0.66,-0.6 0.7,0 1.01,0.96 1.01,1.06 0,0.1 -0.1,0.1 -0.12,0.1 -0.09,0 -0.1,-0.05 -0.13,-0.12 -0.16,-0.56 -0.46,-0.84 -0.74,-0.84 -0.14,0 -0.17,0.09 -0.17,0.24 0,0.16 0.03,0.25 0.16,0.56 0.08,0.22 0.37,0.95 0.37,1.34 0,0.12 0,0.41 -0.26,0.61 -0.12,0.09 -0.32,0.19 -0.65,0.19 -0.51,0 -0.87,-0.28 -1.13,-0.58 z"
         inkscape:connector-curvature="0"
         style="fill:#000000;stroke-width:0" /></g>  </g>
</svg>
