<?xml version="1.0" encoding="UTF-8" standalone="no"?>
<!-- Creator: fig2dev Version 3.2 Patchlevel 5d -->

<!-- CreationDate: Mon Sep 30 20:58:48 2013 -->

<!-- Magnification: 1.050 -->

<svg
   xmlns:dc="http://purl.org/dc/elements/1.1/"
   xmlns:cc="http://creativecommons.org/ns#"
   xmlns:rdf="http://www.w3.org/1999/02/22-rdf-syntax-ns#"
   xmlns:svg="http://www.w3.org/2000/svg"
   xmlns="http://www.w3.org/2000/svg"
   xmlns:sodipodi="http://sodipodi.sourceforge.net/DTD/sodipodi-0.dtd"
   xmlns:inkscape="http://www.inkscape.org/namespaces/inkscape"
   width="365.5896"
   height="773.02515"
   viewBox="861 862 4844.8053 10308"
   id="svg2"
   version="1.1"
   inkscape:version="0.48.4 r9939"
   sodipodi:docname="parent_child.svg">
  <metadata
     id="metadata86">
    <rdf:RDF>
      <cc:Work
         rdf:about="">
        <dc:format>image/svg+xml</dc:format>
        <dc:type
           rdf:resource="http://purl.org/dc/dcmitype/StillImage" />
        <dc:title></dc:title>
      </cc:Work>
    </rdf:RDF>
  </metadata>
  <defs
     id="defs84" />
  <sodipodi:namedview
     pagecolor="#ffffff"
     bordercolor="#666666"
     borderopacity="1"
     objecttolerance="10"
     gridtolerance="10"
     guidetolerance="10"
     inkscape:pageopacity="0"
     inkscape:pageshadow="2"
     inkscape:window-width="1366"
     inkscape:window-height="744"
     id="namedview82"
     showgrid="false"
     fit-margin-top="0"
     fit-margin-left="0"
     fit-margin-right="0"
     fit-margin-bottom="0"
     inkscape:zoom="0.43175103"
     inkscape:cx="594.92246"
     inkscape:cy="592.8353"
     inkscape:window-x="0"
     inkscape:window-y="24"
     inkscape:window-maximized="1"
     inkscape:current-layer="g4" />
  <g
     style="fill:none;stroke-width:0.025in"
     id="g4"
     transform="translate(-23.097352,-7)">
    <!-- Line: box -->
    <rect
       x="944"
       y="944"
       width="4724"
       height="4724"
       rx="0"
       style="stroke:#000000;stroke-width:48;stroke-linecap:butt;stroke-linejoin:miter"
       id="rect6" />
    <!-- Line -->
    <polyline
       points="5669,8834 "
       style="stroke:#000000;stroke-width:8;stroke-linecap:butt;stroke-linejoin:miter"
       id="polyline8" />
    <!-- Line -->
    <polyline
       points="3307,11102 3307,6377 "
       style="stroke:#000000;stroke-width:48;stroke-linecap:butt;stroke-linejoin:miter"
       id="polyline10" />
    <!-- Line -->
    <polyline
       points="944,8740 5669,8740 "
       style="stroke:#000000;stroke-width:48;stroke-linecap:butt;stroke-linejoin:miter"
       id="polyline12" />
    <!-- Line: box -->
    <rect
       x="944"
       y="6377"
       width="4724"
       height="4724"
       rx="0"
       style="stroke:#000000;stroke-width:48;stroke-linecap:butt;stroke-linejoin:miter"
       id="rect14" />
    <!-- Text -->
    <text
       xml:space="preserve"
       x="2692"
       y="11007"
       font-style="normal"
       font-weight="normal"
       font-size="807"
       id="text16"
       style="font-size:807px;font-style:normal;font-weight:normal;text-anchor:start;fill:#000000;font-family:Times"><tspan
         style="font-family:Times New Roman;-inkscape-font-specification:Times New Roman"
         id="tspan3097">1</tspan></text>
    <!-- Text -->
    <text
       xml:space="preserve"
       x="3401"
       y="11007"
       font-style="normal"
       font-weight="normal"
       font-size="807"
       id="text18"
       style="font-size:807px;font-style:normal;font-weight:normal;text-anchor:start;fill:#000000;font-family:Times"><tspan
         style="font-family:Times New Roman;-inkscape-font-specification:Times New Roman"
         id="tspan3099">0</tspan></text>
    <!-- Text -->
    <text
       xml:space="preserve"
       x="5102"
       y="11007"
       font-style="normal"
       font-weight="normal"
       font-size="807"
       id="text20"
       style="font-size:807px;font-style:normal;font-weight:normal;text-anchor:start;fill:#000000;font-family:Times"><tspan
         style="font-family:Times New Roman;-inkscape-font-specification:Times New Roman"
         id="tspan3101">1</tspan></text>
    <!-- Text -->
    <text
       xml:space="preserve"
       x="992"
       y="9590"
       font-style="normal"
       font-weight="normal"
       font-size="807"
       id="text22"
       style="font-size:807px;font-style:normal;font-weight:normal;text-anchor:start;fill:#000000;font-family:Times"><tspan
         style="font-family:Times New Roman;-inkscape-font-specification:Times New Roman"
         id="tspan3087">2</tspan></text>
    <!-- Text -->
    <text
       xml:space="preserve"
       x="2692"
       y="9590"
       font-style="normal"
       font-weight="normal"
       font-size="807"
       id="text24"
       style="font-size:807px;font-style:normal;font-weight:normal;text-anchor:start;fill:#000000;font-family:Times"><tspan
         style="font-family:Times New Roman;-inkscape-font-specification:Times New Roman"
         id="tspan3089">3</tspan></text>
    <!-- Text -->
    <text
       xml:space="preserve"
       x="3401"
       y="9590"
       font-style="normal"
       font-weight="normal"
       font-size="807"
       id="text26"
       style="font-size:807px;font-style:normal;font-weight:normal;text-anchor:start;fill:#000000;font-family:Times"><tspan
         style="font-family:Times New Roman;-inkscape-font-specification:Times New Roman"
         id="tspan3091">2</tspan></text>
    <!-- Text -->
    <text
       xml:space="preserve"
       x="5102"
       y="9590"
       font-style="normal"
       font-weight="normal"
       font-size="807"
       id="text28"
       style="font-size:807px;font-style:normal;font-weight:normal;text-anchor:start;fill:#000000;font-family:Times"><tspan
         style="font-family:Times New Roman;-inkscape-font-specification:Times New Roman"
         id="tspan3093">3</tspan></text>
    <!-- Text -->
    <text
       xml:space="preserve"
       x="3354"
       y="8598"
       font-style="normal"
       font-weight="normal"
       font-size="807"
       id="text30"
       style="font-size:807px;font-style:normal;font-weight:normal;text-anchor:start;fill:#000000;font-family:Times"><tspan
         style="font-family:Times New Roman;-inkscape-font-specification:Times New Roman"
         id="tspan3083">0</tspan></text>
    <!-- Text -->
    <text
       xml:space="preserve"
       x="5055"
       y="8598"
       font-style="normal"
       font-weight="normal"
       font-size="807"
       id="text32"
       style="font-size:807px;font-style:normal;font-weight:normal;text-anchor:start;fill:#000000;font-family:Times"><tspan
         style="font-family:Times New Roman;-inkscape-font-specification:Times New Roman"
         id="tspan3085">1</tspan></text>
    <!-- Text -->
    <text
       xml:space="preserve"
       x="2692"
       y="8598"
       font-style="normal"
       font-weight="normal"
       font-size="807"
       id="text34"
       style="font-size:807px;font-style:normal;font-weight:normal;text-anchor:start;fill:#000000;font-family:Times"><tspan
         style="font-family:Times New Roman;-inkscape-font-specification:Times New Roman"
         id="tspan3081">1</tspan></text>
    <!-- Text -->
    <text
       xml:space="preserve"
       x="992"
       y="8598"
       font-style="normal"
       font-weight="normal"
       font-size="807"
       id="text36"
       style="font-size:807px;font-style:normal;font-weight:normal;text-anchor:start;fill:#000000;font-family:Times"><tspan
         style="font-family:Times New Roman;-inkscape-font-specification:Times New Roman"
         id="tspan3079">0</tspan></text>
    <!-- Text -->
    <text
       xml:space="preserve"
       x="992"
       y="7275"
       font-style="normal"
       font-weight="normal"
       font-size="807"
       id="text38"
       style="font-size:807px;font-style:normal;font-weight:normal;text-anchor:start;fill:#000000;font-family:Times"><tspan
         style="font-family:Times New Roman;-inkscape-font-specification:Times New Roman"
         id="tspan3071">2</tspan></text>
    <!-- Text -->
    <text
       xml:space="preserve"
       x="2692"
       y="7275"
       font-style="normal"
       font-weight="normal"
       font-size="807"
       id="text40"
       style="font-size:807px;font-style:normal;font-weight:normal;text-anchor:start;fill:#000000;font-family:Times"><tspan
         style="font-family:Times New Roman;-inkscape-font-specification:Times New Roman"
         id="tspan3073">3</tspan></text>
    <!-- Text -->
    <text
       xml:space="preserve"
       x="3354"
       y="7275"
       font-style="normal"
       font-weight="normal"
       font-size="807"
       id="text42"
       style="font-size:807px;font-style:normal;font-weight:normal;text-anchor:start;fill:#000000;font-family:Times"><tspan
         style="font-family:Times New Roman;-inkscape-font-specification:Times New Roman"
         id="tspan3075">2</tspan></text>
    <!-- Text -->
    <text
       xml:space="preserve"
       x="5055"
       y="7228"
       font-style="normal"
       font-weight="normal"
       font-size="807"
       id="text44"
       style="font-size:807px;font-style:normal;font-weight:normal;text-anchor:start;fill:#000000;font-family:Times"><tspan
         style="font-family:Times New Roman;-inkscape-font-specification:Times New Roman"
         id="tspan3077">3</tspan></text>
    <!-- Text -->
    <text
       xml:space="preserve"
       x="5007"
       y="5480"
       font-style="normal"
       font-weight="normal"
       font-size="1059"
       id="text46"
       style="font-size:1059px;font-style:normal;font-weight:normal;text-anchor:start;fill:#000000;font-family:Times"><tspan
         style="font-family:Times New Roman;-inkscape-font-specification:Times New Roman"
         id="tspan3069">1</tspan></text>
    <!-- Text -->
    <text
       xml:space="preserve"
       x="1086"
       y="5527"
       font-style="normal"
       font-weight="normal"
       font-size="1059"
       id="text48"
       style="font-size:1059px;font-style:normal;font-weight:normal;text-anchor:start;fill:#000000;font-family:Times"><tspan
         style="font-family:Times New Roman;-inkscape-font-specification:Times New Roman"
         id="tspan3067">0</tspan></text>
    <!-- Text -->
    <text
       xml:space="preserve"
       x="4913"
       y="2078"
       font-style="normal"
       font-weight="normal"
       font-size="1059"
       id="text50"
       style="font-size:1059px;font-style:normal;font-weight:normal;text-anchor:start;fill:#000000;font-family:Times"><tspan
         style="font-family:Times New Roman;-inkscape-font-specification:Times New Roman"
         id="tspan3065">3</tspan></text>
    <!-- Text -->
    <text
       xml:space="preserve"
       x="1086"
       y="2078"
       font-style="normal"
       font-weight="normal"
       font-size="1059"
       id="text52"
       style="font-size:1059px;font-style:normal;font-weight:normal;text-anchor:start;fill:#000000;font-family:Times"><tspan
         style="font-family:Times New Roman;-inkscape-font-specification:Times New Roman"
         id="tspan3063">2</tspan></text>
    <!-- Text -->
    <text
       xml:space="preserve"
       x="992"
       y="11007"
       font-style="italic"
       font-weight="normal"
       font-size="807"
       id="text54"
       style="font-size:807px;font-style:italic;font-weight:normal;text-anchor:start;fill:#000000;font-family:Times New Roman;-inkscape-font-specification:Times New Roman"><tspan
         style="font-family:Times New Roman;-inkscape-font-specification:Times New Roman"
         id="tspan3095" /></text>
    <!-- Circle -->
    <circle
       cx="5669"
       cy="5669"
       r="67"
       style="fill:#ffffff;stroke:#000000;stroke-width:16"
       id="circle56"
       sodipodi:cx="5669"
       sodipodi:cy="5669"
       sodipodi:rx="67"
       sodipodi:ry="67"
       d="m 5736,5669 c 0,37.0031 -29.9969,67 -67,67 -37.0031,0 -67,-29.9969 -67,-67 0,-37.0031 29.9969,-67 67,-67 37.0031,0 67,29.9969 67,67 z" />
    <!-- Circle -->
    <circle
       cx="944"
       cy="5669"
       r="67"
       style="fill:#ffffff;stroke:#000000;stroke-width:16"
       id="circle58"
       sodipodi:cx="944"
       sodipodi:cy="5669"
       sodipodi:rx="67"
       sodipodi:ry="67"
       d="m 1011,5669 c 0,37.0031 -29.99692,67 -67,67 -37.00308,0 -67,-29.9969 -67,-67 0,-37.0031 29.99692,-67 67,-67 37.00308,0 67,29.9969 67,67 z" />
    <!-- Circle -->
    <circle
       cx="5669"
       cy="944"
       r="67"
       style="fill:#ffffff;stroke:#000000;stroke-width:16"
       id="circle60"
       sodipodi:cx="5669"
       sodipodi:cy="944"
       sodipodi:rx="67"
       sodipodi:ry="67"
       d="m 5736,944 c 0,37.00308 -29.9969,67 -67,67 -37.0031,0 -67,-29.99692 -67,-67 0,-37.00308 29.9969,-67 67,-67 37.0031,0 67,29.99692 67,67 z" />
    <!-- Circle -->
    <circle
       cx="944"
       cy="944"
       r="67"
       style="fill:#ffffff;stroke:#000000;stroke-width:16"
       id="circle62"
       sodipodi:cx="944"
       sodipodi:cy="944"
       sodipodi:rx="67"
       sodipodi:ry="67"
       d="m 1011,944 c 0,37.00308 -29.99692,67 -67,67 -37.00308,0 -67,-29.99692 -67,-67 0,-37.00308 29.99692,-67 67,-67 37.00308,0 67,29.99692 67,67 z" />
    <!-- Circle -->
    <circle
       cx="944"
       cy="11102"
       r="67"
       style="fill:#ffffff;stroke:#000000;stroke-width:16"
       id="circle64"
       sodipodi:cx="944"
       sodipodi:cy="11102"
       sodipodi:rx="67"
       sodipodi:ry="67"
       d="m 1011,11102 c 0,37.003 -29.99692,67 -67,67 -37.00308,0 -67,-29.997 -67,-67 0,-37.003 29.99692,-67 67,-67 37.00308,0 67,29.997 67,67 z" />
    <!-- Circle -->
    <circle
       cx="944"
       cy="6377"
       r="67"
       style="fill:#ffffff;stroke:#000000;stroke-width:16"
       id="circle66"
       sodipodi:cx="944"
       sodipodi:cy="6377"
       sodipodi:rx="67"
       sodipodi:ry="67"
       d="m 1011,6377 c 0,37.0031 -29.99692,67 -67,67 -37.00308,0 -67,-29.9969 -67,-67 0,-37.0031 29.99692,-67 67,-67 37.00308,0 67,29.9969 67,67 z" />
    <!-- Circle -->
    <circle
       cx="5669"
       cy="11102"
       r="67"
       style="fill:#ffffff;stroke:#000000;stroke-width:16"
       id="circle68"
       sodipodi:cx="5669"
       sodipodi:cy="11102"
       sodipodi:rx="67"
       sodipodi:ry="67"
       d="m 5736,11102 c 0,37.003 -29.9969,67 -67,67 -37.0031,0 -67,-29.997 -67,-67 0,-37.003 29.9969,-67 67,-67 37.0031,0 67,29.997 67,67 z" />
    <!-- Circle -->
    <circle
       cx="3307"
       cy="11102"
       r="67"
       style="fill:#ffffff;stroke:#000000;stroke-width:16"
       id="circle70"
       sodipodi:cx="3307"
       sodipodi:cy="11102"
       sodipodi:rx="67"
       sodipodi:ry="67"
       d="m 3374,11102 c 0,37.003 -29.9969,67 -67,67 -37.0031,0 -67,-29.997 -67,-67 0,-37.003 29.9969,-67 67,-67 37.0031,0 67,29.997 67,67 z" />
    <!-- Circle -->
    <circle
       cx="944"
       cy="8740"
       r="67"
       style="fill:#ffffff;stroke:#000000;stroke-width:16"
       id="circle72"
       sodipodi:cx="944"
       sodipodi:cy="8740"
       sodipodi:rx="67"
       sodipodi:ry="67"
       d="m 1011,8740 c 0,37.0031 -29.99692,67 -67,67 -37.00308,0 -67,-29.9969 -67,-67 0,-37.0031 29.99692,-67 67,-67 37.00308,0 67,29.9969 67,67 z" />
    <!-- Circle -->
    <circle
       cx="3307"
       cy="8740"
       r="67"
       style="fill:#ffffff;stroke:#000000;stroke-width:16"
       id="circle74"
       sodipodi:cx="3307"
       sodipodi:cy="8740"
       sodipodi:rx="67"
       sodipodi:ry="67"
       d="m 3374,8740 c 0,37.0031 -29.9969,67 -67,67 -37.0031,0 -67,-29.9969 -67,-67 0,-37.0031 29.9969,-67 67,-67 37.0031,0 67,29.9969 67,67 z" />
    <!-- Circle -->
    <circle
       cx="5669"
       cy="8740"
       r="67"
       style="fill:#ffffff;stroke:#000000;stroke-width:16"
       id="circle76"
       sodipodi:cx="5669"
       sodipodi:cy="8740"
       sodipodi:rx="67"
       sodipodi:ry="67"
       d="m 5736,8740 c 0,37.0031 -29.9969,67 -67,67 -37.0031,0 -67,-29.9969 -67,-67 0,-37.0031 29.9969,-67 67,-67 37.0031,0 67,29.9969 67,67 z" />
    <!-- Circle -->
    <circle
       cx="3307"
       cy="6377"
       r="67"
       style="fill:#ffffff;stroke:#000000;stroke-width:16"
       id="circle78"
       sodipodi:cx="3307"
       sodipodi:cy="6377"
       sodipodi:rx="67"
       sodipodi:ry="67"
       d="m 3374,6377 c 0,37.0031 -29.9969,67 -67,67 -37.0031,0 -67,-29.9969 -67,-67 0,-37.0031 29.9969,-67 67,-67 37.0031,0 67,29.9969 67,67 z" />
    <!-- Circle -->
    <circle
       cx="5669"
       cy="6377"
       r="67"
       style="fill:#ffffff;stroke:#000000;stroke-width:16"
       id="circle80"
       sodipodi:cx="5669"
       sodipodi:cy="6377"
       sodipodi:rx="67"
       sodipodi:ry="67"
       d="m 5736,6377 c 0,37.0031 -29.9969,67 -67,67 -37.0031,0 -67,-29.9969 -67,-67 0,-37.0031 29.9969,-67 67,-67 37.0031,0 67,29.9969 67,67 z" />
    <text
       xml:space="preserve"
       x="1006.9286"
       y="10981.674"
       font-style="normal"
       font-weight="normal"
       font-size="807"
       id="text18-4"
       style="font-size:807.00006104px;font-style:normal;font-weight:normal;text-anchor:start;fill:#000000;stroke-width:0.025in;font-family:Times"><tspan
         style="font-family:Times New Roman;-inkscape-font-specification:Times New Roman"
         id="tspan3099-1">0</tspan></text>
  </g>
</svg>
