<?xml version="1.0" encoding="UTF-8" standalone="no"?>
<!-- Creator: fig2dev Version 3.2 Patchlevel 5d -->

<!-- CreationDate: Mon Sep 30 20:44:47 2013 -->

<!-- Magnification: 1.050 -->

<svg
   xmlns:ns0="http://www.iki.fi/pav/software/textext/"
   xmlns:dc="http://purl.org/dc/elements/1.1/"
   xmlns:cc="http://creativecommons.org/ns#"
   xmlns:rdf="http://www.w3.org/1999/02/22-rdf-syntax-ns#"
   xmlns:svg="http://www.w3.org/2000/svg"
   xmlns="http://www.w3.org/2000/svg"
   xmlns:xlink="http://www.w3.org/1999/xlink"
   xmlns:sodipodi="http://sodipodi.sourceforge.net/DTD/sodipodi-0.dtd"
   xmlns:inkscape="http://www.inkscape.org/namespaces/inkscape"
   width="223.32875"
   height="480.77905"
   viewBox="-7652 7512 2951.9098 6355.0249"
   id="svg2"
   version="1.1"
   inkscape:version="0.48.4 r9939"
   sodipodi:docname="FIG4.svg">
  <sodipodi:namedview
     pagecolor="#ffffff"
     bordercolor="#666666"
     borderopacity="1"
     objecttolerance="10"
     gridtolerance="10"
     guidetolerance="10"
     inkscape:pageopacity="0"
     inkscape:pageshadow="2"
     inkscape:window-width="1366"
     inkscape:window-height="744"
     id="namedview42"
     showgrid="false"
     inkscape:zoom="0.64"
     inkscape:cx="-52.607481"
     inkscape:cy="122.44832"
     inkscape:window-x="0"
     inkscape:window-y="24"
     inkscape:window-maximized="1"
     inkscape:current-layer="g4"
     fit-margin-top="0"
     fit-margin-left="0"
     fit-margin-right="0"
     fit-margin-bottom="0" />
  <metadata
     id="metadata46">
    <rdf:RDF>
      <cc:Work
         rdf:about="">
        <dc:format>image/svg+xml</dc:format>
        <dc:type
           rdf:resource="http://purl.org/dc/dcmitype/StillImage" />
      </cc:Work>
    </rdf:RDF>
  </metadata>
  <defs
     id="defs44" />
  <g
     style="fill:none;stroke-width:0.025in"
     id="g4"
     transform="translate(-9.0451054,-14)">
    <!-- Line -->
    <polygon
       points="-4771,13322 -6188,10960 -7606,13322 -7606,13322 -6188,13322 "
       style="stroke:#000000;stroke-width:48;stroke-linecap:butt;stroke-linejoin:miter"
       id="polygon6" />
    <!-- Line -->
    <polygon
       points="-4724,9921 -6141,7559 -7559,9921 -7559,9921 -6141,9921 "
       style="stroke:#000000;stroke-width:48;stroke-linecap:butt;stroke-linejoin:miter"
       id="polygon8" />
    <!-- Line -->
    <polygon
       points="-6188,13322 -6897,12141 -5480,12141 -6188,13322 "
       style="stroke:#000000;stroke-width:48;stroke-linecap:butt;stroke-linejoin:miter"
       id="polygon10" />
    <!-- Text -->
    <!-- Text -->
    <!-- Circle -->
    <circle
       cx="-4724"
       cy="9921"
       r="29"
       style="fill:#ffffff;stroke:#000000;stroke-width:8"
       id="circle24"
       sodipodi:cx="-4724"
       sodipodi:cy="9921"
       sodipodi:rx="29"
       sodipodi:ry="29"
       d="m -4695,9921 c 0,16.0163 -12.9837,29 -29,29 -16.0163,0 -29,-12.9837 -29,-29 0,-16.0163 12.9837,-29 29,-29 16.0163,0 29,12.9837 29,29 z" />
    <!-- Circle -->
    <circle
       cx="-6141"
       cy="7559"
       r="29"
       style="fill:#ffffff;stroke:#000000;stroke-width:8"
       id="circle26"
       sodipodi:cx="-6141"
       sodipodi:cy="7559"
       sodipodi:rx="29"
       sodipodi:ry="29"
       d="m -6112,7559 c 0,16.0163 -12.9837,29 -29,29 -16.0163,0 -29,-12.9837 -29,-29 0,-16.0163 12.9837,-29 29,-29 16.0163,0 29,12.9837 29,29 z" />
    <!-- Circle -->
    <circle
       cx="-6188"
       cy="10960"
       r="29"
       style="fill:#ffffff;stroke:#000000;stroke-width:8"
       id="circle28"
       sodipodi:cx="-6188"
       sodipodi:cy="10960"
       sodipodi:rx="29"
       sodipodi:ry="29"
       d="m -6159,10960 c 0,16.016 -12.9837,29 -29,29 -16.0163,0 -29,-12.984 -29,-29 0,-16.016 12.9837,-29 29,-29 16.0163,0 29,12.984 29,29 z" />
    <!-- Circle -->
    <circle
       cx="-6897"
       cy="12141"
       r="29"
       style="fill:#ffffff;stroke:#000000;stroke-width:8"
       id="circle30"
       sodipodi:cx="-6897"
       sodipodi:cy="12141"
       sodipodi:rx="29"
       sodipodi:ry="29"
       d="m -6868,12141 c 0,16.016 -12.9837,29 -29,29 -16.0163,0 -29,-12.984 -29,-29 0,-16.016 12.9837,-29 29,-29 16.0163,0 29,12.984 29,29 z" />
    <!-- Circle -->
    <circle
       cx="-6188"
       cy="13322"
       r="29"
       style="fill:#ffffff;stroke:#000000;stroke-width:8"
       id="circle32"
       sodipodi:cx="-6188"
       sodipodi:cy="13322"
       sodipodi:rx="29"
       sodipodi:ry="29"
       d="m -6159,13322 c 0,16.016 -12.9837,29 -29,29 -16.0163,0 -29,-12.984 -29,-29 0,-16.016 12.9837,-29 29,-29 16.0163,0 29,12.984 29,29 z" />
    <!-- Circle -->
    <circle
       cx="-5480"
       cy="12141"
       r="29"
       style="fill:#ffffff;stroke:#000000;stroke-width:8"
       id="circle34"
       sodipodi:cx="-5480"
       sodipodi:cy="12141"
       sodipodi:rx="29"
       sodipodi:ry="29"
       d="m -5451,12141 c 0,16.016 -12.9837,29 -29,29 -16.0163,0 -29,-12.984 -29,-29 0,-16.016 12.9837,-29 29,-29 16.0163,0 29,12.984 29,29 z" />
    <!-- Circle -->
    <circle
       cx="-4771"
       cy="13322"
       r="29"
       style="fill:#ffffff;stroke:#000000;stroke-width:8"
       id="circle36"
       sodipodi:cx="-4771"
       sodipodi:cy="13322"
       sodipodi:rx="29"
       sodipodi:ry="29"
       d="m -4742,13322 c 0,16.016 -12.9837,29 -29,29 -16.0163,0 -29,-12.984 -29,-29 0,-16.016 12.9837,-29 29,-29 16.0163,0 29,12.984 29,29 z" />
    <!-- Circle -->
    <circle
       cx="-7559"
       cy="9921"
       r="29"
       style="fill:#ffffff;stroke:#000000;stroke-width:16"
       id="circle38"
       sodipodi:cx="-7559"
       sodipodi:cy="9921"
       sodipodi:rx="29"
       sodipodi:ry="29"
       d="m -7530,9921 c 0,16.0163 -12.9837,29 -29,29 -16.0163,0 -29,-12.9837 -29,-29 0,-16.0163 12.9837,-29 29,-29 16.0163,0 29,12.9837 29,29 z" />
    <!-- Circle -->
    <circle
       cx="-7606"
       cy="13322"
       r="29"
       style="fill:#ffffff;stroke:#000000;stroke-width:16"
       id="circle40"
       sodipodi:cx="-7606"
       sodipodi:cy="13322"
       sodipodi:rx="29"
       sodipodi:ry="29"
       d="m -7577,13322 c 0,16.016 -12.9837,29 -29,29 -16.0163,0 -29,-12.984 -29,-29 0,-16.016 12.9837,-29 29,-29 16.0163,0 29,12.984 29,29 z" />
    <g
       transform="matrix(50,0,0,50,-17556.596,3759.0808)"
       ns0:text="$\\Omega^H$"
       ns0:preamble=""
       id="g3841">
      <defs
         id="defs3843">
        <g
           id="g3845">
          <symbol
             style="overflow:visible"
             overflow="visible"
             id="textext-acd99569-0">
            <path
               inkscape:connector-curvature="0"
               style="stroke:none"
               d=""
               id="path3848" />
          </symbol>
          <symbol
             style="overflow:visible"
             overflow="visible"
             id="textext-acd99569-1">
            <path
               inkscape:connector-curvature="0"
               style="stroke:none"
               d="m 6.75,-1.609375 -0.25,0 c -0.046875,0.25 -0.09375,0.484375 -0.1875,0.71875 -0.046875,0.15625 -0.078125,0.25 -0.65625,0.25 l -0.796875,0 C 5,-1.203125 5.296875,-1.6875 5.75,-2.34375 c 0.46875,-0.703125 0.875,-1.390625 0.875,-2.1875 0,-1.375 -1.34375,-2.5 -3.03125,-2.5 -1.703125,0 -3.03125,1.140625 -3.03125,2.5 0,0.796875 0.40625,1.484375 0.875,2.1875 0.4375,0.65625 0.75,1.140625 0.890625,1.703125 l -0.796875,0 C 0.953125,-0.640625 0.921875,-0.734375 0.875,-0.875 0.78125,-1.109375 0.734375,-1.359375 0.6875,-1.609375 l -0.25,0 L 0.765625,0 2.359375,0 c 0.21875,0 0.25,0 0.25,-0.203125 0,-0.703125 -0.3125,-1.578125 -0.53125,-2.21875 -0.21875,-0.578125 -0.5,-1.359375 -0.5,-2.109375 0,-1.59375 1.109375,-2.28125 2.015625,-2.28125 0.953125,0 2.015625,0.71875 2.015625,2.28125 0,0.75 -0.28125,1.5 -0.5625,2.3125 -0.15625,0.421875 -0.46875,1.328125 -0.46875,2.015625 C 4.578125,0 4.609375,0 4.828125,0 l 1.59375,0 z"
               id="path3851" />
          </symbol>
          <symbol
             style="overflow:visible"
             overflow="visible"
             id="textext-acd99569-2">
            <path
               inkscape:connector-curvature="0"
               style="stroke:none"
               d=""
               id="path3854" />
          </symbol>
          <symbol
             style="overflow:visible"
             overflow="visible"
             id="textext-acd99569-3">
            <path
               inkscape:connector-curvature="0"
               style="stroke:none"
               d="m 5.859375,-4.1875 c 0.0625,-0.265625 0.078125,-0.328125 0.59375,-0.328125 0.15625,0 0.234375,0 0.234375,-0.140625 0,-0.03125 -0.015625,-0.109375 -0.109375,-0.109375 -0.203125,0 -0.703125,0.03125 -0.90625,0.03125 -0.125,0 -0.375,0 -0.484375,0 C 5.046875,-4.75 4.875,-4.765625 4.75,-4.765625 c -0.046875,0 -0.15625,0 -0.15625,0.15625 0,0.09375 0.09375,0.09375 0.234375,0.09375 0,0 0.140625,0 0.265625,0.015625 0.140625,0.015625 0.15625,0.03125 0.15625,0.109375 0,0 0,0.046875 -0.03125,0.140625 l -0.40625,1.65625 -2.34375,0 0.40625,-1.625 c 0.0625,-0.234375 0.078125,-0.296875 0.609375,-0.296875 0.125,0 0.21875,0 0.21875,-0.140625 0,-0.03125 -0.03125,-0.109375 -0.109375,-0.109375 -0.203125,0 -0.71875,0.03125 -0.921875,0.03125 -0.109375,0 -0.359375,0 -0.484375,0 C 2.0625,-4.75 1.890625,-4.765625 1.75,-4.765625 c -0.03125,0 -0.140625,0 -0.140625,0.15625 0,0.09375 0.078125,0.09375 0.21875,0.09375 0.015625,0 0.140625,0 0.265625,0.015625 0.15625,0.015625 0.171875,0.03125 0.171875,0.109375 0,0 0,0.046875 -0.03125,0.140625 l -0.9375,3.703125 C 1.25,-0.3125 1.234375,-0.25 0.6875,-0.25 c -0.109375,0 -0.203125,0 -0.203125,0.140625 C 0.484375,-0.03125 0.53125,0 0.59375,0 0.796875,0 1.296875,-0.03125 1.5,-0.03125 c 0.109375,0 0.359375,0 0.484375,0.015625 C 2.125,-0.015625 2.296875,0 2.421875,0 2.453125,0 2.578125,0 2.578125,-0.140625 2.578125,-0.25 2.5,-0.25 2.34375,-0.25 c -0.109375,0 -0.140625,0 -0.265625,-0.015625 -0.15625,-0.015625 -0.15625,-0.03125 -0.15625,-0.109375 0,0 0,-0.046875 0.03125,-0.140625 l 0.453125,-1.828125 2.34375,0 -0.453125,1.796875 C 4.234375,-0.3125 4.21875,-0.25 3.671875,-0.25 3.5625,-0.25 3.46875,-0.25 3.46875,-0.109375 3.46875,-0.03125 3.515625,0 3.578125,0 3.78125,0 4.28125,-0.03125 4.484375,-0.03125 c 0.125,0 0.359375,0 0.484375,0.015625 C 5.109375,-0.015625 5.28125,0 5.421875,0 5.453125,0 5.5625,0 5.5625,-0.140625 5.5625,-0.25 5.484375,-0.25 5.328125,-0.25 5.21875,-0.25 5.1875,-0.25 5.0625,-0.265625 4.90625,-0.28125 4.90625,-0.296875 4.90625,-0.375 c 0,-0.03125 0.03125,-0.109375 0.03125,-0.140625 z"
               id="path3857" />
          </symbol>
        </g>
      </defs>
      <g
         id="textext-acd99569-4">
        <g
           style="fill:#000000;fill-opacity:1"
           id="g3860">
          <use
             height="6567.8721"
             width="2976.2285"
             xlink:href="#textext-acd99569-1"
             x="223.43201"
             y="134.765"
             id="use3862" />
        </g>
        <g
           style="fill:#000000;fill-opacity:1"
           id="g3864">
          <use
             height="6567.8721"
             width="2976.2285"
             xlink:href="#textext-acd99569-3"
             x="230.627"
             y="131.149"
             id="use3866" />
        </g>
      </g>
    </g>
    <g
       id="g3985"
       ns0:preamble=""
       ns0:text="$\\Omega^h$"
       transform="matrix(50,0,0,50,-17638.012,7142.7751)">
      <defs
         id="defs3987">
        <g
           id="g3989">
          <symbol
             id="textext-62249186-0"
             overflow="visible"
             style="overflow:visible">
            <path
               id="path3992"
               d=""
               style="stroke:none"
               inkscape:connector-curvature="0" />
          </symbol>
          <symbol
             id="textext-62249186-1"
             overflow="visible"
             style="overflow:visible">
            <path
               id="path3995"
               d="m 6.75,-1.609375 -0.25,0 c -0.046875,0.25 -0.09375,0.484375 -0.1875,0.71875 -0.046875,0.15625 -0.078125,0.25 -0.65625,0.25 l -0.796875,0 C 5,-1.203125 5.296875,-1.6875 5.75,-2.34375 c 0.46875,-0.703125 0.875,-1.390625 0.875,-2.1875 0,-1.375 -1.34375,-2.5 -3.03125,-2.5 -1.703125,0 -3.03125,1.140625 -3.03125,2.5 0,0.796875 0.40625,1.484375 0.875,2.1875 0.4375,0.65625 0.75,1.140625 0.890625,1.703125 l -0.796875,0 C 0.953125,-0.640625 0.921875,-0.734375 0.875,-0.875 0.78125,-1.109375 0.734375,-1.359375 0.6875,-1.609375 l -0.25,0 L 0.765625,0 2.359375,0 c 0.21875,0 0.25,0 0.25,-0.203125 0,-0.703125 -0.3125,-1.578125 -0.53125,-2.21875 -0.21875,-0.578125 -0.5,-1.359375 -0.5,-2.109375 0,-1.59375 1.109375,-2.28125 2.015625,-2.28125 0.953125,0 2.015625,0.71875 2.015625,2.28125 0,0.75 -0.28125,1.5 -0.5625,2.3125 -0.15625,0.421875 -0.46875,1.328125 -0.46875,2.015625 C 4.578125,0 4.609375,0 4.828125,0 l 1.59375,0 z"
               style="stroke:none"
               inkscape:connector-curvature="0" />
          </symbol>
          <symbol
             id="textext-62249186-2"
             overflow="visible"
             style="overflow:visible">
            <path
               id="path3998"
               d=""
               style="stroke:none"
               inkscape:connector-curvature="0" />
          </symbol>
          <symbol
             id="textext-62249186-3"
             overflow="visible"
             style="overflow:visible">
            <path
               id="path4001"
               d="m 2.1875,-4.625 c 0,-0.015625 0.015625,-0.109375 0.015625,-0.109375 0,-0.046875 -0.015625,-0.109375 -0.109375,-0.109375 -0.140625,0 -0.71875,0.0625 -0.890625,0.078125 -0.046875,0 -0.15625,0.015625 -0.15625,0.15625 0,0.09375 0.109375,0.09375 0.1875,0.09375 0.328125,0 0.328125,0.0625 0.328125,0.109375 0,0.046875 -0.015625,0.09375 -0.015625,0.15625 L 0.5625,-0.3125 c -0.046875,0.125 -0.046875,0.140625 -0.046875,0.15625 0,0.109375 0.09375,0.21875 0.25,0.21875 0.078125,0 0.203125,-0.03125 0.28125,-0.171875 C 1.0625,-0.15625 1.125,-0.40625 1.15625,-0.546875 l 0.171875,-0.625 C 1.34375,-1.28125 1.421875,-1.546875 1.4375,-1.640625 1.5,-1.90625 1.5,-1.921875 1.640625,-2.140625 1.875,-2.484375 2.21875,-2.875 2.765625,-2.875 c 0.390625,0 0.40625,0.3125 0.40625,0.484375 0,0.421875 -0.296875,1.1875 -0.40625,1.484375 -0.078125,0.203125 -0.109375,0.265625 -0.109375,0.375 0,0.375 0.3125,0.59375 0.65625,0.59375 0.703125,0 1.015625,-0.953125 1.015625,-1.0625 0,-0.09375 -0.09375,-0.09375 -0.125,-0.09375 -0.09375,0 -0.09375,0.046875 -0.125,0.125 -0.15625,0.5625 -0.46875,0.84375 -0.734375,0.84375 -0.15625,0 -0.1875,-0.09375 -0.1875,-0.25 0,-0.15625 0.046875,-0.25 0.171875,-0.5625 C 3.40625,-1.15625 3.6875,-1.890625 3.6875,-2.28125 c 0,-0.109375 0,-0.40625 -0.25,-0.609375 -0.125,-0.078125 -0.328125,-0.1875 -0.65625,-0.1875 -0.5,0 -0.875,0.28125 -1.125,0.578125 z"
               style="stroke:none"
               inkscape:connector-curvature="0" />
          </symbol>
        </g>
      </defs>
      <g
         id="textext-62249186-4">
        <g
           id="g4004"
           style="fill:#000000;fill-opacity:1">
          <use
             id="use4006"
             y="134.765"
             x="223.43201"
             xlink:href="#textext-62249186-1"
             width="2976.2285"
             height="6567.8721" />
        </g>
        <g
           id="g4008"
           style="fill:#000000;fill-opacity:1">
          <use
             id="use4010"
             y="131.149"
             x="230.627"
             xlink:href="#textext-62249186-3"
             width="2976.2285"
             height="6567.8721" />
        </g>
      </g>
    </g>
  </g>
</svg>
