<?xml version="1.0" encoding="UTF-8" standalone="no"?>
<!-- Creator: fig2dev Version 3.2 Patchlevel 5d -->

<!-- CreationDate: Mon Sep 30 20:16:01 2013 -->

<!-- Magnification: 1.050 -->

<svg
   xmlns:ns0="http://www.iki.fi/pav/software/textext/"
   xmlns:dc="http://purl.org/dc/elements/1.1/"
   xmlns:cc="http://creativecommons.org/ns#"
   xmlns:rdf="http://www.w3.org/1999/02/22-rdf-syntax-ns#"
   xmlns:svg="http://www.w3.org/2000/svg"
   xmlns="http://www.w3.org/2000/svg"
   xmlns:xlink="http://www.w3.org/1999/xlink"
   xmlns:sodipodi="http://sodipodi.sourceforge.net/DTD/sodipodi-0.dtd"
   xmlns:inkscape="http://www.inkscape.org/namespaces/inkscape"
   width="98.872841"
   height="173.39705"
   viewBox="362 236 1383.1212 2311.0434"
   id="svg2"
   version="1.1"
   inkscape:version="0.48.4 r9939"
   sodipodi:docname="FIG3.svg">
  <sodipodi:namedview
     pagecolor="#ffffff"
     bordercolor="#666666"
     borderopacity="1"
     objecttolerance="10"
     gridtolerance="10"
     guidetolerance="10"
     inkscape:pageopacity="0"
     inkscape:pageshadow="2"
     inkscape:window-width="1366"
     inkscape:window-height="744"
     id="namedview130"
     showgrid="false"
     inkscape:zoom="3.5317929"
     inkscape:cx="69.86206"
     inkscape:cy="98.646907"
     inkscape:window-x="0"
     inkscape:window-y="24"
     inkscape:window-maximized="1"
     inkscape:current-layer="g4"
     fit-margin-top="0"
     fit-margin-left="0"
     fit-margin-right="0"
     fit-margin-bottom="0" />
  <metadata
     id="metadata134">
    <rdf:RDF>
      <cc:Work
         rdf:about="">
        <dc:format>image/svg+xml</dc:format>
        <dc:type
           rdf:resource="http://purl.org/dc/dcmitype/StillImage" />
      </cc:Work>
    </rdf:RDF>
  </metadata>
  <defs
     id="defs132">
    <defs
       id="defs3813">
      <g
         id="g3815">
        <symbol
           id="textext-a5df0899-0"
           overflow="visible"
           style="overflow:visible">
          <path
             id="path3818"
             d=""
             style="stroke:none"
             inkscape:connector-curvature="0" />
        </symbol>
        <symbol
           id="textext-a5df0899-1"
           overflow="visible"
           style="overflow:visible">
          <path
             id="path3821"
             d="m 0.875,-0.59375 c -0.03125,0.15625 -0.09375,0.390625 -0.09375,0.4375 0,0.171875 0.140625,0.265625 0.296875,0.265625 0.125,0 0.296875,-0.078125 0.375,-0.28125 0,-0.015625 0.125,-0.484375 0.1875,-0.734375 l 0.21875,-0.890625 C 1.90625,-2.03125 1.96875,-2.25 2.03125,-2.46875 c 0.03125,-0.171875 0.109375,-0.46875 0.125,-0.5 0.140625,-0.3125 0.671875,-1.21875 1.625,-1.21875 0.453125,0 0.53125,0.375 0.53125,0.703125 0,0.25 -0.0625,0.53125 -0.140625,0.828125 L 3.890625,-1.5 3.6875,-0.75 c -0.03125,0.203125 -0.125,0.546875 -0.125,0.59375 0,0.171875 0.140625,0.265625 0.28125,0.265625 0.3125,0 0.375,-0.25 0.453125,-0.5625 0.140625,-0.5625 0.515625,-2.015625 0.59375,-2.40625 0.03125,-0.125 0.5625,-1.328125 1.65625,-1.328125 0.421875,0 0.53125,0.34375 0.53125,0.703125 0,0.5625 -0.421875,1.703125 -0.625,2.234375 -0.078125,0.234375 -0.125,0.34375 -0.125,0.546875 0,0.46875 0.34375,0.8125 0.8125,0.8125 0.9375,0 1.3125,-1.453125 1.3125,-1.53125 0,-0.109375 -0.09375,-0.109375 -0.125,-0.109375 -0.09375,0 -0.09375,0.03125 -0.140625,0.1875 -0.15625,0.53125 -0.46875,1.234375 -1.015625,1.234375 -0.171875,0 -0.25,-0.09375 -0.25,-0.328125 0,-0.25 0.09375,-0.484375 0.1875,-0.703125 0.1875,-0.53125 0.609375,-1.625 0.609375,-2.203125 0,-0.640625 -0.40625,-1.0625 -1.15625,-1.0625 -0.734375,0 -1.25,0.4375 -1.625,0.96875 0,-0.125 -0.03125,-0.46875 -0.3125,-0.703125 -0.25,-0.21875 -0.5625,-0.265625 -0.8125,-0.265625 -0.90625,0 -1.390625,0.640625 -1.5625,0.875 -0.046875,-0.578125 -0.46875,-0.875 -0.921875,-0.875 -0.453125,0 -0.640625,0.390625 -0.734375,0.5625 -0.171875,0.359375 -0.296875,0.9375 -0.296875,0.96875 0,0.109375 0.09375,0.109375 0.109375,0.109375 0.109375,0 0.109375,-0.015625 0.171875,-0.234375 0.171875,-0.703125 0.375,-1.1875 0.734375,-1.1875 0.15625,0 0.296875,0.078125 0.296875,0.453125 0,0.21875 -0.03125,0.328125 -0.15625,0.84375 z"
             style="stroke:none"
             inkscape:connector-curvature="0" />
        </symbol>
        <symbol
           id="textext-a5df0899-2"
           overflow="visible"
           style="overflow:visible">
          <path
             id="path3824"
             d=""
             style="stroke:none"
             inkscape:connector-curvature="0" />
        </symbol>
        <symbol
           id="textext-a5df0899-3"
           overflow="visible"
           style="overflow:visible">
          <path
             id="path3827"
             d="m 2.9375,-2.65625 c -0.140625,-0.234375 -0.375,-0.421875 -0.71875,-0.421875 -0.890625,0 -1.796875,0.984375 -1.796875,1.984375 0,0.6875 0.453125,1.15625 1.0625,1.15625 0.375,0 0.703125,-0.203125 0.984375,-0.484375 C 2.59375,0 3,0.0625 3.1875,0.0625 c 0.25,0 0.421875,-0.140625 0.546875,-0.359375 0.15625,-0.28125 0.25,-0.671875 0.25,-0.703125 0,-0.09375 -0.09375,-0.09375 -0.109375,-0.09375 -0.109375,0 -0.109375,0.03125 -0.15625,0.21875 C 3.625,-0.53125 3.5,-0.125 3.203125,-0.125 3.03125,-0.125 2.96875,-0.28125 2.96875,-0.46875 c 0,-0.109375 0.0625,-0.375 0.109375,-0.546875 0.046875,-0.1875 0.125,-0.46875 0.15625,-0.625 L 3.375,-2.171875 C 3.421875,-2.359375 3.5,-2.6875 3.5,-2.71875 3.5,-2.875 3.375,-2.9375 3.265625,-2.9375 c -0.125,0 -0.28125,0.078125 -0.328125,0.28125 z M 2.5,-0.875 C 2.453125,-0.671875 2.296875,-0.53125 2.140625,-0.40625 2.078125,-0.34375 1.796875,-0.125 1.5,-0.125 c -0.265625,0 -0.515625,-0.1875 -0.515625,-0.671875 0,-0.375 0.203125,-1.140625 0.375,-1.421875 0.3125,-0.5625 0.671875,-0.65625 0.859375,-0.65625 0.484375,0 0.625,0.53125 0.625,0.609375 0,0.015625 -0.015625,0.078125 -0.015625,0.09375 z"
             style="stroke:none"
             inkscape:connector-curvature="0" />
        </symbol>
        <symbol
           id="textext-a5df0899-4"
           overflow="visible"
           style="overflow:visible">
          <path
             id="path3830"
             d=""
             style="stroke:none"
             inkscape:connector-curvature="0" />
        </symbol>
        <symbol
           id="textext-a5df0899-5"
           overflow="visible"
           style="overflow:visible">
          <path
             id="path3833"
             d="m 2.328125,-4.4375 c 0,-0.1875 0,-0.1875 -0.203125,-0.1875 -0.453125,0.4375 -1.078125,0.4375 -1.359375,0.4375 l 0,0.25 c 0.15625,0 0.625,0 1,-0.1875 l 0,3.546875 c 0,0.234375 0,0.328125 -0.6875,0.328125 l -0.265625,0 0,0.25 c 0.125,0 0.984375,-0.03125 1.234375,-0.03125 0.21875,0 1.09375,0.03125 1.25,0.03125 l 0,-0.25 -0.265625,0 c -0.703125,0 -0.703125,-0.09375 -0.703125,-0.328125 z"
             style="stroke:none"
             inkscape:connector-curvature="0" />
        </symbol>
      </g>
    </defs>
  </defs>
  <g
     id="g4"
     style="fill:none;stroke-width:0.025in"
     transform="translate(-47.506074,-126.45562)">
    <!-- Line -->
    <polyline
       transform="translate(403.30675,-305.28081)"
       id="polyline6"
       style="stroke:#000000;stroke-width:8;stroke-linecap:butt;stroke-linejoin:miter"
       points="819,796 922,723 " />
    <!-- Arrowhead on XXXpoint 819 796 - 986 679-->
    <polygon
       transform="translate(403.30675,-305.28081)"
       id="polygon8"
       style="fill:#000000;stroke:#000000;stroke-width:8;stroke-miterlimit:8"
       points="924,721 930,755 930,755 977,685 894,704 " />
    <!-- Line -->
    <polyline
       transform="translate(-394.90452,305.2808)"
       id="polyline10"
       style="stroke:#000000;stroke-width:8;stroke-linecap:butt;stroke-linejoin:miter"
       points="1246,498 1142,571 " />
    <!-- Arrowhead on XXXpoint 1246 498 - 1078 615-->
    <polygon
       transform="translate(-394.90452,305.2808)"
       id="polygon12"
       style="fill:#000000;stroke:#000000;stroke-width:8;stroke-miterlimit:8"
       points="1169,588 1139,572 1133,537 1133,537 1087,608 " />
    <!-- Line -->
    <polyline
       id="polyline14"
       style="stroke:#000000;stroke-width:8;stroke-linecap:butt;stroke-linejoin:miter"
       points="1511,2362 566,1889 " />
    <!-- Line -->
    <polyline
       id="polyline16"
       style="stroke:#000000;stroke-width:8;stroke-linecap:butt;stroke-linejoin:miter"
       points="1511,2078 566,1889 " />
    <!-- Line -->
    <polyline
       id="polyline18"
       style="stroke:#000000;stroke-width:8;stroke-linecap:butt;stroke-linejoin:miter"
       points="1511,1795 566,1842 " />
    <!-- Line -->
    <polyline
       id="polyline20"
       style="stroke:#000000;stroke-width:8;stroke-linecap:butt;stroke-linejoin:miter"
       points="1511,1511 566,1842 " />
    <!-- Line -->
    <polyline
       id="polyline22"
       style="stroke:#000000;stroke-width:8;stroke-linecap:butt;stroke-linejoin:miter"
       points="1511,1228 566,1842 " />
    <!-- Line -->
    <polyline
       id="polyline24"
       style="stroke:#000000;stroke-width:8;stroke-linecap:butt;stroke-linejoin:miter"
       points="1511,1795 566,1133 " />
    <!-- Line -->
    <polyline
       id="polyline26"
       style="stroke:#000000;stroke-width:8;stroke-linecap:butt;stroke-linejoin:miter"
       points="1511,1511 566,1133 " />
    <!-- Line -->
    <polyline
       id="polyline28"
       style="stroke:#000000;stroke-width:8;stroke-linecap:butt;stroke-linejoin:miter"
       points="1511,1228 566,1133 " />
    <!-- Line -->
    <polyline
       id="polyline30"
       style="stroke:#000000;stroke-width:8;stroke-linecap:butt;stroke-linejoin:miter"
       points="1511,944 566,1086 " />
    <!-- Line -->
    <polyline
       id="polyline32"
       style="stroke:#000000;stroke-width:8;stroke-linecap:butt;stroke-linejoin:miter"
       points="1511,661 566,1086 " />
    <!-- Line -->
    <polyline
       id="polyline34"
       style="stroke:#000000;stroke-width:8;stroke-linecap:butt;stroke-linejoin:miter"
       points="1511,377 566,1086 " />
    <!-- Line -->
    <polyline
       id="polyline36"
       style="stroke:#000000;stroke-width:8;stroke-linecap:butt;stroke-linejoin:miter"
       points="1511,2645 566,1889 " />
    <!-- Circle -->
    <circle
       id="circle38"
       style="fill:#ffffff;stroke:#000000;stroke-width:8"
       r="47"
       cy="2645"
       cx="1511"
       sodipodi:cx="1511"
       sodipodi:cy="2645"
       sodipodi:rx="47"
       sodipodi:ry="47"
       d="m 1558,2645 c 0,25.9574 -21.0426,47 -47,47 -25.9574,0 -47,-21.0426 -47,-47 0,-25.9574 21.0426,-47 47,-47 25.9574,0 47,21.0426 47,47 z" />
    <!-- Circle -->
    <circle
       id="circle40"
       style="fill:#ffffff;stroke:#000000;stroke-width:8"
       r="47"
       cy="2362"
       cx="1511"
       sodipodi:cx="1511"
       sodipodi:cy="2362"
       sodipodi:rx="47"
       sodipodi:ry="47"
       d="m 1558,2362 c 0,25.9574 -21.0426,47 -47,47 -25.9574,0 -47,-21.0426 -47,-47 0,-25.9574 21.0426,-47 47,-47 25.9574,0 47,21.0426 47,47 z" />
    <!-- Circle -->
    <circle
       id="circle42"
       style="fill:#ffffff;stroke:#000000;stroke-width:8"
       r="47"
       cy="2078"
       cx="1511"
       sodipodi:cx="1511"
       sodipodi:cy="2078"
       sodipodi:rx="47"
       sodipodi:ry="47"
       d="m 1558,2078 c 0,25.9574 -21.0426,47 -47,47 -25.9574,0 -47,-21.0426 -47,-47 0,-25.9574 21.0426,-47 47,-47 25.9574,0 47,21.0426 47,47 z" />
    <!-- Circle -->
    <circle
       id="circle44"
       style="fill:#ffffff;stroke:#000000;stroke-width:8"
       r="47"
       cy="1795"
       cx="1511"
       sodipodi:cx="1511"
       sodipodi:cy="1795"
       sodipodi:rx="47"
       sodipodi:ry="47"
       d="m 1558,1795 c 0,25.9574 -21.0426,47 -47,47 -25.9574,0 -47,-21.0426 -47,-47 0,-25.9574 21.0426,-47 47,-47 25.9574,0 47,21.0426 47,47 z" />
    <!-- Circle -->
    <circle
       id="circle46"
       style="fill:#ffffff;stroke:#000000;stroke-width:8"
       r="47"
       cy="1511"
       cx="1511"
       sodipodi:cx="1511"
       sodipodi:cy="1511"
       sodipodi:rx="47"
       sodipodi:ry="47"
       d="m 1558,1511 c 0,25.9574 -21.0426,47 -47,47 -25.9574,0 -47,-21.0426 -47,-47 0,-25.9574 21.0426,-47 47,-47 25.9574,0 47,21.0426 47,47 z" />
    <!-- Circle -->
    <circle
       id="circle48"
       style="fill:#ffffff;stroke:#000000;stroke-width:8"
       r="47"
       cy="1228"
       cx="1511"
       sodipodi:cx="1511"
       sodipodi:cy="1228"
       sodipodi:rx="47"
       sodipodi:ry="47"
       d="m 1558,1228 c 0,25.9574 -21.0426,47 -47,47 -25.9574,0 -47,-21.0426 -47,-47 0,-25.9574 21.0426,-47 47,-47 25.9574,0 47,21.0426 47,47 z" />
    <!-- Circle -->
    <circle
       id="circle50"
       style="fill:#ffffff;stroke:#000000;stroke-width:8"
       r="47"
       cy="944"
       cx="1511"
       sodipodi:cx="1511"
       sodipodi:cy="944"
       sodipodi:rx="47"
       sodipodi:ry="47"
       d="m 1558,944 c 0,25.95738 -21.0426,47 -47,47 -25.9574,0 -47,-21.04262 -47,-47 0,-25.95738 21.0426,-47 47,-47 25.9574,0 47,21.04262 47,47 z" />
    <!-- Circle -->
    <circle
       id="circle52"
       style="fill:#ffffff;stroke:#000000;stroke-width:8"
       r="47"
       cy="661"
       cx="1511"
       sodipodi:cx="1511"
       sodipodi:cy="661"
       sodipodi:rx="47"
       sodipodi:ry="47"
       d="m 1558,661 c 0,25.95738 -21.0426,47 -47,47 -25.9574,0 -47,-21.04262 -47,-47 0,-25.95738 21.0426,-47 47,-47 25.9574,0 47,21.04262 47,47 z" />
    <!-- Circle -->
    <circle
       id="circle54"
       style="fill:#ffffff;stroke:#000000;stroke-width:8"
       r="47"
       cy="377"
       cx="1511"
       sodipodi:cx="1511"
       sodipodi:cy="377"
       sodipodi:rx="47"
       sodipodi:ry="47"
       d="m 1558,377 c 0,25.95738 -21.0426,47 -47,47 -25.9574,0 -47,-21.04262 -47,-47 0,-25.95738 21.0426,-47 47,-47 25.9574,0 47,21.04262 47,47 z" />
    <!-- Line: box -->
    <rect
       id="rect56"
       style="fill:#ffffff;stroke:#000000;stroke-width:8;stroke-linecap:butt;stroke-linejoin:miter"
       rx="0"
       height="141"
       width="141"
       y="1039"
       x="472" />
    <!-- Line: box -->
    <rect
       id="rect58"
       style="fill:#ffffff;stroke:#000000;stroke-width:8;stroke-linecap:butt;stroke-linejoin:miter"
       rx="0"
       height="141"
       width="141"
       y="1795"
       x="472" />
    <!-- Text -->
    <!-- Text -->
    <!-- Text -->
    <!-- Text -->
    <!-- Text -->
    <!-- Text -->
    <!-- Text -->
    <!-- Text -->
    <!-- Text -->
    <!-- Text -->
    <!-- Text -->
    <!-- Text -->
    <g
       id="g3548"
       ns0:preamble=""
       ns0:text="$\\eta_{1a}$"
       transform="matrix(12.357353,-12.357353,12.357353,12.357353,-3602.7557,1894.5949)">
      <defs
         id="defs3550">
        <g
           id="g3552">
          <symbol
             id="textext-a02707ce-0"
             overflow="visible"
             style="overflow:visible">
            <path
               id="path3555"
               d=""
               style="stroke:none"
               inkscape:connector-curvature="0" />
          </symbol>
          <symbol
             id="textext-a02707ce-1"
             overflow="visible"
             style="overflow:visible">
            <path
               id="path3558"
               d="M 4.859375,-2.765625 C 4.921875,-2.9375 4.9375,-3.078125 4.9375,-3.34375 c 0,-0.640625 -0.390625,-1.0625 -1.140625,-1.0625 -0.78125,0 -1.296875,0.515625 -1.546875,0.875 -0.046875,-0.578125 -0.46875,-0.875 -0.921875,-0.875 -0.453125,0 -0.640625,0.390625 -0.734375,0.5625 C 0.421875,-3.5 0.296875,-2.90625 0.296875,-2.875 c 0,0.109375 0.09375,0.109375 0.109375,0.109375 0.109375,0 0.109375,-0.015625 0.171875,-0.234375 0.171875,-0.703125 0.375,-1.1875 0.734375,-1.1875 0.15625,0 0.296875,0.078125 0.296875,0.453125 0,0.21875 -0.03125,0.328125 -0.15625,0.84375 L 0.875,-0.59375 c -0.03125,0.15625 -0.09375,0.390625 -0.09375,0.4375 0,0.171875 0.140625,0.265625 0.296875,0.265625 0.125,0 0.296875,-0.078125 0.375,-0.28125 0,-0.015625 0.125,-0.484375 0.1875,-0.734375 l 0.21875,-0.890625 C 1.90625,-2.03125 1.96875,-2.25 2.03125,-2.46875 2.046875,-2.53125 2.125,-2.859375 2.140625,-2.921875 2.15625,-3.015625 2.46875,-3.5625 2.8125,-3.84375 3.03125,-4 3.34375,-4.1875 3.765625,-4.1875 c 0.4375,0 0.546875,0.34375 0.546875,0.703125 0,0.046875 0,0.21875 -0.109375,0.625 l -1.125,4.578125 c -0.03125,0.125 -0.03125,0.140625 -0.03125,0.171875 0,0.140625 0.109375,0.265625 0.265625,0.265625 0.3125,0 0.390625,-0.296875 0.421875,-0.40625 z"
               style="stroke:none"
               inkscape:connector-curvature="0" />
          </symbol>
          <symbol
             id="textext-a02707ce-2"
             overflow="visible"
             style="overflow:visible">
            <path
               id="path3561"
               d=""
               style="stroke:none"
               inkscape:connector-curvature="0" />
          </symbol>
          <symbol
             id="textext-a02707ce-3"
             overflow="visible"
             style="overflow:visible">
            <path
               id="path3564"
               d="m 2.328125,-4.4375 c 0,-0.1875 0,-0.1875 -0.203125,-0.1875 -0.453125,0.4375 -1.078125,0.4375 -1.359375,0.4375 l 0,0.25 c 0.15625,0 0.625,0 1,-0.1875 l 0,3.546875 c 0,0.234375 0,0.328125 -0.6875,0.328125 l -0.265625,0 0,0.25 c 0.125,0 0.984375,-0.03125 1.234375,-0.03125 0.21875,0 1.09375,0.03125 1.25,0.03125 l 0,-0.25 -0.265625,0 c -0.703125,0 -0.703125,-0.09375 -0.703125,-0.328125 z"
               style="stroke:none"
               inkscape:connector-curvature="0" />
          </symbol>
          <symbol
             id="textext-a02707ce-4"
             overflow="visible"
             style="overflow:visible">
            <path
               id="path3567"
               d=""
               style="stroke:none"
               inkscape:connector-curvature="0" />
          </symbol>
          <symbol
             id="textext-a02707ce-5"
             overflow="visible"
             style="overflow:visible">
            <path
               id="path3570"
               d="m 2.9375,-2.65625 c -0.140625,-0.234375 -0.375,-0.421875 -0.71875,-0.421875 -0.890625,0 -1.796875,0.984375 -1.796875,1.984375 0,0.6875 0.453125,1.15625 1.0625,1.15625 0.375,0 0.703125,-0.203125 0.984375,-0.484375 C 2.59375,0 3,0.0625 3.1875,0.0625 c 0.25,0 0.421875,-0.140625 0.546875,-0.359375 0.15625,-0.28125 0.25,-0.671875 0.25,-0.703125 0,-0.09375 -0.09375,-0.09375 -0.109375,-0.09375 -0.109375,0 -0.109375,0.03125 -0.15625,0.21875 C 3.625,-0.53125 3.5,-0.125 3.203125,-0.125 3.03125,-0.125 2.96875,-0.28125 2.96875,-0.46875 c 0,-0.109375 0.0625,-0.375 0.109375,-0.546875 0.046875,-0.1875 0.125,-0.46875 0.15625,-0.625 L 3.375,-2.171875 C 3.421875,-2.359375 3.5,-2.6875 3.5,-2.71875 3.5,-2.875 3.375,-2.9375 3.265625,-2.9375 c -0.125,0 -0.28125,0.078125 -0.328125,0.28125 z M 2.5,-0.875 C 2.453125,-0.671875 2.296875,-0.53125 2.140625,-0.40625 2.078125,-0.34375 1.796875,-0.125 1.5,-0.125 c -0.265625,0 -0.515625,-0.1875 -0.515625,-0.671875 0,-0.375 0.203125,-1.140625 0.375,-1.421875 0.3125,-0.5625 0.671875,-0.65625 0.859375,-0.65625 0.484375,0 0.625,0.53125 0.625,0.609375 0,0.015625 -0.015625,0.078125 -0.015625,0.09375 z"
               style="stroke:none"
               inkscape:connector-curvature="0" />
          </symbol>
        </g>
      </defs>
      <g
         id="textext-a02707ce-6">
        <g
           id="g3573"
           style="fill:#000000;fill-opacity:1">
          <use
             id="use3575"
             y="134.765"
             x="223.43201"
             xlink:href="#textext-a02707ce-1"
             width="1259"
             height="2519" />
        </g>
        <g
           id="g3577"
           style="fill:#000000;fill-opacity:1">
          <use
             id="use3579"
             y="136.259"
             x="228.379"
             xlink:href="#textext-a02707ce-3"
             width="1259"
             height="2519" />
        </g>
        <g
           id="g3581"
           style="fill:#000000;fill-opacity:1">
          <use
             id="use3583"
             y="136.259"
             x="232.35001"
             xlink:href="#textext-a02707ce-5"
             width="1259"
             height="2519" />
        </g>
      </g>
    </g>
    <g
       transform="matrix(10.91998,-10.91998,10.91998,10.91998,-2829.6583,1526.0964)"
       id="textext-a5df0899-6">
      <g
         id="g3836"
         style="fill:#000000;fill-opacity:1">
        <use
           id="use3838"
           y="134.765"
           x="223.43201"
           xlink:href="#textext-a5df0899-1"
           width="1259"
           height="2519" />
      </g>
      <g
         id="g3840"
         style="fill:#000000;fill-opacity:1">
        <use
           id="use3842"
           y="136.259"
           x="232.179"
           xlink:href="#textext-a5df0899-3"
           width="1259"
           height="2519" />
      </g>
      <g
         id="g3844"
         style="fill:#000000;fill-opacity:1">
        <use
           id="use3846"
           y="136.259"
           x="236.50101"
           xlink:href="#textext-a5df0899-5"
           width="1259"
           height="2519" />
      </g>
    </g>
    <g
       id="g4136"
       ns0:preamble=""
       ns0:text="$u_1$"
       transform="matrix(20,0,0,20,-2865.6623,-2302.0137)">
      <defs
         id="defs4138">
        <g
           id="g4140">
          <symbol
             style="overflow:visible"
             id="textext-dce0e6f8-0"
             overflow="visible">
            <path
               inkscape:connector-curvature="0"
               id="path4143"
               d=""
               style="stroke:none" />
          </symbol>
          <symbol
             style="overflow:visible"
             id="textext-dce0e6f8-1"
             overflow="visible">
            <path
               inkscape:connector-curvature="0"
               id="path4146"
               d="M 3.484375,-0.5625 C 3.59375,-0.15625 3.953125,0.109375 4.375,0.109375 4.71875,0.109375 4.953125,-0.125 5.109375,-0.4375 5.28125,-0.796875 5.40625,-1.40625 5.40625,-1.421875 c 0,-0.109375 -0.078125,-0.109375 -0.109375,-0.109375 -0.109375,0 -0.109375,0.046875 -0.140625,0.1875 -0.140625,0.5625 -0.328125,1.234375 -0.75,1.234375 -0.203125,0 -0.3125,-0.125 -0.3125,-0.453125 0,-0.21875 0.125,-0.6875 0.203125,-1.046875 L 4.578125,-2.6875 C 4.609375,-2.828125 4.703125,-3.203125 4.75,-3.359375 4.796875,-3.59375 4.890625,-3.96875 4.890625,-4.03125 c 0,-0.171875 -0.140625,-0.265625 -0.28125,-0.265625 -0.046875,0 -0.3125,0.015625 -0.390625,0.34375 -0.1875,0.734375 -0.625,2.484375 -0.75,3 -0.015625,0.046875 -0.40625,0.84375 -1.140625,0.84375 -0.515625,0 -0.609375,-0.453125 -0.609375,-0.8125 0,-0.5625 0.28125,-1.34375 0.53125,-2.03125 0.125,-0.3125 0.171875,-0.453125 0.171875,-0.640625 0,-0.4375 -0.3125,-0.8125 -0.8125,-0.8125 -0.953125,0 -1.3125,1.453125 -1.3125,1.53125 0,0.109375 0.09375,0.109375 0.109375,0.109375 0.109375,0 0.109375,-0.03125 0.15625,-0.1875 0.25,-0.859375 0.640625,-1.234375 1.015625,-1.234375 0.09375,0 0.25,0.015625 0.25,0.328125 0,0.234375 -0.109375,0.53125 -0.171875,0.671875 -0.375,1 -0.578125,1.609375 -0.578125,2.09375 0,0.953125 0.6875,1.203125 1.21875,1.203125 0.65625,0 1.015625,-0.453125 1.1875,-0.671875 z"
               style="stroke:none" />
          </symbol>
          <symbol
             style="overflow:visible"
             id="textext-dce0e6f8-2"
             overflow="visible">
            <path
               inkscape:connector-curvature="0"
               id="path4149"
               d=""
               style="stroke:none" />
          </symbol>
          <symbol
             style="overflow:visible"
             id="textext-dce0e6f8-3"
             overflow="visible">
            <path
               inkscape:connector-curvature="0"
               id="path4152"
               d="m 2.328125,-4.4375 c 0,-0.1875 0,-0.1875 -0.203125,-0.1875 -0.453125,0.4375 -1.078125,0.4375 -1.359375,0.4375 l 0,0.25 c 0.15625,0 0.625,0 1,-0.1875 l 0,3.546875 c 0,0.234375 0,0.328125 -0.6875,0.328125 l -0.265625,0 0,0.25 c 0.125,0 0.984375,-0.03125 1.234375,-0.03125 0.21875,0 1.09375,0.03125 1.25,0.03125 l 0,-0.25 -0.265625,0 c -0.703125,0 -0.703125,-0.09375 -0.703125,-0.328125 z"
               style="stroke:none" />
          </symbol>
        </g>
      </defs>
      <g
         id="textext-dce0e6f8-4">
        <g
           id="g4155"
           style="fill:#000000;fill-opacity:1">
          <use
             height="2519"
             width="1259"
             id="use4157"
             y="134.765"
             x="223.43201"
             xlink:href="#textext-dce0e6f8-1" />
        </g>
        <g
           id="g4159"
           style="fill:#000000;fill-opacity:1">
          <use
             height="2519"
             width="1259"
             id="use4161"
             y="136.259"
             x="229.13499"
             xlink:href="#textext-dce0e6f8-3" />
        </g>
      </g>
    </g>
    <g
       transform="matrix(20,0,0,20,-2868.8612,-2019.5511)"
       ns0:text="$u_2$"
       ns0:preamble=""
       id="g4461">
      <defs
         id="defs4463">
        <g
           id="g4465">
          <symbol
             style="overflow:visible"
             overflow="visible"
             id="textext-cbf05acb-0">
            <path
               inkscape:connector-curvature="0"
               style="stroke:none"
               d=""
               id="path4468" />
          </symbol>
          <symbol
             style="overflow:visible"
             overflow="visible"
             id="textext-cbf05acb-1">
            <path
               inkscape:connector-curvature="0"
               style="stroke:none"
               d="M 3.484375,-0.5625 C 3.59375,-0.15625 3.953125,0.109375 4.375,0.109375 4.71875,0.109375 4.953125,-0.125 5.109375,-0.4375 5.28125,-0.796875 5.40625,-1.40625 5.40625,-1.421875 c 0,-0.109375 -0.078125,-0.109375 -0.109375,-0.109375 -0.109375,0 -0.109375,0.046875 -0.140625,0.1875 -0.140625,0.5625 -0.328125,1.234375 -0.75,1.234375 -0.203125,0 -0.3125,-0.125 -0.3125,-0.453125 0,-0.21875 0.125,-0.6875 0.203125,-1.046875 L 4.578125,-2.6875 C 4.609375,-2.828125 4.703125,-3.203125 4.75,-3.359375 4.796875,-3.59375 4.890625,-3.96875 4.890625,-4.03125 c 0,-0.171875 -0.140625,-0.265625 -0.28125,-0.265625 -0.046875,0 -0.3125,0.015625 -0.390625,0.34375 -0.1875,0.734375 -0.625,2.484375 -0.75,3 -0.015625,0.046875 -0.40625,0.84375 -1.140625,0.84375 -0.515625,0 -0.609375,-0.453125 -0.609375,-0.8125 0,-0.5625 0.28125,-1.34375 0.53125,-2.03125 0.125,-0.3125 0.171875,-0.453125 0.171875,-0.640625 0,-0.4375 -0.3125,-0.8125 -0.8125,-0.8125 -0.953125,0 -1.3125,1.453125 -1.3125,1.53125 0,0.109375 0.09375,0.109375 0.109375,0.109375 0.109375,0 0.109375,-0.03125 0.15625,-0.1875 0.25,-0.859375 0.640625,-1.234375 1.015625,-1.234375 0.09375,0 0.25,0.015625 0.25,0.328125 0,0.234375 -0.109375,0.53125 -0.171875,0.671875 -0.375,1 -0.578125,1.609375 -0.578125,2.09375 0,0.953125 0.6875,1.203125 1.21875,1.203125 0.65625,0 1.015625,-0.453125 1.1875,-0.671875 z"
               id="path4471" />
          </symbol>
          <symbol
             style="overflow:visible"
             overflow="visible"
             id="textext-cbf05acb-2">
            <path
               inkscape:connector-curvature="0"
               style="stroke:none"
               d=""
               id="path4474" />
          </symbol>
          <symbol
             style="overflow:visible"
             overflow="visible"
             id="textext-cbf05acb-3">
            <path
               inkscape:connector-curvature="0"
               style="stroke:none"
               d="m 3.515625,-1.265625 -0.234375,0 c -0.015625,0.15625 -0.09375,0.5625 -0.1875,0.625 -0.046875,0.046875 -0.578125,0.046875 -0.6875,0.046875 l -1.28125,0 c 0.734375,-0.640625 0.984375,-0.84375 1.390625,-1.171875 0.515625,-0.40625 1,-0.84375 1,-1.5 0,-0.84375 -0.734375,-1.359375 -1.625,-1.359375 -0.859375,0 -1.453125,0.609375 -1.453125,1.25 0,0.34375 0.296875,0.390625 0.375,0.390625 0.15625,0 0.359375,-0.125 0.359375,-0.375 0,-0.125 -0.046875,-0.375 -0.40625,-0.375 C 0.984375,-4.21875 1.453125,-4.375 1.78125,-4.375 c 0.703125,0 1.0625,0.546875 1.0625,1.109375 0,0.609375 -0.4375,1.078125 -0.65625,1.328125 L 0.515625,-0.265625 C 0.4375,-0.203125 0.4375,-0.1875 0.4375,0 l 2.875,0 z"
               id="path4477" />
          </symbol>
        </g>
      </defs>
      <g
         id="textext-cbf05acb-4">
        <g
           style="fill:#000000;fill-opacity:1"
           id="g4480">
          <use
             height="2519"
             width="1259"
             xlink:href="#textext-cbf05acb-1"
             x="223.43201"
             y="134.765"
             id="use4482" />
        </g>
        <g
           style="fill:#000000;fill-opacity:1"
           id="g4484">
          <use
             height="2519"
             width="1259"
             xlink:href="#textext-cbf05acb-3"
             x="229.13499"
             y="136.259"
             id="use4486" />
        </g>
      </g>
    </g>
    <g
       id="g4818"
       ns0:preamble=""
       ns0:text="$u_3$"
       transform="matrix(20,0,0,20,-2861.983,-1733.4915)">
      <defs
         id="defs4820">
        <g
           id="g4822">
          <symbol
             style="overflow:visible"
             id="textext-d8b93212-0"
             overflow="visible">
            <path
               inkscape:connector-curvature="0"
               id="path4825"
               d=""
               style="stroke:none" />
          </symbol>
          <symbol
             style="overflow:visible"
             id="textext-d8b93212-1"
             overflow="visible">
            <path
               inkscape:connector-curvature="0"
               id="path4828"
               d="M 3.484375,-0.5625 C 3.59375,-0.15625 3.953125,0.109375 4.375,0.109375 4.71875,0.109375 4.953125,-0.125 5.109375,-0.4375 5.28125,-0.796875 5.40625,-1.40625 5.40625,-1.421875 c 0,-0.109375 -0.078125,-0.109375 -0.109375,-0.109375 -0.109375,0 -0.109375,0.046875 -0.140625,0.1875 -0.140625,0.5625 -0.328125,1.234375 -0.75,1.234375 -0.203125,0 -0.3125,-0.125 -0.3125,-0.453125 0,-0.21875 0.125,-0.6875 0.203125,-1.046875 L 4.578125,-2.6875 C 4.609375,-2.828125 4.703125,-3.203125 4.75,-3.359375 4.796875,-3.59375 4.890625,-3.96875 4.890625,-4.03125 c 0,-0.171875 -0.140625,-0.265625 -0.28125,-0.265625 -0.046875,0 -0.3125,0.015625 -0.390625,0.34375 -0.1875,0.734375 -0.625,2.484375 -0.75,3 -0.015625,0.046875 -0.40625,0.84375 -1.140625,0.84375 -0.515625,0 -0.609375,-0.453125 -0.609375,-0.8125 0,-0.5625 0.28125,-1.34375 0.53125,-2.03125 0.125,-0.3125 0.171875,-0.453125 0.171875,-0.640625 0,-0.4375 -0.3125,-0.8125 -0.8125,-0.8125 -0.953125,0 -1.3125,1.453125 -1.3125,1.53125 0,0.109375 0.09375,0.109375 0.109375,0.109375 0.109375,0 0.109375,-0.03125 0.15625,-0.1875 0.25,-0.859375 0.640625,-1.234375 1.015625,-1.234375 0.09375,0 0.25,0.015625 0.25,0.328125 0,0.234375 -0.109375,0.53125 -0.171875,0.671875 -0.375,1 -0.578125,1.609375 -0.578125,2.09375 0,0.953125 0.6875,1.203125 1.21875,1.203125 0.65625,0 1.015625,-0.453125 1.1875,-0.671875 z"
               style="stroke:none" />
          </symbol>
          <symbol
             style="overflow:visible"
             id="textext-d8b93212-2"
             overflow="visible">
            <path
               inkscape:connector-curvature="0"
               id="path4831"
               d=""
               style="stroke:none" />
          </symbol>
          <symbol
             style="overflow:visible"
             id="textext-d8b93212-3"
             overflow="visible">
            <path
               inkscape:connector-curvature="0"
               id="path4834"
               d="m 1.90625,-2.328125 c 0.546875,0 0.9375,0.375 0.9375,1.125 0,0.859375 -0.515625,1.125 -0.90625,1.125 -0.28125,0 -0.90625,-0.078125 -1.1875,-0.5 0.328125,0 0.40625,-0.234375 0.40625,-0.390625 0,-0.21875 -0.171875,-0.375 -0.390625,-0.375 -0.1875,0 -0.390625,0.125 -0.390625,0.40625 0,0.65625 0.71875,1.078125 1.5625,1.078125 0.96875,0 1.640625,-0.65625 1.640625,-1.34375 0,-0.546875 -0.4375,-1.09375 -1.203125,-1.25 0.71875,-0.265625 0.984375,-0.78125 0.984375,-1.21875 0,-0.546875 -0.625,-0.953125 -1.40625,-0.953125 -0.765625,0 -1.359375,0.375 -1.359375,0.9375 0,0.234375 0.15625,0.359375 0.359375,0.359375 0.21875,0 0.359375,-0.15625 0.359375,-0.34375 0,-0.203125 -0.140625,-0.359375 -0.359375,-0.375 0.25,-0.296875 0.71875,-0.375 0.984375,-0.375 0.3125,0 0.75,0.15625 0.75,0.75 0,0.296875 -0.09375,0.625 -0.28125,0.828125 -0.21875,0.265625 -0.421875,0.28125 -0.765625,0.3125 -0.171875,0.015625 -0.1875,0.015625 -0.21875,0.015625 -0.015625,0 -0.078125,0.015625 -0.078125,0.09375 0,0.09375 0.0625,0.09375 0.1875,0.09375 z"
               style="stroke:none" />
          </symbol>
        </g>
      </defs>
      <g
         id="textext-d8b93212-4">
        <g
           id="g4837"
           style="fill:#000000;fill-opacity:1">
          <use
             height="2519"
             width="1259"
             id="use4839"
             y="134.765"
             x="223.43201"
             xlink:href="#textext-d8b93212-1" />
        </g>
        <g
           id="g4841"
           style="fill:#000000;fill-opacity:1">
          <use
             height="2519"
             width="1259"
             id="use4843"
             y="136.259"
             x="229.13499"
             xlink:href="#textext-d8b93212-3" />
        </g>
      </g>
    </g>
    <g
       transform="matrix(20,0,0,20,-2863.8226,-1439.4279)"
       ns0:text="$u_4$"
       ns0:preamble=""
       id="g5207">
      <defs
         id="defs5209">
        <g
           id="g5211">
          <symbol
             style="overflow:visible"
             overflow="visible"
             id="textext-00d7b45e-0">
            <path
               inkscape:connector-curvature="0"
               style="stroke:none"
               d=""
               id="path5214" />
          </symbol>
          <symbol
             style="overflow:visible"
             overflow="visible"
             id="textext-00d7b45e-1">
            <path
               inkscape:connector-curvature="0"
               style="stroke:none"
               d="M 3.484375,-0.5625 C 3.59375,-0.15625 3.953125,0.109375 4.375,0.109375 4.71875,0.109375 4.953125,-0.125 5.109375,-0.4375 5.28125,-0.796875 5.40625,-1.40625 5.40625,-1.421875 c 0,-0.109375 -0.078125,-0.109375 -0.109375,-0.109375 -0.109375,0 -0.109375,0.046875 -0.140625,0.1875 -0.140625,0.5625 -0.328125,1.234375 -0.75,1.234375 -0.203125,0 -0.3125,-0.125 -0.3125,-0.453125 0,-0.21875 0.125,-0.6875 0.203125,-1.046875 L 4.578125,-2.6875 C 4.609375,-2.828125 4.703125,-3.203125 4.75,-3.359375 4.796875,-3.59375 4.890625,-3.96875 4.890625,-4.03125 c 0,-0.171875 -0.140625,-0.265625 -0.28125,-0.265625 -0.046875,0 -0.3125,0.015625 -0.390625,0.34375 -0.1875,0.734375 -0.625,2.484375 -0.75,3 -0.015625,0.046875 -0.40625,0.84375 -1.140625,0.84375 -0.515625,0 -0.609375,-0.453125 -0.609375,-0.8125 0,-0.5625 0.28125,-1.34375 0.53125,-2.03125 0.125,-0.3125 0.171875,-0.453125 0.171875,-0.640625 0,-0.4375 -0.3125,-0.8125 -0.8125,-0.8125 -0.953125,0 -1.3125,1.453125 -1.3125,1.53125 0,0.109375 0.09375,0.109375 0.109375,0.109375 0.109375,0 0.109375,-0.03125 0.15625,-0.1875 0.25,-0.859375 0.640625,-1.234375 1.015625,-1.234375 0.09375,0 0.25,0.015625 0.25,0.328125 0,0.234375 -0.109375,0.53125 -0.171875,0.671875 -0.375,1 -0.578125,1.609375 -0.578125,2.09375 0,0.953125 0.6875,1.203125 1.21875,1.203125 0.65625,0 1.015625,-0.453125 1.1875,-0.671875 z"
               id="path5217" />
          </symbol>
          <symbol
             style="overflow:visible"
             overflow="visible"
             id="textext-00d7b45e-2">
            <path
               inkscape:connector-curvature="0"
               style="stroke:none"
               d=""
               id="path5220" />
          </symbol>
          <symbol
             style="overflow:visible"
             overflow="visible"
             id="textext-00d7b45e-3">
            <path
               inkscape:connector-curvature="0"
               style="stroke:none"
               d="m 3.6875,-1.140625 0,-0.25 -0.78125,0 0,-3.109375 c 0,-0.140625 0,-0.203125 -0.140625,-0.203125 -0.09375,0 -0.125,0 -0.1875,0.109375 l -2.3125,3.203125 0,0.25 2.0625,0 0,0.5625 c 0,0.25 0,0.328125 -0.578125,0.328125 l -0.1875,0 0,0.25 C 1.921875,-0.015625 2.359375,-0.03125 2.609375,-0.03125 2.875,-0.03125 3.3125,-0.015625 3.671875,0 l 0,-0.25 -0.1875,0 C 2.90625,-0.25 2.90625,-0.328125 2.90625,-0.578125 l 0,-0.5625 z M 2.375,-3.9375 l 0,2.546875 -1.84375,0 z"
               id="path5223" />
          </symbol>
        </g>
      </defs>
      <g
         id="textext-00d7b45e-4">
        <g
           style="fill:#000000;fill-opacity:1"
           id="g5226">
          <use
             height="2519"
             width="1259"
             xlink:href="#textext-00d7b45e-1"
             x="223.43201"
             y="134.765"
             id="use5228" />
        </g>
        <g
           style="fill:#000000;fill-opacity:1"
           id="g5230">
          <use
             height="2519"
             width="1259"
             xlink:href="#textext-00d7b45e-3"
             x="229.13499"
             y="136.259"
             id="use5232" />
        </g>
      </g>
    </g>
    <g
       id="g5628"
       ns0:preamble=""
       ns0:text="$u_5$"
       transform="matrix(20,0,0,20,-2869.5066,-1156.5671)">
      <defs
         id="defs5630">
        <g
           id="g5632">
          <symbol
             style="overflow:visible"
             id="textext-ec93c705-0"
             overflow="visible">
            <path
               inkscape:connector-curvature="0"
               id="path5635"
               d=""
               style="stroke:none" />
          </symbol>
          <symbol
             style="overflow:visible"
             id="textext-ec93c705-1"
             overflow="visible">
            <path
               inkscape:connector-curvature="0"
               id="path5638"
               d="M 3.484375,-0.5625 C 3.59375,-0.15625 3.953125,0.109375 4.375,0.109375 4.71875,0.109375 4.953125,-0.125 5.109375,-0.4375 5.28125,-0.796875 5.40625,-1.40625 5.40625,-1.421875 c 0,-0.109375 -0.078125,-0.109375 -0.109375,-0.109375 -0.109375,0 -0.109375,0.046875 -0.140625,0.1875 -0.140625,0.5625 -0.328125,1.234375 -0.75,1.234375 -0.203125,0 -0.3125,-0.125 -0.3125,-0.453125 0,-0.21875 0.125,-0.6875 0.203125,-1.046875 L 4.578125,-2.6875 C 4.609375,-2.828125 4.703125,-3.203125 4.75,-3.359375 4.796875,-3.59375 4.890625,-3.96875 4.890625,-4.03125 c 0,-0.171875 -0.140625,-0.265625 -0.28125,-0.265625 -0.046875,0 -0.3125,0.015625 -0.390625,0.34375 -0.1875,0.734375 -0.625,2.484375 -0.75,3 -0.015625,0.046875 -0.40625,0.84375 -1.140625,0.84375 -0.515625,0 -0.609375,-0.453125 -0.609375,-0.8125 0,-0.5625 0.28125,-1.34375 0.53125,-2.03125 0.125,-0.3125 0.171875,-0.453125 0.171875,-0.640625 0,-0.4375 -0.3125,-0.8125 -0.8125,-0.8125 -0.953125,0 -1.3125,1.453125 -1.3125,1.53125 0,0.109375 0.09375,0.109375 0.109375,0.109375 0.109375,0 0.109375,-0.03125 0.15625,-0.1875 0.25,-0.859375 0.640625,-1.234375 1.015625,-1.234375 0.09375,0 0.25,0.015625 0.25,0.328125 0,0.234375 -0.109375,0.53125 -0.171875,0.671875 -0.375,1 -0.578125,1.609375 -0.578125,2.09375 0,0.953125 0.6875,1.203125 1.21875,1.203125 0.65625,0 1.015625,-0.453125 1.1875,-0.671875 z"
               style="stroke:none" />
          </symbol>
          <symbol
             style="overflow:visible"
             id="textext-ec93c705-2"
             overflow="visible">
            <path
               inkscape:connector-curvature="0"
               id="path5641"
               d=""
               style="stroke:none" />
          </symbol>
          <symbol
             style="overflow:visible"
             id="textext-ec93c705-3"
             overflow="visible">
            <path
               inkscape:connector-curvature="0"
               id="path5644"
               d="m 1.078125,-3.890625 c 0.359375,0.09375 0.5625,0.09375 0.671875,0.09375 0.921875,0 1.46875,-0.625 1.46875,-0.734375 0,-0.078125 -0.046875,-0.09375 -0.078125,-0.09375 -0.015625,0 -0.03125,0 -0.0625,0.015625 -0.171875,0.0625 -0.53125,0.203125 -1.046875,0.203125 -0.203125,0 -0.5625,-0.015625 -1.015625,-0.1875 C 0.9375,-4.625 0.921875,-4.625 0.921875,-4.625 c -0.09375,0 -0.09375,0.078125 -0.09375,0.1875 l 0,2.046875 c 0,0.125 0,0.203125 0.109375,0.203125 0.0625,0 0.078125,0 0.140625,-0.09375 0.296875,-0.375 0.734375,-0.4375 0.96875,-0.4375 0.421875,0 0.609375,0.328125 0.640625,0.390625 0.125,0.234375 0.171875,0.5 0.171875,0.90625 0,0.203125 0,0.609375 -0.21875,0.921875 -0.171875,0.25 -0.46875,0.421875 -0.8125,0.421875 -0.453125,0 -0.921875,-0.25 -1.09375,-0.71875 0.265625,0.015625 0.40625,-0.15625 0.40625,-0.34375 0,-0.296875 -0.265625,-0.34375 -0.359375,-0.34375 0,0 -0.34375,0 -0.34375,0.375 0,0.625 0.578125,1.25 1.40625,1.25 0.890625,0 1.671875,-0.65625 1.671875,-1.546875 0,-0.78125 -0.59375,-1.5 -1.453125,-1.5 -0.3125,0 -0.671875,0.0625 -0.984375,0.328125 z"
               style="stroke:none" />
          </symbol>
        </g>
      </defs>
      <g
         id="textext-ec93c705-4">
        <g
           id="g5647"
           style="fill:#000000;fill-opacity:1">
          <use
             height="2519"
             width="1259"
             id="use5649"
             y="134.765"
             x="223.43201"
             xlink:href="#textext-ec93c705-1" />
        </g>
        <g
           id="g5651"
           style="fill:#000000;fill-opacity:1">
          <use
             height="2519"
             width="1259"
             id="use5653"
             y="136.259"
             x="229.13499"
             xlink:href="#textext-ec93c705-3" />
        </g>
      </g>
    </g>
    <g
       transform="matrix(20,0,0,20,-2868.463,-863.06642)"
       ns0:text="$u_6$"
       ns0:preamble=""
       id="g6081">
      <defs
         id="defs6083">
        <g
           id="g6085">
          <symbol
             style="overflow:visible"
             overflow="visible"
             id="textext-cbc9897f-0">
            <path
               inkscape:connector-curvature="0"
               style="stroke:none"
               d=""
               id="path6088" />
          </symbol>
          <symbol
             style="overflow:visible"
             overflow="visible"
             id="textext-cbc9897f-1">
            <path
               inkscape:connector-curvature="0"
               style="stroke:none"
               d="M 3.484375,-0.5625 C 3.59375,-0.15625 3.953125,0.109375 4.375,0.109375 4.71875,0.109375 4.953125,-0.125 5.109375,-0.4375 5.28125,-0.796875 5.40625,-1.40625 5.40625,-1.421875 c 0,-0.109375 -0.078125,-0.109375 -0.109375,-0.109375 -0.109375,0 -0.109375,0.046875 -0.140625,0.1875 -0.140625,0.5625 -0.328125,1.234375 -0.75,1.234375 -0.203125,0 -0.3125,-0.125 -0.3125,-0.453125 0,-0.21875 0.125,-0.6875 0.203125,-1.046875 L 4.578125,-2.6875 C 4.609375,-2.828125 4.703125,-3.203125 4.75,-3.359375 4.796875,-3.59375 4.890625,-3.96875 4.890625,-4.03125 c 0,-0.171875 -0.140625,-0.265625 -0.28125,-0.265625 -0.046875,0 -0.3125,0.015625 -0.390625,0.34375 -0.1875,0.734375 -0.625,2.484375 -0.75,3 -0.015625,0.046875 -0.40625,0.84375 -1.140625,0.84375 -0.515625,0 -0.609375,-0.453125 -0.609375,-0.8125 0,-0.5625 0.28125,-1.34375 0.53125,-2.03125 0.125,-0.3125 0.171875,-0.453125 0.171875,-0.640625 0,-0.4375 -0.3125,-0.8125 -0.8125,-0.8125 -0.953125,0 -1.3125,1.453125 -1.3125,1.53125 0,0.109375 0.09375,0.109375 0.109375,0.109375 0.109375,0 0.109375,-0.03125 0.15625,-0.1875 0.25,-0.859375 0.640625,-1.234375 1.015625,-1.234375 0.09375,0 0.25,0.015625 0.25,0.328125 0,0.234375 -0.109375,0.53125 -0.171875,0.671875 -0.375,1 -0.578125,1.609375 -0.578125,2.09375 0,0.953125 0.6875,1.203125 1.21875,1.203125 0.65625,0 1.015625,-0.453125 1.1875,-0.671875 z"
               id="path6091" />
          </symbol>
          <symbol
             style="overflow:visible"
             overflow="visible"
             id="textext-cbc9897f-2">
            <path
               inkscape:connector-curvature="0"
               style="stroke:none"
               d=""
               id="path6094" />
          </symbol>
          <symbol
             style="overflow:visible"
             overflow="visible"
             id="textext-cbc9897f-3">
            <path
               inkscape:connector-curvature="0"
               style="stroke:none"
               d="m 1.046875,-2.28125 c 0,-0.5625 0.046875,-1.078125 0.3125,-1.515625 0.234375,-0.375 0.609375,-0.625 1.0625,-0.625 0.203125,0 0.484375,0.046875 0.625,0.234375 C 2.875,-4.171875 2.71875,-4.046875 2.71875,-3.84375 c 0,0.171875 0.125,0.328125 0.328125,0.328125 0.21875,0 0.34375,-0.140625 0.34375,-0.34375 0,-0.40625 -0.296875,-0.765625 -0.984375,-0.765625 -1,0 -2.03125,0.921875 -2.03125,2.421875 0,1.796875 0.84375,2.34375 1.625,2.34375 0.84375,0 1.578125,-0.65625 1.578125,-1.5625 0,-0.890625 -0.703125,-1.546875 -1.515625,-1.546875 -0.5625,0 -0.859375,0.375 -1.015625,0.6875 z M 2,-0.078125 c -0.359375,0 -0.625,-0.203125 -0.78125,-0.515625 C 1.125,-0.796875 1.0625,-1.15625 1.0625,-1.5625 c 0,-0.6875 0.40625,-1.203125 0.96875,-1.203125 0.3125,0 0.53125,0.125 0.703125,0.375 0.171875,0.265625 0.171875,0.5625 0.171875,0.96875 0,0.390625 0,0.6875 -0.1875,0.96875 -0.15625,0.234375 -0.390625,0.375 -0.71875,0.375 z"
               id="path6097" />
          </symbol>
        </g>
      </defs>
      <g
         id="textext-cbc9897f-4">
        <g
           style="fill:#000000;fill-opacity:1"
           id="g6100">
          <use
             height="2519"
             width="1259"
             xlink:href="#textext-cbc9897f-1"
             x="223.43201"
             y="134.765"
             id="use6102" />
        </g>
        <g
           style="fill:#000000;fill-opacity:1"
           id="g6104">
          <use
             height="2519"
             width="1259"
             xlink:href="#textext-cbc9897f-3"
             x="229.13499"
             y="136.259"
             id="use6106" />
        </g>
      </g>
    </g>
    <g
       id="g6566"
       ns0:preamble=""
       ns0:text="$u_7$"
       transform="matrix(20,0,0,20,-2871.3463,-574.12368)">
      <defs
         id="defs6568">
        <g
           id="g6570">
          <symbol
             style="overflow:visible"
             id="textext-402673ad-0"
             overflow="visible">
            <path
               inkscape:connector-curvature="0"
               id="path6573"
               d=""
               style="stroke:none" />
          </symbol>
          <symbol
             style="overflow:visible"
             id="textext-402673ad-1"
             overflow="visible">
            <path
               inkscape:connector-curvature="0"
               id="path6576"
               d="M 3.484375,-0.5625 C 3.59375,-0.15625 3.953125,0.109375 4.375,0.109375 4.71875,0.109375 4.953125,-0.125 5.109375,-0.4375 5.28125,-0.796875 5.40625,-1.40625 5.40625,-1.421875 c 0,-0.109375 -0.078125,-0.109375 -0.109375,-0.109375 -0.109375,0 -0.109375,0.046875 -0.140625,0.1875 -0.140625,0.5625 -0.328125,1.234375 -0.75,1.234375 -0.203125,0 -0.3125,-0.125 -0.3125,-0.453125 0,-0.21875 0.125,-0.6875 0.203125,-1.046875 L 4.578125,-2.6875 C 4.609375,-2.828125 4.703125,-3.203125 4.75,-3.359375 4.796875,-3.59375 4.890625,-3.96875 4.890625,-4.03125 c 0,-0.171875 -0.140625,-0.265625 -0.28125,-0.265625 -0.046875,0 -0.3125,0.015625 -0.390625,0.34375 -0.1875,0.734375 -0.625,2.484375 -0.75,3 -0.015625,0.046875 -0.40625,0.84375 -1.140625,0.84375 -0.515625,0 -0.609375,-0.453125 -0.609375,-0.8125 0,-0.5625 0.28125,-1.34375 0.53125,-2.03125 0.125,-0.3125 0.171875,-0.453125 0.171875,-0.640625 0,-0.4375 -0.3125,-0.8125 -0.8125,-0.8125 -0.953125,0 -1.3125,1.453125 -1.3125,1.53125 0,0.109375 0.09375,0.109375 0.109375,0.109375 0.109375,0 0.109375,-0.03125 0.15625,-0.1875 0.25,-0.859375 0.640625,-1.234375 1.015625,-1.234375 0.09375,0 0.25,0.015625 0.25,0.328125 0,0.234375 -0.109375,0.53125 -0.171875,0.671875 -0.375,1 -0.578125,1.609375 -0.578125,2.09375 0,0.953125 0.6875,1.203125 1.21875,1.203125 0.65625,0 1.015625,-0.453125 1.1875,-0.671875 z"
               style="stroke:none" />
          </symbol>
          <symbol
             style="overflow:visible"
             id="textext-402673ad-2"
             overflow="visible">
            <path
               inkscape:connector-curvature="0"
               id="path6579"
               d=""
               style="stroke:none" />
          </symbol>
          <symbol
             style="overflow:visible"
             id="textext-402673ad-3"
             overflow="visible">
            <path
               inkscape:connector-curvature="0"
               id="path6582"
               d="m 3.734375,-4.203125 c 0.0625,-0.09375 0.0625,-0.109375 0.0625,-0.28125 l -1.828125,0 C 1.6875,-4.484375 1.609375,-4.5 1.359375,-4.515625 1,-4.546875 0.984375,-4.59375 0.96875,-4.703125 l -0.234375,0 -0.25,1.484375 0.234375,0 c 0.015625,-0.109375 0.09375,-0.5625 0.203125,-0.640625 0.046875,-0.03125 0.625,-0.03125 0.71875,-0.03125 l 1.515625,0 c -0.21875,0.28125 -0.578125,0.71875 -0.71875,0.921875 -0.90625,1.1875 -1,2.296875 -1,2.703125 0,0.078125 0,0.40625 0.328125,0.40625 0.34375,0 0.34375,-0.3125 0.34375,-0.40625 l 0,-0.28125 c 0,-1.34375 0.28125,-1.96875 0.578125,-2.34375 z"
               style="stroke:none" />
          </symbol>
        </g>
      </defs>
      <g
         id="textext-402673ad-4">
        <g
           id="g6585"
           style="fill:#000000;fill-opacity:1">
          <use
             height="2519"
             width="1259"
             id="use6587"
             y="134.765"
             x="223.43201"
             xlink:href="#textext-402673ad-1" />
        </g>
        <g
           id="g6589"
           style="fill:#000000;fill-opacity:1">
          <use
             height="2519"
             width="1259"
             id="use6591"
             y="136.259"
             x="229.13499"
             xlink:href="#textext-402673ad-3" />
        </g>
      </g>
    </g>
    <g
       transform="matrix(20,0,0,20,-2869.0261,-280.05998)"
       ns0:text="$u_8$"
       ns0:preamble=""
       id="g7083">
      <defs
         id="defs7085">
        <g
           id="g7087">
          <symbol
             style="overflow:visible"
             overflow="visible"
             id="textext-772fecb2-0">
            <path
               inkscape:connector-curvature="0"
               style="stroke:none"
               d=""
               id="path7090" />
          </symbol>
          <symbol
             style="overflow:visible"
             overflow="visible"
             id="textext-772fecb2-1">
            <path
               inkscape:connector-curvature="0"
               style="stroke:none"
               d="M 3.484375,-0.5625 C 3.59375,-0.15625 3.953125,0.109375 4.375,0.109375 4.71875,0.109375 4.953125,-0.125 5.109375,-0.4375 5.28125,-0.796875 5.40625,-1.40625 5.40625,-1.421875 c 0,-0.109375 -0.078125,-0.109375 -0.109375,-0.109375 -0.109375,0 -0.109375,0.046875 -0.140625,0.1875 -0.140625,0.5625 -0.328125,1.234375 -0.75,1.234375 -0.203125,0 -0.3125,-0.125 -0.3125,-0.453125 0,-0.21875 0.125,-0.6875 0.203125,-1.046875 L 4.578125,-2.6875 C 4.609375,-2.828125 4.703125,-3.203125 4.75,-3.359375 4.796875,-3.59375 4.890625,-3.96875 4.890625,-4.03125 c 0,-0.171875 -0.140625,-0.265625 -0.28125,-0.265625 -0.046875,0 -0.3125,0.015625 -0.390625,0.34375 -0.1875,0.734375 -0.625,2.484375 -0.75,3 -0.015625,0.046875 -0.40625,0.84375 -1.140625,0.84375 -0.515625,0 -0.609375,-0.453125 -0.609375,-0.8125 0,-0.5625 0.28125,-1.34375 0.53125,-2.03125 0.125,-0.3125 0.171875,-0.453125 0.171875,-0.640625 0,-0.4375 -0.3125,-0.8125 -0.8125,-0.8125 -0.953125,0 -1.3125,1.453125 -1.3125,1.53125 0,0.109375 0.09375,0.109375 0.109375,0.109375 0.109375,0 0.109375,-0.03125 0.15625,-0.1875 0.25,-0.859375 0.640625,-1.234375 1.015625,-1.234375 0.09375,0 0.25,0.015625 0.25,0.328125 0,0.234375 -0.109375,0.53125 -0.171875,0.671875 -0.375,1 -0.578125,1.609375 -0.578125,2.09375 0,0.953125 0.6875,1.203125 1.21875,1.203125 0.65625,0 1.015625,-0.453125 1.1875,-0.671875 z"
               id="path7093" />
          </symbol>
          <symbol
             style="overflow:visible"
             overflow="visible"
             id="textext-772fecb2-2">
            <path
               inkscape:connector-curvature="0"
               style="stroke:none"
               d=""
               id="path7096" />
          </symbol>
          <symbol
             style="overflow:visible"
             overflow="visible"
             id="textext-772fecb2-3">
            <path
               inkscape:connector-curvature="0"
               style="stroke:none"
               d="m 2.46875,-2.515625 c 0.546875,-0.265625 0.890625,-0.59375 0.890625,-1.078125 0,-0.671875 -0.703125,-1.03125 -1.375,-1.03125 -0.765625,0 -1.390625,0.5 -1.390625,1.15625 0,0.328125 0.15625,0.5625 0.28125,0.703125 0.125,0.15625 0.171875,0.1875 0.578125,0.421875 C 1.0625,-2.171875 0.375,-1.796875 0.375,-1.0625 c 0,0.765625 0.796875,1.203125 1.59375,1.203125 0.890625,0 1.609375,-0.5625 1.609375,-1.3125 0,-0.46875 -0.265625,-0.859375 -0.671875,-1.09375 -0.09375,-0.0625 -0.328125,-0.1875 -0.4375,-0.25 z m -1.125,-0.65625 c -0.1875,-0.109375 -0.375,-0.296875 -0.375,-0.5625 0,-0.4375 0.5,-0.6875 1,-0.6875 0.546875,0 1.03125,0.34375 1.03125,0.828125 0,0.625 -0.734375,0.9375 -0.734375,0.9375 -0.015625,0 -0.03125,0 -0.078125,-0.03125 z m 0.328125,0.96875 0.96875,0.546875 c 0.171875,0.109375 0.515625,0.3125 0.515625,0.71875 0,0.53125 -0.578125,0.859375 -1.171875,0.859375 -0.640625,0 -1.1875,-0.421875 -1.1875,-0.984375 0,-0.515625 0.375,-0.921875 0.875,-1.140625 z"
               id="path7099" />
          </symbol>
        </g>
      </defs>
      <g
         id="textext-772fecb2-4">
        <g
           style="fill:#000000;fill-opacity:1"
           id="g7102">
          <use
             height="2519"
             width="1259"
             xlink:href="#textext-772fecb2-1"
             x="223.43201"
             y="134.765"
             id="use7104" />
        </g>
        <g
           style="fill:#000000;fill-opacity:1"
           id="g7106">
          <use
             height="2519"
             width="1259"
             xlink:href="#textext-772fecb2-3"
             x="229.13499"
             y="136.259"
             id="use7108" />
        </g>
      </g>
    </g>
    <g
       id="g7632"
       ns0:preamble=""
       ns0:text="$u_9$"
       transform="matrix(20,0,0,20,-2871.3463,2.8007413)">
      <defs
         id="defs7634">
        <g
           id="g7636">
          <symbol
             id="textext-de6a7698-0"
             overflow="visible"
             style="overflow:visible">
            <path
               id="path7639"
               d=""
               style="stroke:none"
               inkscape:connector-curvature="0" />
          </symbol>
          <symbol
             id="textext-de6a7698-1"
             overflow="visible"
             style="overflow:visible">
            <path
               id="path7642"
               d="M 3.484375,-0.5625 C 3.59375,-0.15625 3.953125,0.109375 4.375,0.109375 4.71875,0.109375 4.953125,-0.125 5.109375,-0.4375 5.28125,-0.796875 5.40625,-1.40625 5.40625,-1.421875 c 0,-0.109375 -0.078125,-0.109375 -0.109375,-0.109375 -0.109375,0 -0.109375,0.046875 -0.140625,0.1875 -0.140625,0.5625 -0.328125,1.234375 -0.75,1.234375 -0.203125,0 -0.3125,-0.125 -0.3125,-0.453125 0,-0.21875 0.125,-0.6875 0.203125,-1.046875 L 4.578125,-2.6875 C 4.609375,-2.828125 4.703125,-3.203125 4.75,-3.359375 4.796875,-3.59375 4.890625,-3.96875 4.890625,-4.03125 c 0,-0.171875 -0.140625,-0.265625 -0.28125,-0.265625 -0.046875,0 -0.3125,0.015625 -0.390625,0.34375 -0.1875,0.734375 -0.625,2.484375 -0.75,3 -0.015625,0.046875 -0.40625,0.84375 -1.140625,0.84375 -0.515625,0 -0.609375,-0.453125 -0.609375,-0.8125 0,-0.5625 0.28125,-1.34375 0.53125,-2.03125 0.125,-0.3125 0.171875,-0.453125 0.171875,-0.640625 0,-0.4375 -0.3125,-0.8125 -0.8125,-0.8125 -0.953125,0 -1.3125,1.453125 -1.3125,1.53125 0,0.109375 0.09375,0.109375 0.109375,0.109375 0.109375,0 0.109375,-0.03125 0.15625,-0.1875 0.25,-0.859375 0.640625,-1.234375 1.015625,-1.234375 0.09375,0 0.25,0.015625 0.25,0.328125 0,0.234375 -0.109375,0.53125 -0.171875,0.671875 -0.375,1 -0.578125,1.609375 -0.578125,2.09375 0,0.953125 0.6875,1.203125 1.21875,1.203125 0.65625,0 1.015625,-0.453125 1.1875,-0.671875 z"
               style="stroke:none"
               inkscape:connector-curvature="0" />
          </symbol>
          <symbol
             id="textext-de6a7698-2"
             overflow="visible"
             style="overflow:visible">
            <path
               id="path7645"
               d=""
               style="stroke:none"
               inkscape:connector-curvature="0" />
          </symbol>
          <symbol
             id="textext-de6a7698-3"
             overflow="visible"
             style="overflow:visible">
            <path
               id="path7648"
               d="m 2.90625,-2.078125 c 0,1.734375 -0.84375,2 -1.265625,2 -0.15625,0 -0.53125,-0.015625 -0.71875,-0.234375 0.296875,-0.03125 0.3125,-0.265625 0.3125,-0.328125 0,-0.171875 -0.125,-0.328125 -0.328125,-0.328125 -0.203125,0 -0.328125,0.140625 -0.328125,0.34375 0,0.46875 0.390625,0.765625 1.0625,0.765625 1,0 1.9375,-0.9375 1.9375,-2.4375 C 3.578125,-4.015625 2.8125,-4.625 2,-4.625 c -0.234375,0 -0.703125,0.03125 -1.109375,0.421875 -0.234375,0.234375 -0.515625,0.5 -0.515625,1.125 0,0.890625 0.703125,1.546875 1.515625,1.546875 0.5625,0 0.859375,-0.375 1.015625,-0.6875 z m -0.96875,0.34375 c -0.28125,0 -0.53125,-0.078125 -0.734375,-0.40625 -0.15625,-0.25 -0.15625,-0.546875 -0.15625,-0.9375 0,-0.40625 0,-0.671875 0.203125,-0.953125 0.171875,-0.25 0.390625,-0.390625 0.75,-0.390625 0.359375,0 0.578125,0.21875 0.6875,0.40625 0.1875,0.28125 0.203125,0.78125 0.203125,1.015625 0,0.90625 -0.515625,1.265625 -0.953125,1.265625 z"
               style="stroke:none"
               inkscape:connector-curvature="0" />
          </symbol>
        </g>
      </defs>
      <g
         id="textext-de6a7698-4">
        <g
           id="g7651"
           style="fill:#000000;fill-opacity:1">
          <use
             id="use7653"
             y="134.765"
             x="223.43201"
             xlink:href="#textext-de6a7698-1"
             width="1259"
             height="2519" />
        </g>
        <g
           id="g7655"
           style="fill:#000000;fill-opacity:1">
          <use
             id="use7657"
             y="136.259"
             x="229.13499"
             xlink:href="#textext-de6a7698-3"
             width="1259"
             height="2519" />
        </g>
      </g>
    </g>
  </g>
  <g
     id="g3178"
     ns0:preamble=""
     ns0:text="$\\Psi_a$"
     transform="matrix(20,0,0,20,-4109.0956,-1851.1293)">
    <defs
       id="defs3180">
      <g
         id="g3182">
        <symbol
           id="textext-887e6f9f-0"
           overflow="visible"
           style="overflow:visible">
          <path
             id="path3185"
             d=""
             style="stroke:none"
             inkscape:connector-curvature="0" />
        </symbol>
        <symbol
           id="textext-887e6f9f-1"
           overflow="visible"
           style="overflow:visible">
          <path
             id="path3188"
             d="M 4.25,-6.015625 C 4.25,-6.359375 4.25,-6.5 5.203125,-6.5 l 0.328125,0 0,-0.3125 c -0.359375,0.03125 -1.28125,0.03125 -1.6875,0.03125 -0.40625,0 -1.328125,0 -1.6875,-0.03125 l 0,0.3125 0.328125,0 c 0.9375,0 0.9375,0.125 0.9375,0.484375 l 0,4.421875 C 2.125,-1.9375 2.078125,-3.484375 2.078125,-4.125 2.0625,-5.328125 1.625,-5.515625 1.1875,-5.515625 l -0.375,0 c -0.140625,0 -0.25,0 -0.25,0.109375 0,0.046875 0.03125,0.09375 0.09375,0.109375 0.328125,0.03125 0.578125,0.171875 0.59375,1.34375 0,0.234375 0.03125,1.015625 0.5,1.6875 0.390625,0.546875 1,0.828125 1.671875,0.921875 l 0,0.5625 c 0,0.328125 0,0.46875 -0.9375,0.46875 l -0.328125,0 0,0.3125 c 0.359375,-0.03125 1.265625,-0.03125 1.6875,-0.03125 0.40625,0 1.328125,0 1.6875,0.03125 l 0,-0.3125 -0.328125,0 C 4.25,-0.3125 4.25,-0.4375 4.25,-0.78125 l 0,-0.5625 C 4.96875,-1.4375 5.578125,-1.734375 5.96875,-2.25 6.484375,-2.953125 6.5,-3.75 6.5,-4.1875 c 0,-0.15625 0.015625,-1.046875 0.546875,-1.109375 0.0625,-0.015625 0.125,-0.03125 0.125,-0.109375 0,-0.109375 -0.078125,-0.109375 -0.234375,-0.109375 l -0.375,0 c -0.390625,0 -0.875,0.0625 -0.890625,1.515625 C 5.65625,-2.90625 5.328125,-1.859375 4.25,-1.59375 z"
             style="stroke:none"
             inkscape:connector-curvature="0" />
        </symbol>
        <symbol
           id="textext-887e6f9f-2"
           overflow="visible"
           style="overflow:visible">
          <path
             id="path3191"
             d=""
             style="stroke:none"
             inkscape:connector-curvature="0" />
        </symbol>
        <symbol
           id="textext-887e6f9f-3"
           overflow="visible"
           style="overflow:visible">
          <path
             id="path3194"
             d="m 2.9375,-2.65625 c -0.140625,-0.234375 -0.375,-0.421875 -0.71875,-0.421875 -0.890625,0 -1.796875,0.984375 -1.796875,1.984375 0,0.6875 0.453125,1.15625 1.0625,1.15625 0.375,0 0.703125,-0.203125 0.984375,-0.484375 C 2.59375,0 3,0.0625 3.1875,0.0625 c 0.25,0 0.421875,-0.140625 0.546875,-0.359375 0.15625,-0.28125 0.25,-0.671875 0.25,-0.703125 0,-0.09375 -0.09375,-0.09375 -0.109375,-0.09375 -0.109375,0 -0.109375,0.03125 -0.15625,0.21875 C 3.625,-0.53125 3.5,-0.125 3.203125,-0.125 3.03125,-0.125 2.96875,-0.28125 2.96875,-0.46875 c 0,-0.109375 0.0625,-0.375 0.109375,-0.546875 0.046875,-0.1875 0.125,-0.46875 0.15625,-0.625 L 3.375,-2.171875 C 3.421875,-2.359375 3.5,-2.6875 3.5,-2.71875 3.5,-2.875 3.375,-2.9375 3.265625,-2.9375 c -0.125,0 -0.28125,0.078125 -0.328125,0.28125 z M 2.5,-0.875 C 2.453125,-0.671875 2.296875,-0.53125 2.140625,-0.40625 2.078125,-0.34375 1.796875,-0.125 1.5,-0.125 c -0.265625,0 -0.515625,-0.1875 -0.515625,-0.671875 0,-0.375 0.203125,-1.140625 0.375,-1.421875 0.3125,-0.5625 0.671875,-0.65625 0.859375,-0.65625 0.484375,0 0.625,0.53125 0.625,0.609375 0,0.015625 -0.015625,0.078125 -0.015625,0.09375 z"
             style="stroke:none"
             inkscape:connector-curvature="0" />
        </symbol>
      </g>
    </defs>
    <g
       id="textext-887e6f9f-4">
      <g
         id="g3197"
         style="fill:#000000;fill-opacity:1">
        <use
           id="use3199"
           y="134.765"
           x="223.43201"
           xlink:href="#textext-887e6f9f-1"
           width="1259"
           height="2519" />
      </g>
      <g
         id="g3201"
         style="fill:#000000;fill-opacity:1">
        <use
           id="use3203"
           y="136.259"
           x="231.181"
           xlink:href="#textext-887e6f9f-3"
           width="1259"
           height="2519" />
      </g>
    </g>
  </g>
  <g
     transform="matrix(20,0,0,20,-4117.8901,-1102.4527)"
     ns0:text="$\\Psi_b$"
     ns0:preamble=""
     id="g3366">
    <defs
       id="defs3368">
      <g
         id="g3370">
        <symbol
           style="overflow:visible"
           overflow="visible"
           id="textext-6cdf26bf-0">
          <path
             inkscape:connector-curvature="0"
             style="stroke:none"
             d=""
             id="path3373" />
        </symbol>
        <symbol
           style="overflow:visible"
           overflow="visible"
           id="textext-6cdf26bf-1">
          <path
             inkscape:connector-curvature="0"
             style="stroke:none"
             d="M 4.25,-6.015625 C 4.25,-6.359375 4.25,-6.5 5.203125,-6.5 l 0.328125,0 0,-0.3125 c -0.359375,0.03125 -1.28125,0.03125 -1.6875,0.03125 -0.40625,0 -1.328125,0 -1.6875,-0.03125 l 0,0.3125 0.328125,0 c 0.9375,0 0.9375,0.125 0.9375,0.484375 l 0,4.421875 C 2.125,-1.9375 2.078125,-3.484375 2.078125,-4.125 2.0625,-5.328125 1.625,-5.515625 1.1875,-5.515625 l -0.375,0 c -0.140625,0 -0.25,0 -0.25,0.109375 0,0.046875 0.03125,0.09375 0.09375,0.109375 0.328125,0.03125 0.578125,0.171875 0.59375,1.34375 0,0.234375 0.03125,1.015625 0.5,1.6875 0.390625,0.546875 1,0.828125 1.671875,0.921875 l 0,0.5625 c 0,0.328125 0,0.46875 -0.9375,0.46875 l -0.328125,0 0,0.3125 c 0.359375,-0.03125 1.265625,-0.03125 1.6875,-0.03125 0.40625,0 1.328125,0 1.6875,0.03125 l 0,-0.3125 -0.328125,0 C 4.25,-0.3125 4.25,-0.4375 4.25,-0.78125 l 0,-0.5625 C 4.96875,-1.4375 5.578125,-1.734375 5.96875,-2.25 6.484375,-2.953125 6.5,-3.75 6.5,-4.1875 c 0,-0.15625 0.015625,-1.046875 0.546875,-1.109375 0.0625,-0.015625 0.125,-0.03125 0.125,-0.109375 0,-0.109375 -0.078125,-0.109375 -0.234375,-0.109375 l -0.375,0 c -0.390625,0 -0.875,0.0625 -0.890625,1.515625 C 5.65625,-2.90625 5.328125,-1.859375 4.25,-1.59375 z"
             id="path3376" />
        </symbol>
        <symbol
           style="overflow:visible"
           overflow="visible"
           id="textext-6cdf26bf-2">
          <path
             inkscape:connector-curvature="0"
             style="stroke:none"
             d=""
             id="path3379" />
        </symbol>
        <symbol
           style="overflow:visible"
           overflow="visible"
           id="textext-6cdf26bf-3">
          <path
             inkscape:connector-curvature="0"
             style="stroke:none"
             d="m 1.84375,-4.625 c 0,-0.015625 0.03125,-0.109375 0.03125,-0.109375 0,-0.046875 -0.03125,-0.109375 -0.125,-0.109375 -0.140625,0 -0.71875,0.0625 -0.890625,0.078125 -0.046875,0 -0.15625,0.015625 -0.15625,0.15625 0,0.09375 0.109375,0.09375 0.1875,0.09375 0.328125,0 0.328125,0.0625 0.328125,0.109375 0,0.046875 -0.0625,0.328125 -0.109375,0.484375 l -0.15625,0.640625 c -0.0625,0.25 -0.4375,1.765625 -0.453125,1.859375 -0.046875,0.171875 -0.046875,0.265625 -0.046875,0.34375 0,0.703125 0.453125,1.140625 1.03125,1.140625 0.875,0 1.796875,-0.9375 1.796875,-1.96875 0,-0.8125 -0.5625,-1.171875 -1.046875,-1.171875 -0.359375,0 -0.671875,0.203125 -0.875,0.390625 z m -0.359375,4.5 c -0.328125,0 -0.53125,-0.296875 -0.53125,-0.71875 0,-0.25 0.0625,-0.484375 0.265625,-1.28125 C 1.25,-2.25 1.25,-2.265625 1.390625,-2.421875 1.65625,-2.71875 1.96875,-2.875 2.21875,-2.875 c 0.265625,0 0.5,0.203125 0.5,0.671875 0,0.28125 -0.140625,1 -0.359375,1.40625 C 2.1875,-0.453125 1.84375,-0.125 1.484375,-0.125 z"
             id="path3382" />
        </symbol>
      </g>
    </defs>
    <g
       id="textext-6cdf26bf-4">
      <g
         style="fill:#000000;fill-opacity:1"
         id="g3385">
        <use
           height="2519"
           width="1259"
           xlink:href="#textext-6cdf26bf-1"
           x="223.43201"
           y="134.765"
           id="use3387" />
      </g>
      <g
         style="fill:#000000;fill-opacity:1"
         id="g3389">
        <use
           height="2519"
           width="1259"
           xlink:href="#textext-6cdf26bf-3"
           x="231.181"
           y="136.259"
           id="use3391" />
      </g>
    </g>
  </g>
</svg>
