<?xml version="1.0" encoding="UTF-8" standalone="no"?>
<!-- Creator: fig2dev Version 3.2 Patchlevel 5d -->

<!-- CreationDate: Mon Sep 30 20:01:00 2013 -->

<!-- Magnification: 1.050 -->

<svg
   xmlns:ns0="http://www.iki.fi/pav/software/textext/"
   xmlns:dc="http://purl.org/dc/elements/1.1/"
   xmlns:cc="http://creativecommons.org/ns#"
   xmlns:rdf="http://www.w3.org/1999/02/22-rdf-syntax-ns#"
   xmlns:svg="http://www.w3.org/2000/svg"
   xmlns="http://www.w3.org/2000/svg"
   xmlns:xlink="http://www.w3.org/1999/xlink"
   xmlns:sodipodi="http://sodipodi.sourceforge.net/DTD/sodipodi-0.dtd"
   xmlns:inkscape="http://www.inkscape.org/namespaces/inkscape"
   width="167.19266"
   height="130.20403"
   viewBox="409 425 2200.8811 1764.9879"
   id="svg2"
   version="1.1"
   inkscape:version="0.48.4 r9939"
   sodipodi:docname="FEM_PW.svg">
  <sodipodi:namedview
     pagecolor="#ffffff"
     bordercolor="#666666"
     borderopacity="1"
     objecttolerance="10"
     gridtolerance="10"
     guidetolerance="10"
     inkscape:pageopacity="0"
     inkscape:pageshadow="2"
     inkscape:window-width="1366"
     inkscape:window-height="744"
     id="namedview132"
     showgrid="false"
     inkscape:zoom="3.2777778"
     inkscape:cx="139.22776"
     inkscape:cy="60.175749"
     inkscape:window-x="0"
     inkscape:window-y="24"
     inkscape:window-maximized="1"
     inkscape:current-layer="g4"
     fit-margin-top="0"
     fit-margin-left="0"
     fit-margin-right="0"
     fit-margin-bottom="0" />
  <metadata
     id="metadata136">
    <rdf:RDF>
      <cc:Work
         rdf:about="">
        <dc:format>image/svg+xml</dc:format>
        <dc:type
           rdf:resource="http://purl.org/dc/dcmitype/StillImage" />
      </cc:Work>
    </rdf:RDF>
  </metadata>
  <defs
     id="defs134" />
  <g
     style="fill:none;stroke-width:0.025in"
     id="g4"
     transform="translate(-127.87008,-83.591188)">
    <!-- Arc -->
    <path
       style="stroke:#000000;stroke-width:8;stroke-linecap:butt"
       d="m 1653,803 a 1401,1401 0 0 1 0,1228"
       id="path6"
       inkscape:connector-curvature="0" />
    <!-- Line -->
    <polyline
       points="992,1417 708,1417 "
       style="stroke:#000000;stroke-width:8;stroke-linecap:butt;stroke-linejoin:miter"
       id="polyline8" />
    <!-- Line -->
    <polyline
       points="992,755 708,1417 "
       style="stroke:#000000;stroke-width:8;stroke-linecap:butt;stroke-linejoin:miter"
       id="polyline10" />
    <!-- Line -->
    <polyline
       points="967,731 1629,1393 "
       style="stroke:#000000;stroke-width:8;stroke-linecap:butt;stroke-linejoin:miter"
       id="polyline12" />
    <!-- Line -->
    <polyline
       points="708,1417 1653,755 "
       style="stroke:#000000;stroke-width:8;stroke-linecap:butt;stroke-linejoin:miter"
       id="polyline14" />
    <!-- Line: box -->
    <rect
       x="992"
       y="755"
       width="661"
       height="661"
       rx="0"
       style="stroke:#000000;stroke-width:8;stroke-linecap:butt;stroke-linejoin:miter"
       id="rect16" />
    <!-- Line -->
    <polyline
       points="2314,755 1653,1417 "
       style="stroke:#000000;stroke-width:8;stroke-linecap:butt;stroke-linejoin:miter"
       id="polyline18" />
    <!-- Line -->
    <polyline
       points="2267,661 2140,661 "
       style="stroke:#000000;stroke-width:8;stroke-linecap:butt;stroke-linejoin:miter"
       id="polyline20" />
    <!-- Arrowhead on XXXpoint 2267 661 - 2062 661-->
    <polygon
       points="2152,692 2136,661 2152,629 2152,629 2073,661 "
       style="fill:#000000;stroke:#000000;stroke-width:8;stroke-miterlimit:8"
       id="polygon22" />
    <!-- Line -->
    <polyline
       points="1748,661 1874,661 "
       style="stroke:#000000;stroke-width:8;stroke-linecap:butt;stroke-linejoin:miter"
       id="polyline24" />
    <!-- Arrowhead on XXXpoint 1748 661 - 1952 661-->
    <polygon
       points="1863,629 1879,661 1863,692 1863,692 1942,661 "
       style="fill:#000000;stroke:#000000;stroke-width:8;stroke-miterlimit:8"
       id="polygon26" />
    <!-- Line: box -->
    <rect
       x="1653"
       y="755"
       width="661"
       height="661"
       rx="0"
       style="stroke:#000000;stroke-width:8;stroke-linecap:butt;stroke-linejoin:miter"
       id="rect28" />
    <!-- Line -->
    <polyline
       points="2598,1417 1653,755 "
       style="stroke:#000000;stroke-width:8;stroke-linecap:butt;stroke-linejoin:miter"
       id="polyline30" />
    <!-- Line -->
    <polyline
       points="2314,1417 2598,1417 2314,755 "
       style="stroke:#000000;stroke-width:8;stroke-linecap:butt;stroke-linejoin:miter"
       id="polyline32" />
    <!-- Line -->
    <polyline
       points="2598,1417 2314,2078 "
       style="stroke:#000000;stroke-width:8;stroke-linecap:butt;stroke-linejoin:miter"
       id="polyline34" />
    <!-- Line -->
    <polyline
       points="2314,2078 1653,755 "
       style="stroke:#000000;stroke-width:8;stroke-linecap:butt;stroke-linejoin:miter"
       id="polyline36" />
    <!-- Line -->
    <polyline
       points="2314,2078 1653,1417 "
       style="stroke:#000000;stroke-width:8;stroke-linecap:butt;stroke-linejoin:miter"
       id="polyline38" />
    <!-- Line: box -->
    <rect
       x="1653"
       y="1417"
       width="661"
       height="661"
       rx="0"
       style="stroke:#000000;stroke-width:8;stroke-linecap:butt;stroke-linejoin:miter"
       id="rect40" />
    <!-- Line -->
    <polyline
       points="2598,1417 1653,2078 "
       style="stroke:#000000;stroke-width:8;stroke-linecap:butt;stroke-linejoin:miter"
       id="polyline42" />
    <!-- Line -->
    <polyline
       points="2314,755 1653,2078 "
       style="stroke:#000000;stroke-width:8;stroke-linecap:butt;stroke-linejoin:miter"
       id="polyline44" />
    <!-- Line -->
    <polyline
       points="1653,2078 992,755 "
       style="stroke:#000000;stroke-width:8;stroke-linecap:butt;stroke-linejoin:miter"
       id="polyline46" />
    <!-- Line -->
    <polyline
       points="1653,2078 708,1417 "
       style="stroke:#000000;stroke-width:8;stroke-linecap:butt;stroke-linejoin:miter"
       id="polyline48" />
    <!-- Line -->
    <polyline
       points="992,2078 1653,1417 "
       style="stroke:#000000;stroke-width:8;stroke-linecap:butt;stroke-linejoin:miter"
       id="polyline50" />
    <!-- Line -->
    <polyline
       points="992,2078 1653,755 "
       style="stroke:#000000;stroke-width:8;stroke-linecap:butt;stroke-linejoin:miter"
       id="polyline52" />
    <!-- Line: box -->
    <rect
       x="992"
       y="1417"
       width="661"
       height="661"
       rx="0"
       style="stroke:#000000;stroke-width:8;stroke-linecap:butt;stroke-linejoin:miter"
       id="rect54" />
    <!-- Line -->
    <polyline
       points="708,1417 992,2078 "
       style="stroke:#000000;stroke-width:8;stroke-linecap:butt;stroke-linejoin:miter"
       id="polyline56" />
    <!-- Text -->
    <!-- Circle -->
    <circle
       cx="2314"
       cy="755"
       r="47"
       style="fill:#ffffff;stroke:#000000;stroke-width:8"
       id="circle60"
       sodipodi:cx="2314"
       sodipodi:cy="755"
       sodipodi:rx="47"
       sodipodi:ry="47"
       d="m 2361,755 c 0,25.95738 -21.0426,47 -47,47 -25.9574,0 -47,-21.04262 -47,-47 0,-25.95738 21.0426,-47 47,-47 25.9574,0 47,21.04262 47,47 z" />
    <!-- Circle -->
    <circle
       cx="2598"
       cy="1417"
       r="47"
       style="fill:#ffffff;stroke:#000000;stroke-width:8"
       id="circle62"
       sodipodi:cx="2598"
       sodipodi:cy="1417"
       sodipodi:rx="47"
       sodipodi:ry="47"
       d="m 2645,1417 c 0,25.9574 -21.0426,47 -47,47 -25.9574,0 -47,-21.0426 -47,-47 0,-25.9574 21.0426,-47 47,-47 25.9574,0 47,21.0426 47,47 z" />
    <!-- Circle -->
    <circle
       cx="992"
       cy="755"
       r="47"
       style="fill:#ffffff;stroke:#000000;stroke-width:8"
       id="circle64"
       sodipodi:cx="992"
       sodipodi:cy="755"
       sodipodi:rx="47"
       sodipodi:ry="47"
       d="m 1039,755 c 0,25.95738 -21.0426,47 -47,47 -25.95738,0 -47,-21.04262 -47,-47 0,-25.95738 21.04262,-47 47,-47 25.9574,0 47,21.04262 47,47 z" />
    <!-- Circle -->
    <circle
       cx="1653"
       cy="1417"
       r="47"
       style="fill:#ffffff;stroke:#000000;stroke-width:8"
       id="circle66"
       sodipodi:cx="1653"
       sodipodi:cy="1417"
       sodipodi:rx="47"
       sodipodi:ry="47"
       d="m 1700,1417 c 0,25.9574 -21.0426,47 -47,47 -25.9574,0 -47,-21.0426 -47,-47 0,-25.9574 21.0426,-47 47,-47 25.9574,0 47,21.0426 47,47 z" />
    <!-- Circle -->
    <circle
       cx="2314"
       cy="2078"
       r="47"
       style="fill:#ffffff;stroke:#000000;stroke-width:8"
       id="circle68"
       sodipodi:cx="2314"
       sodipodi:cy="2078"
       sodipodi:rx="47"
       sodipodi:ry="47"
       d="m 2361,2078 c 0,25.9574 -21.0426,47 -47,47 -25.9574,0 -47,-21.0426 -47,-47 0,-25.9574 21.0426,-47 47,-47 25.9574,0 47,21.0426 47,47 z" />
    <!-- Circle -->
    <circle
       cx="1639"
       cy="2080"
       r="47"
       style="fill:#ffffff;stroke:#000000;stroke-width:8"
       id="circle70"
       sodipodi:cx="1639"
       sodipodi:cy="2080"
       sodipodi:rx="47"
       sodipodi:ry="47"
       d="m 1686,2080 c 0,25.9574 -21.0426,47 -47,47 -25.9574,0 -47,-21.0426 -47,-47 0,-25.9574 21.0426,-47 47,-47 25.9574,0 47,21.0426 47,47 z" />
    <!-- Circle -->
    <circle
       cx="992"
       cy="2078"
       r="47"
       style="fill:#ffffff;stroke:#000000;stroke-width:8"
       id="circle72"
       sodipodi:cx="992"
       sodipodi:cy="2078"
       sodipodi:rx="47"
       sodipodi:ry="47"
       d="m 1039,2078 c 0,25.9574 -21.0426,47 -47,47 -25.95738,0 -47,-21.0426 -47,-47 0,-25.9574 21.04262,-47 47,-47 25.9574,0 47,21.0426 47,47 z" />
    <!-- Circle -->
    <circle
       cx="708"
       cy="1417"
       r="47"
       style="fill:#ffffff;stroke:#000000;stroke-width:8"
       id="circle74"
       sodipodi:cx="708"
       sodipodi:cy="1417"
       sodipodi:rx="47"
       sodipodi:ry="47"
       d="m 755,1417 c 0,25.9574 -21.04262,47 -47,47 -25.95738,0 -47,-21.0426 -47,-47 0,-25.9574 21.04262,-47 47,-47 25.95738,0 47,21.0426 47,47 z" />
    <!-- Circle -->
    <circle
       cx="1653"
       cy="755"
       r="47"
       style="fill:#ffffff;stroke:#000000;stroke-width:8"
       id="circle76"
       sodipodi:cx="1653"
       sodipodi:cy="755"
       sodipodi:rx="47"
       sodipodi:ry="47"
       d="m 1700,755 c 0,25.95738 -21.0426,47 -47,47 -25.9574,0 -47,-21.04262 -47,-47 0,-25.95738 21.0426,-47 47,-47 25.9574,0 47,21.04262 47,47 z" />
    <!-- Text -->
    <!-- Text -->
    <!-- Text -->
    <!-- Text -->
    <!-- Text -->
    <!-- Text -->
    <!-- Text -->
    <!-- Text -->
    <!-- Text -->
    <g
       transform="matrix(20,0,0,20,-2904.5342,-454.41352)"
       ns0:text="$u_6$"
       ns0:preamble=""
       id="g4577">
      <defs
         id="defs4579">
        <g
           id="g4581">
          <symbol
             style="overflow:visible"
             overflow="visible"
             id="textext-cbc9897f-0">
            <path
               inkscape:connector-curvature="0"
               style="stroke:none"
               d=""
               id="path4584" />
          </symbol>
          <symbol
             style="overflow:visible"
             overflow="visible"
             id="textext-cbc9897f-1">
            <path
               inkscape:connector-curvature="0"
               style="stroke:none"
               d="M 3.484375,-0.5625 C 3.59375,-0.15625 3.953125,0.109375 4.375,0.109375 4.71875,0.109375 4.953125,-0.125 5.109375,-0.4375 5.28125,-0.796875 5.40625,-1.40625 5.40625,-1.421875 c 0,-0.109375 -0.078125,-0.109375 -0.109375,-0.109375 -0.109375,0 -0.109375,0.046875 -0.140625,0.1875 -0.140625,0.5625 -0.328125,1.234375 -0.75,1.234375 -0.203125,0 -0.3125,-0.125 -0.3125,-0.453125 0,-0.21875 0.125,-0.6875 0.203125,-1.046875 L 4.578125,-2.6875 C 4.609375,-2.828125 4.703125,-3.203125 4.75,-3.359375 4.796875,-3.59375 4.890625,-3.96875 4.890625,-4.03125 c 0,-0.171875 -0.140625,-0.265625 -0.28125,-0.265625 -0.046875,0 -0.3125,0.015625 -0.390625,0.34375 -0.1875,0.734375 -0.625,2.484375 -0.75,3 -0.015625,0.046875 -0.40625,0.84375 -1.140625,0.84375 -0.515625,0 -0.609375,-0.453125 -0.609375,-0.8125 0,-0.5625 0.28125,-1.34375 0.53125,-2.03125 0.125,-0.3125 0.171875,-0.453125 0.171875,-0.640625 0,-0.4375 -0.3125,-0.8125 -0.8125,-0.8125 -0.953125,0 -1.3125,1.453125 -1.3125,1.53125 0,0.109375 0.09375,0.109375 0.109375,0.109375 0.109375,0 0.109375,-0.03125 0.15625,-0.1875 0.25,-0.859375 0.640625,-1.234375 1.015625,-1.234375 0.09375,0 0.25,0.015625 0.25,0.328125 0,0.234375 -0.109375,0.53125 -0.171875,0.671875 -0.375,1 -0.578125,1.609375 -0.578125,2.09375 0,0.953125 0.6875,1.203125 1.21875,1.203125 0.65625,0 1.015625,-0.453125 1.1875,-0.671875 z"
               id="path4587" />
          </symbol>
          <symbol
             style="overflow:visible"
             overflow="visible"
             id="textext-cbc9897f-2">
            <path
               inkscape:connector-curvature="0"
               style="stroke:none"
               d=""
               id="path4590" />
          </symbol>
          <symbol
             style="overflow:visible"
             overflow="visible"
             id="textext-cbc9897f-3">
            <path
               inkscape:connector-curvature="0"
               style="stroke:none"
               d="m 1.046875,-2.28125 c 0,-0.5625 0.046875,-1.078125 0.3125,-1.515625 0.234375,-0.375 0.609375,-0.625 1.0625,-0.625 0.203125,0 0.484375,0.046875 0.625,0.234375 C 2.875,-4.171875 2.71875,-4.046875 2.71875,-3.84375 c 0,0.171875 0.125,0.328125 0.328125,0.328125 0.21875,0 0.34375,-0.140625 0.34375,-0.34375 0,-0.40625 -0.296875,-0.765625 -0.984375,-0.765625 -1,0 -2.03125,0.921875 -2.03125,2.421875 0,1.796875 0.84375,2.34375 1.625,2.34375 0.84375,0 1.578125,-0.65625 1.578125,-1.5625 0,-0.890625 -0.703125,-1.546875 -1.515625,-1.546875 -0.5625,0 -0.859375,0.375 -1.015625,0.6875 z M 2,-0.078125 c -0.359375,0 -0.625,-0.203125 -0.78125,-0.515625 C 1.125,-0.796875 1.0625,-1.15625 1.0625,-1.5625 c 0,-0.6875 0.40625,-1.203125 0.96875,-1.203125 0.3125,0 0.53125,0.125 0.703125,0.375 0.171875,0.265625 0.171875,0.5625 0.171875,0.96875 0,0.390625 0,0.6875 -0.1875,0.96875 -0.15625,0.234375 -0.390625,0.375 -0.71875,0.375 z"
               id="path4593" />
          </symbol>
        </g>
      </defs>
      <g
         id="textext-cbc9897f-4">
        <g
           style="fill:#000000;fill-opacity:1"
           id="g4596">
          <use
             height="1952"
             width="2251"
             xlink:href="#textext-cbc9897f-1"
             x="223.43201"
             y="134.765"
             id="use4598" />
        </g>
        <g
           style="fill:#000000;fill-opacity:1"
           id="g4600">
          <use
             height="1952"
             width="2251"
             xlink:href="#textext-cbc9897f-3"
             x="229.13499"
             y="136.259"
             id="use4602" />
        </g>
      </g>
    </g>
    <g
       id="g4918"
       ns0:preamble=""
       ns0:text="$u_7$"
       transform="matrix(20,0,0,20,-3590.0958,-2048.9177)">
      <defs
         id="defs4920">
        <g
           id="g4922">
          <symbol
             id="textext-402673ad-0"
             overflow="visible"
             style="overflow:visible">
            <path
               id="path4925"
               d=""
               style="stroke:none"
               inkscape:connector-curvature="0" />
          </symbol>
          <symbol
             id="textext-402673ad-1"
             overflow="visible"
             style="overflow:visible">
            <path
               id="path4928"
               d="M 3.484375,-0.5625 C 3.59375,-0.15625 3.953125,0.109375 4.375,0.109375 4.71875,0.109375 4.953125,-0.125 5.109375,-0.4375 5.28125,-0.796875 5.40625,-1.40625 5.40625,-1.421875 c 0,-0.109375 -0.078125,-0.109375 -0.109375,-0.109375 -0.109375,0 -0.109375,0.046875 -0.140625,0.1875 -0.140625,0.5625 -0.328125,1.234375 -0.75,1.234375 -0.203125,0 -0.3125,-0.125 -0.3125,-0.453125 0,-0.21875 0.125,-0.6875 0.203125,-1.046875 L 4.578125,-2.6875 C 4.609375,-2.828125 4.703125,-3.203125 4.75,-3.359375 4.796875,-3.59375 4.890625,-3.96875 4.890625,-4.03125 c 0,-0.171875 -0.140625,-0.265625 -0.28125,-0.265625 -0.046875,0 -0.3125,0.015625 -0.390625,0.34375 -0.1875,0.734375 -0.625,2.484375 -0.75,3 -0.015625,0.046875 -0.40625,0.84375 -1.140625,0.84375 -0.515625,0 -0.609375,-0.453125 -0.609375,-0.8125 0,-0.5625 0.28125,-1.34375 0.53125,-2.03125 0.125,-0.3125 0.171875,-0.453125 0.171875,-0.640625 0,-0.4375 -0.3125,-0.8125 -0.8125,-0.8125 -0.953125,0 -1.3125,1.453125 -1.3125,1.53125 0,0.109375 0.09375,0.109375 0.109375,0.109375 0.109375,0 0.109375,-0.03125 0.15625,-0.1875 0.25,-0.859375 0.640625,-1.234375 1.015625,-1.234375 0.09375,0 0.25,0.015625 0.25,0.328125 0,0.234375 -0.109375,0.53125 -0.171875,0.671875 -0.375,1 -0.578125,1.609375 -0.578125,2.09375 0,0.953125 0.6875,1.203125 1.21875,1.203125 0.65625,0 1.015625,-0.453125 1.1875,-0.671875 z"
               style="stroke:none"
               inkscape:connector-curvature="0" />
          </symbol>
          <symbol
             id="textext-402673ad-2"
             overflow="visible"
             style="overflow:visible">
            <path
               id="path4931"
               d=""
               style="stroke:none"
               inkscape:connector-curvature="0" />
          </symbol>
          <symbol
             id="textext-402673ad-3"
             overflow="visible"
             style="overflow:visible">
            <path
               id="path4934"
               d="m 3.734375,-4.203125 c 0.0625,-0.09375 0.0625,-0.109375 0.0625,-0.28125 l -1.828125,0 C 1.6875,-4.484375 1.609375,-4.5 1.359375,-4.515625 1,-4.546875 0.984375,-4.59375 0.96875,-4.703125 l -0.234375,0 -0.25,1.484375 0.234375,0 c 0.015625,-0.109375 0.09375,-0.5625 0.203125,-0.640625 0.046875,-0.03125 0.625,-0.03125 0.71875,-0.03125 l 1.515625,0 c -0.21875,0.28125 -0.578125,0.71875 -0.71875,0.921875 -0.90625,1.1875 -1,2.296875 -1,2.703125 0,0.078125 0,0.40625 0.328125,0.40625 0.34375,0 0.34375,-0.3125 0.34375,-0.40625 l 0,-0.28125 c 0,-1.34375 0.28125,-1.96875 0.578125,-2.34375 z"
               style="stroke:none"
               inkscape:connector-curvature="0" />
          </symbol>
        </g>
      </defs>
      <g
         id="textext-402673ad-4">
        <g
           id="g4937"
           style="fill:#000000;fill-opacity:1">
          <use
             id="use4939"
             y="134.765"
             x="223.43201"
             xlink:href="#textext-402673ad-1"
             width="2251"
             height="1952" />
        </g>
        <g
           id="g4941"
           style="fill:#000000;fill-opacity:1">
          <use
             id="use4943"
             y="136.259"
             x="229.13499"
             xlink:href="#textext-402673ad-3"
             width="2251"
             height="1952" />
        </g>
      </g>
    </g>
    <g
       id="g8903"
       transform="matrix(16.256114,0,0,16.256114,-2147.4252,-960.69628)"
       ns0:preamble=""
       ns0:text="$u_5$">
      <defs
         id="defs8905">
        <g
           id="g8907">
          <symbol
             id="textext-9cb76b27-0"
             overflow="visible"
             style="overflow:visible">
            <path
               id="path8910"
               d=""
               style="stroke:none"
               inkscape:connector-curvature="0" />
          </symbol>
          <symbol
             id="textext-9cb76b27-1"
             overflow="visible"
             style="overflow:visible">
            <path
               id="path8913"
               d="M 3.484375,-0.5625 C 3.59375,-0.15625 3.953125,0.109375 4.375,0.109375 4.71875,0.109375 4.953125,-0.125 5.109375,-0.4375 5.28125,-0.796875 5.40625,-1.40625 5.40625,-1.421875 c 0,-0.109375 -0.078125,-0.109375 -0.109375,-0.109375 -0.109375,0 -0.109375,0.046875 -0.140625,0.1875 -0.140625,0.5625 -0.328125,1.234375 -0.75,1.234375 -0.203125,0 -0.3125,-0.125 -0.3125,-0.453125 0,-0.21875 0.125,-0.6875 0.203125,-1.046875 L 4.578125,-2.6875 C 4.609375,-2.828125 4.703125,-3.203125 4.75,-3.359375 4.796875,-3.59375 4.890625,-3.96875 4.890625,-4.03125 c 0,-0.171875 -0.140625,-0.265625 -0.28125,-0.265625 -0.046875,0 -0.3125,0.015625 -0.390625,0.34375 -0.1875,0.734375 -0.625,2.484375 -0.75,3 -0.015625,0.046875 -0.40625,0.84375 -1.140625,0.84375 -0.515625,0 -0.609375,-0.453125 -0.609375,-0.8125 0,-0.5625 0.28125,-1.34375 0.53125,-2.03125 0.125,-0.3125 0.171875,-0.453125 0.171875,-0.640625 0,-0.4375 -0.3125,-0.8125 -0.8125,-0.8125 -0.953125,0 -1.3125,1.453125 -1.3125,1.53125 0,0.109375 0.09375,0.109375 0.109375,0.109375 0.109375,0 0.109375,-0.03125 0.15625,-0.1875 0.25,-0.859375 0.640625,-1.234375 1.015625,-1.234375 0.09375,0 0.25,0.015625 0.25,0.328125 0,0.234375 -0.109375,0.53125 -0.171875,0.671875 -0.375,1 -0.578125,1.609375 -0.578125,2.09375 0,0.953125 0.6875,1.203125 1.21875,1.203125 0.65625,0 1.015625,-0.453125 1.1875,-0.671875 z"
               style="stroke:none"
               inkscape:connector-curvature="0" />
          </symbol>
          <symbol
             id="textext-9cb76b27-2"
             overflow="visible"
             style="overflow:visible">
            <path
               id="path8916"
               d=""
               style="stroke:none"
               inkscape:connector-curvature="0" />
          </symbol>
          <symbol
             id="textext-9cb76b27-3"
             overflow="visible"
             style="overflow:visible">
            <path
               id="path8919"
               d="m 1.078125,-3.890625 c 0.359375,0.09375 0.5625,0.09375 0.671875,0.09375 0.921875,0 1.46875,-0.625 1.46875,-0.734375 0,-0.078125 -0.046875,-0.09375 -0.078125,-0.09375 -0.015625,0 -0.03125,0 -0.0625,0.015625 -0.171875,0.0625 -0.53125,0.203125 -1.046875,0.203125 -0.203125,0 -0.5625,-0.015625 -1.015625,-0.1875 C 0.9375,-4.625 0.921875,-4.625 0.921875,-4.625 c -0.09375,0 -0.09375,0.078125 -0.09375,0.1875 l 0,2.046875 c 0,0.125 0,0.203125 0.109375,0.203125 0.0625,0 0.078125,0 0.140625,-0.09375 0.296875,-0.375 0.734375,-0.4375 0.96875,-0.4375 0.421875,0 0.609375,0.328125 0.640625,0.390625 0.125,0.234375 0.171875,0.5 0.171875,0.90625 0,0.203125 0,0.609375 -0.21875,0.921875 -0.171875,0.25 -0.46875,0.421875 -0.8125,0.421875 -0.453125,0 -0.921875,-0.25 -1.09375,-0.71875 0.265625,0.015625 0.40625,-0.15625 0.40625,-0.34375 0,-0.296875 -0.265625,-0.34375 -0.359375,-0.34375 0,0 -0.34375,0 -0.34375,0.375 0,0.625 0.578125,1.25 1.40625,1.25 0.890625,0 1.671875,-0.65625 1.671875,-1.546875 0,-0.78125 -0.59375,-1.5 -1.453125,-1.5 -0.3125,0 -0.671875,0.0625 -0.984375,0.328125 z"
               style="stroke:none"
               inkscape:connector-curvature="0" />
          </symbol>
        </g>
      </defs>
      <g
         id="textext-9cb76b27-4">
        <g
           id="g8922"
           style="fill:#000000;fill-opacity:1">
          <use
             id="use8924"
             y="134.765"
             x="223.43201"
             xlink:href="#textext-9cb76b27-1"
             width="2251"
             height="1952" />
        </g>
        <g
           id="g8926"
           style="fill:#000000;fill-opacity:1">
          <use
             id="use8928"
             y="136.259"
             x="229.13499"
             xlink:href="#textext-9cb76b27-3"
             width="2251"
             height="1952" />
        </g>
      </g>
    </g>
  </g>
  <g
     transform="matrix(20,0,0,20,-2650.5818,-2182.175)"
     ns0:text="$\\eta$"
     ns0:preamble=""
     id="g3181">
    <defs
       id="defs3183">
      <g
         id="g3185">
        <symbol
           style="overflow:visible"
           overflow="visible"
           id="textext-adc103ef-0">
          <path
             inkscape:connector-curvature="0"
             style="stroke:none"
             d=""
             id="path3188" />
        </symbol>
        <symbol
           style="overflow:visible"
           overflow="visible"
           id="textext-adc103ef-1">
          <path
             inkscape:connector-curvature="0"
             style="stroke:none"
             d="M 4.859375,-2.765625 C 4.921875,-2.9375 4.9375,-3.078125 4.9375,-3.34375 c 0,-0.640625 -0.390625,-1.0625 -1.140625,-1.0625 -0.78125,0 -1.296875,0.515625 -1.546875,0.875 -0.046875,-0.578125 -0.46875,-0.875 -0.921875,-0.875 -0.453125,0 -0.640625,0.390625 -0.734375,0.5625 C 0.421875,-3.5 0.296875,-2.90625 0.296875,-2.875 c 0,0.109375 0.09375,0.109375 0.109375,0.109375 0.109375,0 0.109375,-0.015625 0.171875,-0.234375 0.171875,-0.703125 0.375,-1.1875 0.734375,-1.1875 0.15625,0 0.296875,0.078125 0.296875,0.453125 0,0.21875 -0.03125,0.328125 -0.15625,0.84375 L 0.875,-0.59375 c -0.03125,0.15625 -0.09375,0.390625 -0.09375,0.4375 0,0.171875 0.140625,0.265625 0.296875,0.265625 0.125,0 0.296875,-0.078125 0.375,-0.28125 0,-0.015625 0.125,-0.484375 0.1875,-0.734375 l 0.21875,-0.890625 C 1.90625,-2.03125 1.96875,-2.25 2.03125,-2.46875 2.046875,-2.53125 2.125,-2.859375 2.140625,-2.921875 2.15625,-3.015625 2.46875,-3.5625 2.8125,-3.84375 3.03125,-4 3.34375,-4.1875 3.765625,-4.1875 c 0.4375,0 0.546875,0.34375 0.546875,0.703125 0,0.046875 0,0.21875 -0.109375,0.625 l -1.125,4.578125 c -0.03125,0.125 -0.03125,0.140625 -0.03125,0.171875 0,0.140625 0.109375,0.265625 0.265625,0.265625 0.3125,0 0.390625,-0.296875 0.421875,-0.40625 z"
             id="path3191" />
        </symbol>
      </g>
    </defs>
    <g
       id="textext-adc103ef-2">
      <g
         style="fill:#000000;fill-opacity:1"
         id="g3194">
        <use
           height="1952"
           width="2251"
           xlink:href="#textext-adc103ef-1"
           x="223.43201"
           y="134.765"
           id="use3196" />
      </g>
    </g>
  </g>
  <g
     id="g3351"
     ns0:preamble=""
     ns0:text="$u_1$"
     transform="matrix(20,0,0,20,-2298.1329,-2111.2935)">
    <defs
       id="defs3353">
      <g
         id="g3355">
        <symbol
           id="textext-dce0e6f8-0"
           overflow="visible"
           style="overflow:visible">
          <path
             id="path3358"
             d=""
             style="stroke:none"
             inkscape:connector-curvature="0" />
        </symbol>
        <symbol
           id="textext-dce0e6f8-1"
           overflow="visible"
           style="overflow:visible">
          <path
             id="path3361"
             d="M 3.484375,-0.5625 C 3.59375,-0.15625 3.953125,0.109375 4.375,0.109375 4.71875,0.109375 4.953125,-0.125 5.109375,-0.4375 5.28125,-0.796875 5.40625,-1.40625 5.40625,-1.421875 c 0,-0.109375 -0.078125,-0.109375 -0.109375,-0.109375 -0.109375,0 -0.109375,0.046875 -0.140625,0.1875 -0.140625,0.5625 -0.328125,1.234375 -0.75,1.234375 -0.203125,0 -0.3125,-0.125 -0.3125,-0.453125 0,-0.21875 0.125,-0.6875 0.203125,-1.046875 L 4.578125,-2.6875 C 4.609375,-2.828125 4.703125,-3.203125 4.75,-3.359375 4.796875,-3.59375 4.890625,-3.96875 4.890625,-4.03125 c 0,-0.171875 -0.140625,-0.265625 -0.28125,-0.265625 -0.046875,0 -0.3125,0.015625 -0.390625,0.34375 -0.1875,0.734375 -0.625,2.484375 -0.75,3 -0.015625,0.046875 -0.40625,0.84375 -1.140625,0.84375 -0.515625,0 -0.609375,-0.453125 -0.609375,-0.8125 0,-0.5625 0.28125,-1.34375 0.53125,-2.03125 0.125,-0.3125 0.171875,-0.453125 0.171875,-0.640625 0,-0.4375 -0.3125,-0.8125 -0.8125,-0.8125 -0.953125,0 -1.3125,1.453125 -1.3125,1.53125 0,0.109375 0.09375,0.109375 0.109375,0.109375 0.109375,0 0.109375,-0.03125 0.15625,-0.1875 0.25,-0.859375 0.640625,-1.234375 1.015625,-1.234375 0.09375,0 0.25,0.015625 0.25,0.328125 0,0.234375 -0.109375,0.53125 -0.171875,0.671875 -0.375,1 -0.578125,1.609375 -0.578125,2.09375 0,0.953125 0.6875,1.203125 1.21875,1.203125 0.65625,0 1.015625,-0.453125 1.1875,-0.671875 z"
             style="stroke:none"
             inkscape:connector-curvature="0" />
        </symbol>
        <symbol
           id="textext-dce0e6f8-2"
           overflow="visible"
           style="overflow:visible">
          <path
             id="path3364"
             d=""
             style="stroke:none"
             inkscape:connector-curvature="0" />
        </symbol>
        <symbol
           id="textext-dce0e6f8-3"
           overflow="visible"
           style="overflow:visible">
          <path
             id="path3367"
             d="m 2.328125,-4.4375 c 0,-0.1875 0,-0.1875 -0.203125,-0.1875 -0.453125,0.4375 -1.078125,0.4375 -1.359375,0.4375 l 0,0.25 c 0.15625,0 0.625,0 1,-0.1875 l 0,3.546875 c 0,0.234375 0,0.328125 -0.6875,0.328125 l -0.265625,0 0,0.25 c 0.125,0 0.984375,-0.03125 1.234375,-0.03125 0.21875,0 1.09375,0.03125 1.25,0.03125 l 0,-0.25 -0.265625,0 c -0.703125,0 -0.703125,-0.09375 -0.703125,-0.328125 z"
             style="stroke:none"
             inkscape:connector-curvature="0" />
        </symbol>
      </g>
    </defs>
    <g
       id="textext-dce0e6f8-4">
      <g
         id="g3370"
         style="fill:#000000;fill-opacity:1">
        <use
           id="use3372"
           y="134.765"
           x="223.43201"
           xlink:href="#textext-dce0e6f8-1"
           width="2251"
           height="1952" />
      </g>
      <g
         id="g3374"
         style="fill:#000000;fill-opacity:1">
        <use
           id="use3376"
           y="136.259"
           x="229.13499"
           xlink:href="#textext-dce0e6f8-3"
           width="2251"
           height="1952" />
      </g>
    </g>
  </g>
  <g
     transform="matrix(20,0,0,20,-2011.123,-1466.7879)"
     ns0:text="$u_2$"
     ns0:preamble=""
     id="g3559">
    <defs
       id="defs3561">
      <g
         id="g3563">
        <symbol
           style="overflow:visible"
           overflow="visible"
           id="textext-cbf05acb-0">
          <path
             inkscape:connector-curvature="0"
             style="stroke:none"
             d=""
             id="path3566" />
        </symbol>
        <symbol
           style="overflow:visible"
           overflow="visible"
           id="textext-cbf05acb-1">
          <path
             inkscape:connector-curvature="0"
             style="stroke:none"
             d="M 3.484375,-0.5625 C 3.59375,-0.15625 3.953125,0.109375 4.375,0.109375 4.71875,0.109375 4.953125,-0.125 5.109375,-0.4375 5.28125,-0.796875 5.40625,-1.40625 5.40625,-1.421875 c 0,-0.109375 -0.078125,-0.109375 -0.109375,-0.109375 -0.109375,0 -0.109375,0.046875 -0.140625,0.1875 -0.140625,0.5625 -0.328125,1.234375 -0.75,1.234375 -0.203125,0 -0.3125,-0.125 -0.3125,-0.453125 0,-0.21875 0.125,-0.6875 0.203125,-1.046875 L 4.578125,-2.6875 C 4.609375,-2.828125 4.703125,-3.203125 4.75,-3.359375 4.796875,-3.59375 4.890625,-3.96875 4.890625,-4.03125 c 0,-0.171875 -0.140625,-0.265625 -0.28125,-0.265625 -0.046875,0 -0.3125,0.015625 -0.390625,0.34375 -0.1875,0.734375 -0.625,2.484375 -0.75,3 -0.015625,0.046875 -0.40625,0.84375 -1.140625,0.84375 -0.515625,0 -0.609375,-0.453125 -0.609375,-0.8125 0,-0.5625 0.28125,-1.34375 0.53125,-2.03125 0.125,-0.3125 0.171875,-0.453125 0.171875,-0.640625 0,-0.4375 -0.3125,-0.8125 -0.8125,-0.8125 -0.953125,0 -1.3125,1.453125 -1.3125,1.53125 0,0.109375 0.09375,0.109375 0.109375,0.109375 0.109375,0 0.109375,-0.03125 0.15625,-0.1875 0.25,-0.859375 0.640625,-1.234375 1.015625,-1.234375 0.09375,0 0.25,0.015625 0.25,0.328125 0,0.234375 -0.109375,0.53125 -0.171875,0.671875 -0.375,1 -0.578125,1.609375 -0.578125,2.09375 0,0.953125 0.6875,1.203125 1.21875,1.203125 0.65625,0 1.015625,-0.453125 1.1875,-0.671875 z"
             id="path3569" />
        </symbol>
        <symbol
           style="overflow:visible"
           overflow="visible"
           id="textext-cbf05acb-2">
          <path
             inkscape:connector-curvature="0"
             style="stroke:none"
             d=""
             id="path3572" />
        </symbol>
        <symbol
           style="overflow:visible"
           overflow="visible"
           id="textext-cbf05acb-3">
          <path
             inkscape:connector-curvature="0"
             style="stroke:none"
             d="m 3.515625,-1.265625 -0.234375,0 c -0.015625,0.15625 -0.09375,0.5625 -0.1875,0.625 -0.046875,0.046875 -0.578125,0.046875 -0.6875,0.046875 l -1.28125,0 c 0.734375,-0.640625 0.984375,-0.84375 1.390625,-1.171875 0.515625,-0.40625 1,-0.84375 1,-1.5 0,-0.84375 -0.734375,-1.359375 -1.625,-1.359375 -0.859375,0 -1.453125,0.609375 -1.453125,1.25 0,0.34375 0.296875,0.390625 0.375,0.390625 0.15625,0 0.359375,-0.125 0.359375,-0.375 0,-0.125 -0.046875,-0.375 -0.40625,-0.375 C 0.984375,-4.21875 1.453125,-4.375 1.78125,-4.375 c 0.703125,0 1.0625,0.546875 1.0625,1.109375 0,0.609375 -0.4375,1.078125 -0.65625,1.328125 L 0.515625,-0.265625 C 0.4375,-0.203125 0.4375,-0.1875 0.4375,0 l 2.875,0 z"
             id="path3575" />
        </symbol>
      </g>
    </defs>
    <g
       id="textext-cbf05acb-4">
      <g
         style="fill:#000000;fill-opacity:1"
         id="g3578">
        <use
           height="1952"
           width="2251"
           xlink:href="#textext-cbf05acb-1"
           x="223.43201"
           y="134.765"
           id="use3580" />
      </g>
      <g
         style="fill:#000000;fill-opacity:1"
         id="g3582">
        <use
           height="1952"
           width="2251"
           xlink:href="#textext-cbf05acb-3"
           x="229.13499"
           y="136.259"
           id="use3584" />
      </g>
    </g>
  </g>
  <g
     id="g3793"
     ns0:preamble=""
     ns0:text="$u_3$"
     transform="matrix(20,0,0,20,-2217.781,-550.76016)">
    <defs
       id="defs3795">
      <g
         id="g3797">
        <symbol
           id="textext-d8b93212-0"
           overflow="visible"
           style="overflow:visible">
          <path
             id="path3800"
             d=""
             style="stroke:none"
             inkscape:connector-curvature="0" />
        </symbol>
        <symbol
           id="textext-d8b93212-1"
           overflow="visible"
           style="overflow:visible">
          <path
             id="path3803"
             d="M 3.484375,-0.5625 C 3.59375,-0.15625 3.953125,0.109375 4.375,0.109375 4.71875,0.109375 4.953125,-0.125 5.109375,-0.4375 5.28125,-0.796875 5.40625,-1.40625 5.40625,-1.421875 c 0,-0.109375 -0.078125,-0.109375 -0.109375,-0.109375 -0.109375,0 -0.109375,0.046875 -0.140625,0.1875 -0.140625,0.5625 -0.328125,1.234375 -0.75,1.234375 -0.203125,0 -0.3125,-0.125 -0.3125,-0.453125 0,-0.21875 0.125,-0.6875 0.203125,-1.046875 L 4.578125,-2.6875 C 4.609375,-2.828125 4.703125,-3.203125 4.75,-3.359375 4.796875,-3.59375 4.890625,-3.96875 4.890625,-4.03125 c 0,-0.171875 -0.140625,-0.265625 -0.28125,-0.265625 -0.046875,0 -0.3125,0.015625 -0.390625,0.34375 -0.1875,0.734375 -0.625,2.484375 -0.75,3 -0.015625,0.046875 -0.40625,0.84375 -1.140625,0.84375 -0.515625,0 -0.609375,-0.453125 -0.609375,-0.8125 0,-0.5625 0.28125,-1.34375 0.53125,-2.03125 0.125,-0.3125 0.171875,-0.453125 0.171875,-0.640625 0,-0.4375 -0.3125,-0.8125 -0.8125,-0.8125 -0.953125,0 -1.3125,1.453125 -1.3125,1.53125 0,0.109375 0.09375,0.109375 0.109375,0.109375 0.109375,0 0.109375,-0.03125 0.15625,-0.1875 0.25,-0.859375 0.640625,-1.234375 1.015625,-1.234375 0.09375,0 0.25,0.015625 0.25,0.328125 0,0.234375 -0.109375,0.53125 -0.171875,0.671875 -0.375,1 -0.578125,1.609375 -0.578125,2.09375 0,0.953125 0.6875,1.203125 1.21875,1.203125 0.65625,0 1.015625,-0.453125 1.1875,-0.671875 z"
             style="stroke:none"
             inkscape:connector-curvature="0" />
        </symbol>
        <symbol
           id="textext-d8b93212-2"
           overflow="visible"
           style="overflow:visible">
          <path
             id="path3806"
             d=""
             style="stroke:none"
             inkscape:connector-curvature="0" />
        </symbol>
        <symbol
           id="textext-d8b93212-3"
           overflow="visible"
           style="overflow:visible">
          <path
             id="path3809"
             d="m 1.90625,-2.328125 c 0.546875,0 0.9375,0.375 0.9375,1.125 0,0.859375 -0.515625,1.125 -0.90625,1.125 -0.28125,0 -0.90625,-0.078125 -1.1875,-0.5 0.328125,0 0.40625,-0.234375 0.40625,-0.390625 0,-0.21875 -0.171875,-0.375 -0.390625,-0.375 -0.1875,0 -0.390625,0.125 -0.390625,0.40625 0,0.65625 0.71875,1.078125 1.5625,1.078125 0.96875,0 1.640625,-0.65625 1.640625,-1.34375 0,-0.546875 -0.4375,-1.09375 -1.203125,-1.25 0.71875,-0.265625 0.984375,-0.78125 0.984375,-1.21875 0,-0.546875 -0.625,-0.953125 -1.40625,-0.953125 -0.765625,0 -1.359375,0.375 -1.359375,0.9375 0,0.234375 0.15625,0.359375 0.359375,0.359375 0.21875,0 0.359375,-0.15625 0.359375,-0.34375 0,-0.203125 -0.140625,-0.359375 -0.359375,-0.375 0.25,-0.296875 0.71875,-0.375 0.984375,-0.375 0.3125,0 0.75,0.15625 0.75,0.75 0,0.296875 -0.09375,0.625 -0.28125,0.828125 -0.21875,0.265625 -0.421875,0.28125 -0.765625,0.3125 -0.171875,0.015625 -0.1875,0.015625 -0.21875,0.015625 -0.015625,0 -0.078125,0.015625 -0.078125,0.09375 0,0.09375 0.0625,0.09375 0.1875,0.09375 z"
             style="stroke:none"
             inkscape:connector-curvature="0" />
        </symbol>
      </g>
    </defs>
    <g
       id="textext-d8b93212-4">
      <g
         id="g3812"
         style="fill:#000000;fill-opacity:1">
        <use
           id="use3814"
           y="134.765"
           x="223.43201"
           xlink:href="#textext-d8b93212-1"
           width="2251"
           height="1952" />
      </g>
      <g
         id="g3816"
         style="fill:#000000;fill-opacity:1">
        <use
           id="use3818"
           y="136.259"
           x="229.13499"
           xlink:href="#textext-d8b93212-3"
           width="2251"
           height="1952" />
      </g>
    </g>
  </g>
  <g
     transform="matrix(20,0,0,20,-3074.4802,-2142.321)"
     ns0:text="$u_4$"
     ns0:preamble=""
     id="g4053">
    <defs
       id="defs4055">
      <g
         id="g4057">
        <symbol
           style="overflow:visible"
           overflow="visible"
           id="textext-00d7b45e-0">
          <path
             inkscape:connector-curvature="0"
             style="stroke:none"
             d=""
             id="path4060" />
        </symbol>
        <symbol
           style="overflow:visible"
           overflow="visible"
           id="textext-00d7b45e-1">
          <path
             inkscape:connector-curvature="0"
             style="stroke:none"
             d="M 3.484375,-0.5625 C 3.59375,-0.15625 3.953125,0.109375 4.375,0.109375 4.71875,0.109375 4.953125,-0.125 5.109375,-0.4375 5.28125,-0.796875 5.40625,-1.40625 5.40625,-1.421875 c 0,-0.109375 -0.078125,-0.109375 -0.109375,-0.109375 -0.109375,0 -0.109375,0.046875 -0.140625,0.1875 -0.140625,0.5625 -0.328125,1.234375 -0.75,1.234375 -0.203125,0 -0.3125,-0.125 -0.3125,-0.453125 0,-0.21875 0.125,-0.6875 0.203125,-1.046875 L 4.578125,-2.6875 C 4.609375,-2.828125 4.703125,-3.203125 4.75,-3.359375 4.796875,-3.59375 4.890625,-3.96875 4.890625,-4.03125 c 0,-0.171875 -0.140625,-0.265625 -0.28125,-0.265625 -0.046875,0 -0.3125,0.015625 -0.390625,0.34375 -0.1875,0.734375 -0.625,2.484375 -0.75,3 -0.015625,0.046875 -0.40625,0.84375 -1.140625,0.84375 -0.515625,0 -0.609375,-0.453125 -0.609375,-0.8125 0,-0.5625 0.28125,-1.34375 0.53125,-2.03125 0.125,-0.3125 0.171875,-0.453125 0.171875,-0.640625 0,-0.4375 -0.3125,-0.8125 -0.8125,-0.8125 -0.953125,0 -1.3125,1.453125 -1.3125,1.53125 0,0.109375 0.09375,0.109375 0.109375,0.109375 0.109375,0 0.109375,-0.03125 0.15625,-0.1875 0.25,-0.859375 0.640625,-1.234375 1.015625,-1.234375 0.09375,0 0.25,0.015625 0.25,0.328125 0,0.234375 -0.109375,0.53125 -0.171875,0.671875 -0.375,1 -0.578125,1.609375 -0.578125,2.09375 0,0.953125 0.6875,1.203125 1.21875,1.203125 0.65625,0 1.015625,-0.453125 1.1875,-0.671875 z"
             id="path4063" />
        </symbol>
        <symbol
           style="overflow:visible"
           overflow="visible"
           id="textext-00d7b45e-2">
          <path
             inkscape:connector-curvature="0"
             style="stroke:none"
             d=""
             id="path4066" />
        </symbol>
        <symbol
           style="overflow:visible"
           overflow="visible"
           id="textext-00d7b45e-3">
          <path
             inkscape:connector-curvature="0"
             style="stroke:none"
             d="m 3.6875,-1.140625 0,-0.25 -0.78125,0 0,-3.109375 c 0,-0.140625 0,-0.203125 -0.140625,-0.203125 -0.09375,0 -0.125,0 -0.1875,0.109375 l -2.3125,3.203125 0,0.25 2.0625,0 0,0.5625 c 0,0.25 0,0.328125 -0.578125,0.328125 l -0.1875,0 0,0.25 C 1.921875,-0.015625 2.359375,-0.03125 2.609375,-0.03125 2.875,-0.03125 3.3125,-0.015625 3.671875,0 l 0,-0.25 -0.1875,0 C 2.90625,-0.25 2.90625,-0.328125 2.90625,-0.578125 l 0,-0.5625 z M 2.375,-3.9375 l 0,2.546875 -1.84375,0 z"
             id="path4069" />
        </symbol>
      </g>
    </defs>
    <g
       id="textext-00d7b45e-4">
      <g
         style="fill:#000000;fill-opacity:1"
         id="g4072">
        <use
           height="1952"
           width="2251"
           xlink:href="#textext-00d7b45e-1"
           x="223.43201"
           y="134.765"
           id="use4074" />
      </g>
      <g
         style="fill:#000000;fill-opacity:1"
         id="g4076">
        <use
           height="1952"
           width="2251"
           xlink:href="#textext-00d7b45e-3"
           x="229.13499"
           y="136.259"
           id="use4078" />
      </g>
    </g>
  </g>
  <g
     transform="matrix(20,0,0,20,-4099.0776,-1488.0504)"
     ns0:text="$u_8$"
     ns0:preamble=""
     id="g5722">
    <defs
       id="defs5724">
      <g
         id="g5726">
        <symbol
           style="overflow:visible"
           overflow="visible"
           id="textext-772fecb2-0">
          <path
             inkscape:connector-curvature="0"
             style="stroke:none"
             d=""
             id="path5729" />
        </symbol>
        <symbol
           style="overflow:visible"
           overflow="visible"
           id="textext-772fecb2-1">
          <path
             inkscape:connector-curvature="0"
             style="stroke:none"
             d="M 3.484375,-0.5625 C 3.59375,-0.15625 3.953125,0.109375 4.375,0.109375 4.71875,0.109375 4.953125,-0.125 5.109375,-0.4375 5.28125,-0.796875 5.40625,-1.40625 5.40625,-1.421875 c 0,-0.109375 -0.078125,-0.109375 -0.109375,-0.109375 -0.109375,0 -0.109375,0.046875 -0.140625,0.1875 -0.140625,0.5625 -0.328125,1.234375 -0.75,1.234375 -0.203125,0 -0.3125,-0.125 -0.3125,-0.453125 0,-0.21875 0.125,-0.6875 0.203125,-1.046875 L 4.578125,-2.6875 C 4.609375,-2.828125 4.703125,-3.203125 4.75,-3.359375 4.796875,-3.59375 4.890625,-3.96875 4.890625,-4.03125 c 0,-0.171875 -0.140625,-0.265625 -0.28125,-0.265625 -0.046875,0 -0.3125,0.015625 -0.390625,0.34375 -0.1875,0.734375 -0.625,2.484375 -0.75,3 -0.015625,0.046875 -0.40625,0.84375 -1.140625,0.84375 -0.515625,0 -0.609375,-0.453125 -0.609375,-0.8125 0,-0.5625 0.28125,-1.34375 0.53125,-2.03125 0.125,-0.3125 0.171875,-0.453125 0.171875,-0.640625 0,-0.4375 -0.3125,-0.8125 -0.8125,-0.8125 -0.953125,0 -1.3125,1.453125 -1.3125,1.53125 0,0.109375 0.09375,0.109375 0.109375,0.109375 0.109375,0 0.109375,-0.03125 0.15625,-0.1875 0.25,-0.859375 0.640625,-1.234375 1.015625,-1.234375 0.09375,0 0.25,0.015625 0.25,0.328125 0,0.234375 -0.109375,0.53125 -0.171875,0.671875 -0.375,1 -0.578125,1.609375 -0.578125,2.09375 0,0.953125 0.6875,1.203125 1.21875,1.203125 0.65625,0 1.015625,-0.453125 1.1875,-0.671875 z"
             id="path5732" />
        </symbol>
        <symbol
           style="overflow:visible"
           overflow="visible"
           id="textext-772fecb2-2">
          <path
             inkscape:connector-curvature="0"
             style="stroke:none"
             d=""
             id="path5735" />
        </symbol>
        <symbol
           style="overflow:visible"
           overflow="visible"
           id="textext-772fecb2-3">
          <path
             inkscape:connector-curvature="0"
             style="stroke:none"
             d="m 2.46875,-2.515625 c 0.546875,-0.265625 0.890625,-0.59375 0.890625,-1.078125 0,-0.671875 -0.703125,-1.03125 -1.375,-1.03125 -0.765625,0 -1.390625,0.5 -1.390625,1.15625 0,0.328125 0.15625,0.5625 0.28125,0.703125 0.125,0.15625 0.171875,0.1875 0.578125,0.421875 C 1.0625,-2.171875 0.375,-1.796875 0.375,-1.0625 c 0,0.765625 0.796875,1.203125 1.59375,1.203125 0.890625,0 1.609375,-0.5625 1.609375,-1.3125 0,-0.46875 -0.265625,-0.859375 -0.671875,-1.09375 -0.09375,-0.0625 -0.328125,-0.1875 -0.4375,-0.25 z m -1.125,-0.65625 c -0.1875,-0.109375 -0.375,-0.296875 -0.375,-0.5625 0,-0.4375 0.5,-0.6875 1,-0.6875 0.546875,0 1.03125,0.34375 1.03125,0.828125 0,0.625 -0.734375,0.9375 -0.734375,0.9375 -0.015625,0 -0.03125,0 -0.078125,-0.03125 z m 0.328125,0.96875 0.96875,0.546875 c 0.171875,0.109375 0.515625,0.3125 0.515625,0.71875 0,0.53125 -0.578125,0.859375 -1.171875,0.859375 -0.640625,0 -1.1875,-0.421875 -1.1875,-0.984375 0,-0.515625 0.375,-0.921875 0.875,-1.140625 z"
             id="path5738" />
        </symbol>
      </g>
    </defs>
    <g
       id="textext-772fecb2-4">
      <g
         style="fill:#000000;fill-opacity:1"
         id="g5741">
        <use
           height="1952"
           width="2251"
           xlink:href="#textext-772fecb2-1"
           x="223.43201"
           y="134.765"
           id="use5743" />
      </g>
      <g
         style="fill:#000000;fill-opacity:1"
         id="g5745">
        <use
           height="1952"
           width="2251"
           xlink:href="#textext-772fecb2-3"
           x="229.13499"
           y="136.259"
           id="use5747" />
      </g>
    </g>
  </g>
  <g
     id="g6516"
     ns0:preamble=""
     ns0:text="$u_9$"
     transform="matrix(20,0,0,20,-3812.4956,-566.10168)">
    <defs
       id="defs6518">
      <g
         id="g6520">
        <symbol
           id="textext-de6a7698-0"
           overflow="visible"
           style="overflow:visible">
          <path
             id="path6523"
             d=""
             style="stroke:none"
             inkscape:connector-curvature="0" />
        </symbol>
        <symbol
           id="textext-de6a7698-1"
           overflow="visible"
           style="overflow:visible">
          <path
             id="path6526"
             d="M 3.484375,-0.5625 C 3.59375,-0.15625 3.953125,0.109375 4.375,0.109375 4.71875,0.109375 4.953125,-0.125 5.109375,-0.4375 5.28125,-0.796875 5.40625,-1.40625 5.40625,-1.421875 c 0,-0.109375 -0.078125,-0.109375 -0.109375,-0.109375 -0.109375,0 -0.109375,0.046875 -0.140625,0.1875 -0.140625,0.5625 -0.328125,1.234375 -0.75,1.234375 -0.203125,0 -0.3125,-0.125 -0.3125,-0.453125 0,-0.21875 0.125,-0.6875 0.203125,-1.046875 L 4.578125,-2.6875 C 4.609375,-2.828125 4.703125,-3.203125 4.75,-3.359375 4.796875,-3.59375 4.890625,-3.96875 4.890625,-4.03125 c 0,-0.171875 -0.140625,-0.265625 -0.28125,-0.265625 -0.046875,0 -0.3125,0.015625 -0.390625,0.34375 -0.1875,0.734375 -0.625,2.484375 -0.75,3 -0.015625,0.046875 -0.40625,0.84375 -1.140625,0.84375 -0.515625,0 -0.609375,-0.453125 -0.609375,-0.8125 0,-0.5625 0.28125,-1.34375 0.53125,-2.03125 0.125,-0.3125 0.171875,-0.453125 0.171875,-0.640625 0,-0.4375 -0.3125,-0.8125 -0.8125,-0.8125 -0.953125,0 -1.3125,1.453125 -1.3125,1.53125 0,0.109375 0.09375,0.109375 0.109375,0.109375 0.109375,0 0.109375,-0.03125 0.15625,-0.1875 0.25,-0.859375 0.640625,-1.234375 1.015625,-1.234375 0.09375,0 0.25,0.015625 0.25,0.328125 0,0.234375 -0.109375,0.53125 -0.171875,0.671875 -0.375,1 -0.578125,1.609375 -0.578125,2.09375 0,0.953125 0.6875,1.203125 1.21875,1.203125 0.65625,0 1.015625,-0.453125 1.1875,-0.671875 z"
             style="stroke:none"
             inkscape:connector-curvature="0" />
        </symbol>
        <symbol
           id="textext-de6a7698-2"
           overflow="visible"
           style="overflow:visible">
          <path
             id="path6529"
             d=""
             style="stroke:none"
             inkscape:connector-curvature="0" />
        </symbol>
        <symbol
           id="textext-de6a7698-3"
           overflow="visible"
           style="overflow:visible">
          <path
             id="path6532"
             d="m 2.90625,-2.078125 c 0,1.734375 -0.84375,2 -1.265625,2 -0.15625,0 -0.53125,-0.015625 -0.71875,-0.234375 0.296875,-0.03125 0.3125,-0.265625 0.3125,-0.328125 0,-0.171875 -0.125,-0.328125 -0.328125,-0.328125 -0.203125,0 -0.328125,0.140625 -0.328125,0.34375 0,0.46875 0.390625,0.765625 1.0625,0.765625 1,0 1.9375,-0.9375 1.9375,-2.4375 C 3.578125,-4.015625 2.8125,-4.625 2,-4.625 c -0.234375,0 -0.703125,0.03125 -1.109375,0.421875 -0.234375,0.234375 -0.515625,0.5 -0.515625,1.125 0,0.890625 0.703125,1.546875 1.515625,1.546875 0.5625,0 0.859375,-0.375 1.015625,-0.6875 z m -0.96875,0.34375 c -0.28125,0 -0.53125,-0.078125 -0.734375,-0.40625 -0.15625,-0.25 -0.15625,-0.546875 -0.15625,-0.9375 0,-0.40625 0,-0.671875 0.203125,-0.953125 0.171875,-0.25 0.390625,-0.390625 0.75,-0.390625 0.359375,0 0.578125,0.21875 0.6875,0.40625 0.1875,0.28125 0.203125,0.78125 0.203125,1.015625 0,0.90625 -0.515625,1.265625 -0.953125,1.265625 z"
             style="stroke:none"
             inkscape:connector-curvature="0" />
        </symbol>
      </g>
    </defs>
    <g
       id="textext-de6a7698-4">
      <g
         id="g6535"
         style="fill:#000000;fill-opacity:1">
        <use
           id="use6537"
           y="134.765"
           x="223.43201"
           xlink:href="#textext-de6a7698-1"
           width="2251"
           height="1952" />
      </g>
      <g
         id="g6539"
         style="fill:#000000;fill-opacity:1">
        <use
           id="use6541"
           y="136.259"
           x="229.13499"
           xlink:href="#textext-de6a7698-3"
           width="2251"
           height="1952" />
      </g>
    </g>
  </g>
</svg>
