<?xml version="1.0" encoding="UTF-8" standalone="no"?>
<!-- Creator: fig2dev Version 3.2 Patchlevel 5d -->

<!-- CreationDate: Mon Sep 30 17:44:49 2013 -->

<!-- Magnification: 1.050 -->

<svg
   xmlns:ns0="http://www.iki.fi/pav/software/textext/"
   xmlns:dc="http://purl.org/dc/elements/1.1/"
   xmlns:cc="http://creativecommons.org/ns#"
   xmlns:rdf="http://www.w3.org/1999/02/22-rdf-syntax-ns#"
   xmlns:svg="http://www.w3.org/2000/svg"
   xmlns="http://www.w3.org/2000/svg"
   xmlns:xlink="http://www.w3.org/1999/xlink"
   xmlns:sodipodi="http://sodipodi.sourceforge.net/DTD/sodipodi-0.dtd"
   xmlns:inkscape="http://www.inkscape.org/namespaces/inkscape"
   width="157.25446"
   height="101.73474"
   viewBox="566 591 2123.9059 1306.9002"
   id="svg2"
   version="1.1"
   inkscape:version="0.48.4 r9939"
   sodipodi:docname="FEM_mesh.svg">
  <sodipodi:namedview
     pagecolor="#ffffff"
     bordercolor="#666666"
     borderopacity="1"
     objecttolerance="10"
     gridtolerance="10"
     guidetolerance="10"
     inkscape:pageopacity="0"
     inkscape:pageshadow="2"
     inkscape:window-width="1366"
     inkscape:window-height="744"
     id="namedview90"
     showgrid="false"
     inkscape:zoom="2.5490763"
     inkscape:cx="44.513874"
     inkscape:cy="12.532823"
     inkscape:window-x="0"
     inkscape:window-y="24"
     inkscape:window-maximized="1"
     inkscape:current-layer="g4"
     fit-margin-top="0"
     fit-margin-left="0"
     fit-margin-right="0"
     fit-margin-bottom="0" />
  <metadata
     id="metadata94">
    <rdf:RDF>
      <cc:Work
         rdf:about="">
        <dc:format>image/svg+xml</dc:format>
        <dc:type
           rdf:resource="http://purl.org/dc/dcmitype/StillImage" />
        <dc:title />
      </cc:Work>
    </rdf:RDF>
  </metadata>
  <defs
     id="defs92" />
  <g
     style="fill:none;stroke-width:0.025in"
     id="g4"
     transform="translate(-130.77734,-84.087447)">
    <!-- Circle -->
    <circle
       cx="1872"
       cy="1312"
       r="47"
       style="fill:#000000;stroke:#000000;stroke-width:8"
       id="circle6"
       sodipodi:cx="1872"
       sodipodi:cy="1312"
       sodipodi:rx="47"
       sodipodi:ry="47"
       d="m 1919,1312 c 0,25.9574 -21.0426,47 -47,47 -25.9574,0 -47,-21.0426 -47,-47 0,-25.9574 21.0426,-47 47,-47 25.9574,0 47,21.0426 47,47 z"
       transform="translate(-27.012349,0)" />
    <!-- Circle -->
    <circle
       cx="1889"
       cy="1795"
       r="47"
       style="fill:#000000;stroke:#000000;stroke-width:8"
       id="circle8"
       sodipodi:cx="1889"
       sodipodi:cy="1795"
       sodipodi:rx="47"
       sodipodi:ry="47"
       d="m 1936,1795 c 0,25.9574 -21.0426,47 -47,47 -25.9574,0 -47,-21.0426 -47,-47 0,-25.9574 21.0426,-47 47,-47 25.9574,0 47,21.0426 47,47 z"
       transform="translate(-27.012349,0)" />
    <!-- Circle -->
    <circle
       cx="1872"
       cy="850"
       r="47"
       style="fill:#000000;stroke:#000000;stroke-width:8"
       id="circle10"
       sodipodi:cx="1872"
       sodipodi:cy="850"
       sodipodi:rx="47"
       sodipodi:ry="47"
       d="m 1919,850 c 0,25.95738 -21.0426,47 -47,47 -25.9574,0 -47,-21.04262 -47,-47 0,-25.95738 21.0426,-47 47,-47 25.9574,0 47,21.04262 47,47 z"
       transform="translate(-27.012349,0)" />
    <!-- Circle -->
    <circle
       cx="944"
       cy="1417"
       r="47"
       style="fill:#000000;stroke:#000000;stroke-width:8"
       id="circle12"
       sodipodi:cx="944"
       sodipodi:cy="1417"
       sodipodi:rx="47"
       sodipodi:ry="47"
       d="m 991,1417 c 0,25.9574 -21.04262,47 -47,47 -25.95738,0 -47,-21.0426 -47,-47 0,-25.9574 21.04262,-47 47,-47 25.95738,0 47,21.0426 47,47 z"
       transform="translate(-27.012349,0)" />
    <!-- Circle -->
    <circle
       cx="2645"
       cy="1370"
       r="47"
       style="fill:#000000;stroke:#000000;stroke-width:8"
       id="circle14"
       sodipodi:cx="2645"
       sodipodi:cy="1370"
       sodipodi:rx="47"
       sodipodi:ry="47"
       d="m 2692,1370 c 0,25.9574 -21.0426,47 -47,47 -25.9574,0 -47,-21.0426 -47,-47 0,-25.9574 21.0426,-47 47,-47 25.9574,0 47,21.0426 47,47 z"
       transform="translate(-27.012349,0)" />
    <!-- Circle -->
    <circle
       cx="2267"
       cy="1086"
       r="47"
       style="fill:#000000;stroke:#000000;stroke-width:8"
       id="circle16"
       sodipodi:cx="2267"
       sodipodi:cy="1086"
       sodipodi:rx="47"
       sodipodi:ry="47"
       d="m 2314,1086 c 0,25.9574 -21.0426,47 -47,47 -25.9574,0 -47,-21.0426 -47,-47 0,-25.9574 21.0426,-47 47,-47 25.9574,0 47,21.0426 47,47 z"
       transform="translate(-27.012349,0)" />
    <!-- Circle -->
    <circle
       cx="2267"
       cy="1559"
       r="47"
       style="fill:#000000;stroke:#000000;stroke-width:8"
       id="circle18"
       sodipodi:cx="2267"
       sodipodi:cy="1559"
       sodipodi:rx="47"
       sodipodi:ry="47"
       d="m 2314,1559 c 0,25.9574 -21.0426,47 -47,47 -25.9574,0 -47,-21.0426 -47,-47 0,-25.9574 21.0426,-47 47,-47 25.9574,0 47,21.0426 47,47 z"
       transform="translate(-27.012349,0)" />
    <!-- Circle -->
    <circle
       cx="1417"
       cy="1606"
       r="47"
       style="fill:#000000;stroke:#000000;stroke-width:8"
       id="circle20"
       sodipodi:cx="1417"
       sodipodi:cy="1606"
       sodipodi:rx="47"
       sodipodi:ry="47"
       d="m 1464,1606 c 0,25.9574 -21.0426,47 -47,47 -25.9574,0 -47,-21.0426 -47,-47 0,-25.9574 21.0426,-47 47,-47 25.9574,0 47,21.0426 47,47 z"
       transform="translate(-27.012349,0)" />
    <!-- Circle -->
    <circle
       cx="1417"
       cy="1133"
       r="47"
       style="fill:#000000;stroke:#000000;stroke-width:8"
       id="circle22"
       sodipodi:cx="1417"
       sodipodi:cy="1133"
       sodipodi:rx="47"
       sodipodi:ry="47"
       d="m 1464,1133 c 0,25.9574 -21.0426,47 -47,47 -25.9574,0 -47,-21.0426 -47,-47 0,-25.9574 21.0426,-47 47,-47 25.9574,0 47,21.0426 47,47 z"
       transform="translate(-27.012349,0)" />
    <!-- Line -->
    <polygon
       points="1872,844 944,1400 1872,1788 1872,844 "
       style="stroke:#000000;stroke-width:8;stroke-linecap:butt;stroke-linejoin:round"
       id="polygon24"
       transform="translate(-27.012349,0)" />
    <!-- Line -->
    <polygon
       points="1869,817 2670,1374 1869,1762 1869,817 "
       style="stroke:#000000;stroke-width:8;stroke-linecap:butt;stroke-linejoin:round"
       id="polygon26"
       transform="translate(-27.012349,0)" />
    <!-- Line: box -->
    <rect
       x="1429.9877"
       y="1228"
       width="209"
       height="222"
       rx="0"
       style="stroke:#000000;stroke-width:8;stroke-linecap:butt;stroke-linejoin:miter"
       id="rect28" />
    <!-- Line: box -->
    <rect
       x="1947.9877"
       y="1329"
       width="221"
       height="224"
       rx="0"
       style="stroke:#000000;stroke-width:8;stroke-linecap:butt;stroke-linejoin:miter"
       id="rect30" />
    <!-- Text -->
    <!-- Text -->
    <!-- Text -->
    <!-- Text -->
    <!-- Text -->
    <!-- Text -->
    <text
       xml:space="preserve"
       x="1488.0137"
       y="1396.9877"
       font-style="normal"
       font-weight="normal"
       font-size="177"
       id="text62"
       style="font-size:177px;font-style:normal;font-weight:normal;text-anchor:start;fill:#000000;font-family:Times"><tspan
         style="font-family:Times New Roman;-inkscape-font-specification:Times New Roman"
         id="tspan5851">b</tspan></text>
    <!-- Text -->
    <!-- Text -->
    <!-- Text -->
    <!-- Text -->
    <!-- Text -->
    <text
       xml:space="preserve"
       x="2029.4808"
       y="1478.2808"
       font-style="normal"
       font-weight="normal"
       font-size="177"
       id="text88"
       style="font-size:177px;font-style:normal;font-weight:normal;text-anchor:start;fill:#000000;font-family:Times"><tspan
         style="font-family:Times New Roman;-inkscape-font-specification:Times New Roman"
         id="tspan5853">a</tspan></text>
    <g
       id="g3599"
       ns0:preamble=""
       ns0:text="$u_2$"
       transform="matrix(20,0,0,20,-1832.3291,-1379.4148)">
      <defs
         id="defs3601">
        <g
           id="g3603">
          <symbol
             id="textext-cbf05acb-0"
             overflow="visible"
             style="overflow:visible">
            <path
               id="path3606"
               d=""
               style="stroke:none"
               inkscape:connector-curvature="0" />
          </symbol>
          <symbol
             id="textext-cbf05acb-1"
             overflow="visible"
             style="overflow:visible">
            <path
               id="path3609"
               d="M 3.484375,-0.5625 C 3.59375,-0.15625 3.953125,0.109375 4.375,0.109375 4.71875,0.109375 4.953125,-0.125 5.109375,-0.4375 5.28125,-0.796875 5.40625,-1.40625 5.40625,-1.421875 c 0,-0.109375 -0.078125,-0.109375 -0.109375,-0.109375 -0.109375,0 -0.109375,0.046875 -0.140625,0.1875 -0.140625,0.5625 -0.328125,1.234375 -0.75,1.234375 -0.203125,0 -0.3125,-0.125 -0.3125,-0.453125 0,-0.21875 0.125,-0.6875 0.203125,-1.046875 L 4.578125,-2.6875 C 4.609375,-2.828125 4.703125,-3.203125 4.75,-3.359375 4.796875,-3.59375 4.890625,-3.96875 4.890625,-4.03125 c 0,-0.171875 -0.140625,-0.265625 -0.28125,-0.265625 -0.046875,0 -0.3125,0.015625 -0.390625,0.34375 -0.1875,0.734375 -0.625,2.484375 -0.75,3 -0.015625,0.046875 -0.40625,0.84375 -1.140625,0.84375 -0.515625,0 -0.609375,-0.453125 -0.609375,-0.8125 0,-0.5625 0.28125,-1.34375 0.53125,-2.03125 0.125,-0.3125 0.171875,-0.453125 0.171875,-0.640625 0,-0.4375 -0.3125,-0.8125 -0.8125,-0.8125 -0.953125,0 -1.3125,1.453125 -1.3125,1.53125 0,0.109375 0.09375,0.109375 0.109375,0.109375 0.109375,0 0.109375,-0.03125 0.15625,-0.1875 0.25,-0.859375 0.640625,-1.234375 1.015625,-1.234375 0.09375,0 0.25,0.015625 0.25,0.328125 0,0.234375 -0.109375,0.53125 -0.171875,0.671875 -0.375,1 -0.578125,1.609375 -0.578125,2.09375 0,0.953125 0.6875,1.203125 1.21875,1.203125 0.65625,0 1.015625,-0.453125 1.1875,-0.671875 z"
               style="stroke:none"
               inkscape:connector-curvature="0" />
          </symbol>
          <symbol
             id="textext-cbf05acb-2"
             overflow="visible"
             style="overflow:visible">
            <path
               id="path3612"
               d=""
               style="stroke:none"
               inkscape:connector-curvature="0" />
          </symbol>
          <symbol
             id="textext-cbf05acb-3"
             overflow="visible"
             style="overflow:visible">
            <path
               id="path3615"
               d="m 3.515625,-1.265625 -0.234375,0 c -0.015625,0.15625 -0.09375,0.5625 -0.1875,0.625 -0.046875,0.046875 -0.578125,0.046875 -0.6875,0.046875 l -1.28125,0 c 0.734375,-0.640625 0.984375,-0.84375 1.390625,-1.171875 0.515625,-0.40625 1,-0.84375 1,-1.5 0,-0.84375 -0.734375,-1.359375 -1.625,-1.359375 -0.859375,0 -1.453125,0.609375 -1.453125,1.25 0,0.34375 0.296875,0.390625 0.375,0.390625 0.15625,0 0.359375,-0.125 0.359375,-0.375 0,-0.125 -0.046875,-0.375 -0.40625,-0.375 C 0.984375,-4.21875 1.453125,-4.375 1.78125,-4.375 c 0.703125,0 1.0625,0.546875 1.0625,1.109375 0,0.609375 -0.4375,1.078125 -0.65625,1.328125 L 0.515625,-0.265625 C 0.4375,-0.203125 0.4375,-0.1875 0.4375,0 l 2.875,0 z"
               style="stroke:none"
               inkscape:connector-curvature="0" />
          </symbol>
        </g>
      </defs>
      <g
         id="textext-cbf05acb-4">
        <g
           id="g3618"
           style="fill:#000000;fill-opacity:1">
          <use
             id="use3620"
             y="134.765"
             x="223.43201"
             xlink:href="#textext-cbf05acb-1"
             width="2188"
             height="1503" />
        </g>
        <g
           id="g3622"
           style="fill:#000000;fill-opacity:1">
          <use
             id="use3624"
             y="136.259"
             x="229.13499"
             xlink:href="#textext-cbf05acb-3"
             width="2188"
             height="1503" />
        </g>
      </g>
    </g>
    <g
       transform="matrix(20,0,0,20,-2232.5187,-957.14917)"
       ns0:text="$u_3$"
       ns0:preamble=""
       id="g3777">
      <defs
         id="defs3779">
        <g
           id="g3781">
          <symbol
             style="overflow:visible"
             overflow="visible"
             id="textext-d8b93212-0">
            <path
               inkscape:connector-curvature="0"
               style="stroke:none"
               d=""
               id="path3784" />
          </symbol>
          <symbol
             style="overflow:visible"
             overflow="visible"
             id="textext-d8b93212-1">
            <path
               inkscape:connector-curvature="0"
               style="stroke:none"
               d="M 3.484375,-0.5625 C 3.59375,-0.15625 3.953125,0.109375 4.375,0.109375 4.71875,0.109375 4.953125,-0.125 5.109375,-0.4375 5.28125,-0.796875 5.40625,-1.40625 5.40625,-1.421875 c 0,-0.109375 -0.078125,-0.109375 -0.109375,-0.109375 -0.109375,0 -0.109375,0.046875 -0.140625,0.1875 -0.140625,0.5625 -0.328125,1.234375 -0.75,1.234375 -0.203125,0 -0.3125,-0.125 -0.3125,-0.453125 0,-0.21875 0.125,-0.6875 0.203125,-1.046875 L 4.578125,-2.6875 C 4.609375,-2.828125 4.703125,-3.203125 4.75,-3.359375 4.796875,-3.59375 4.890625,-3.96875 4.890625,-4.03125 c 0,-0.171875 -0.140625,-0.265625 -0.28125,-0.265625 -0.046875,0 -0.3125,0.015625 -0.390625,0.34375 -0.1875,0.734375 -0.625,2.484375 -0.75,3 -0.015625,0.046875 -0.40625,0.84375 -1.140625,0.84375 -0.515625,0 -0.609375,-0.453125 -0.609375,-0.8125 0,-0.5625 0.28125,-1.34375 0.53125,-2.03125 0.125,-0.3125 0.171875,-0.453125 0.171875,-0.640625 0,-0.4375 -0.3125,-0.8125 -0.8125,-0.8125 -0.953125,0 -1.3125,1.453125 -1.3125,1.53125 0,0.109375 0.09375,0.109375 0.109375,0.109375 0.109375,0 0.109375,-0.03125 0.15625,-0.1875 0.25,-0.859375 0.640625,-1.234375 1.015625,-1.234375 0.09375,0 0.25,0.015625 0.25,0.328125 0,0.234375 -0.109375,0.53125 -0.171875,0.671875 -0.375,1 -0.578125,1.609375 -0.578125,2.09375 0,0.953125 0.6875,1.203125 1.21875,1.203125 0.65625,0 1.015625,-0.453125 1.1875,-0.671875 z"
               id="path3787" />
          </symbol>
          <symbol
             style="overflow:visible"
             overflow="visible"
             id="textext-d8b93212-2">
            <path
               inkscape:connector-curvature="0"
               style="stroke:none"
               d=""
               id="path3790" />
          </symbol>
          <symbol
             style="overflow:visible"
             overflow="visible"
             id="textext-d8b93212-3">
            <path
               inkscape:connector-curvature="0"
               style="stroke:none"
               d="m 1.90625,-2.328125 c 0.546875,0 0.9375,0.375 0.9375,1.125 0,0.859375 -0.515625,1.125 -0.90625,1.125 -0.28125,0 -0.90625,-0.078125 -1.1875,-0.5 0.328125,0 0.40625,-0.234375 0.40625,-0.390625 0,-0.21875 -0.171875,-0.375 -0.390625,-0.375 -0.1875,0 -0.390625,0.125 -0.390625,0.40625 0,0.65625 0.71875,1.078125 1.5625,1.078125 0.96875,0 1.640625,-0.65625 1.640625,-1.34375 0,-0.546875 -0.4375,-1.09375 -1.203125,-1.25 0.71875,-0.265625 0.984375,-0.78125 0.984375,-1.21875 0,-0.546875 -0.625,-0.953125 -1.40625,-0.953125 -0.765625,0 -1.359375,0.375 -1.359375,0.9375 0,0.234375 0.15625,0.359375 0.359375,0.359375 0.21875,0 0.359375,-0.15625 0.359375,-0.34375 0,-0.203125 -0.140625,-0.359375 -0.359375,-0.375 0.25,-0.296875 0.71875,-0.375 0.984375,-0.375 0.3125,0 0.75,0.15625 0.75,0.75 0,0.296875 -0.09375,0.625 -0.28125,0.828125 -0.21875,0.265625 -0.421875,0.28125 -0.765625,0.3125 -0.171875,0.015625 -0.1875,0.015625 -0.21875,0.015625 -0.015625,0 -0.078125,0.015625 -0.078125,0.09375 0,0.09375 0.0625,0.09375 0.1875,0.09375 z"
               id="path3793" />
          </symbol>
        </g>
      </defs>
      <g
         id="textext-d8b93212-4">
        <g
           style="fill:#000000;fill-opacity:1"
           id="g3796">
          <use
             height="1503"
             width="2188"
             xlink:href="#textext-d8b93212-1"
             x="223.43201"
             y="134.765"
             id="use3798" />
        </g>
        <g
           style="fill:#000000;fill-opacity:1"
           id="g3800">
          <use
             height="1503"
             width="2188"
             xlink:href="#textext-d8b93212-3"
             x="229.13499"
             y="136.259"
             id="use3802" />
        </g>
      </g>
    </g>
    <g
       transform="matrix(20,0,0,20,-2617.8633,-1450.2555)"
       ns0:text="$u_5$"
       ns0:preamble=""
       id="g4195">
      <defs
         id="defs4197">
        <g
           id="g4199">
          <symbol
             style="overflow:visible"
             overflow="visible"
             id="textext-ec93c705-0">
            <path
               inkscape:connector-curvature="0"
               style="stroke:none"
               d=""
               id="path4202" />
          </symbol>
          <symbol
             style="overflow:visible"
             overflow="visible"
             id="textext-ec93c705-1">
            <path
               inkscape:connector-curvature="0"
               style="stroke:none"
               d="M 3.484375,-0.5625 C 3.59375,-0.15625 3.953125,0.109375 4.375,0.109375 4.71875,0.109375 4.953125,-0.125 5.109375,-0.4375 5.28125,-0.796875 5.40625,-1.40625 5.40625,-1.421875 c 0,-0.109375 -0.078125,-0.109375 -0.109375,-0.109375 -0.109375,0 -0.109375,0.046875 -0.140625,0.1875 -0.140625,0.5625 -0.328125,1.234375 -0.75,1.234375 -0.203125,0 -0.3125,-0.125 -0.3125,-0.453125 0,-0.21875 0.125,-0.6875 0.203125,-1.046875 L 4.578125,-2.6875 C 4.609375,-2.828125 4.703125,-3.203125 4.75,-3.359375 4.796875,-3.59375 4.890625,-3.96875 4.890625,-4.03125 c 0,-0.171875 -0.140625,-0.265625 -0.28125,-0.265625 -0.046875,0 -0.3125,0.015625 -0.390625,0.34375 -0.1875,0.734375 -0.625,2.484375 -0.75,3 -0.015625,0.046875 -0.40625,0.84375 -1.140625,0.84375 -0.515625,0 -0.609375,-0.453125 -0.609375,-0.8125 0,-0.5625 0.28125,-1.34375 0.53125,-2.03125 0.125,-0.3125 0.171875,-0.453125 0.171875,-0.640625 0,-0.4375 -0.3125,-0.8125 -0.8125,-0.8125 -0.953125,0 -1.3125,1.453125 -1.3125,1.53125 0,0.109375 0.09375,0.109375 0.109375,0.109375 0.109375,0 0.109375,-0.03125 0.15625,-0.1875 0.25,-0.859375 0.640625,-1.234375 1.015625,-1.234375 0.09375,0 0.25,0.015625 0.25,0.328125 0,0.234375 -0.109375,0.53125 -0.171875,0.671875 -0.375,1 -0.578125,1.609375 -0.578125,2.09375 0,0.953125 0.6875,1.203125 1.21875,1.203125 0.65625,0 1.015625,-0.453125 1.1875,-0.671875 z"
               id="path4205" />
          </symbol>
          <symbol
             style="overflow:visible"
             overflow="visible"
             id="textext-ec93c705-2">
            <path
               inkscape:connector-curvature="0"
               style="stroke:none"
               d=""
               id="path4208" />
          </symbol>
          <symbol
             style="overflow:visible"
             overflow="visible"
             id="textext-ec93c705-3">
            <path
               inkscape:connector-curvature="0"
               style="stroke:none"
               d="m 1.078125,-3.890625 c 0.359375,0.09375 0.5625,0.09375 0.671875,0.09375 0.921875,0 1.46875,-0.625 1.46875,-0.734375 0,-0.078125 -0.046875,-0.09375 -0.078125,-0.09375 -0.015625,0 -0.03125,0 -0.0625,0.015625 -0.171875,0.0625 -0.53125,0.203125 -1.046875,0.203125 -0.203125,0 -0.5625,-0.015625 -1.015625,-0.1875 C 0.9375,-4.625 0.921875,-4.625 0.921875,-4.625 c -0.09375,0 -0.09375,0.078125 -0.09375,0.1875 l 0,2.046875 c 0,0.125 0,0.203125 0.109375,0.203125 0.0625,0 0.078125,0 0.140625,-0.09375 0.296875,-0.375 0.734375,-0.4375 0.96875,-0.4375 0.421875,0 0.609375,0.328125 0.640625,0.390625 0.125,0.234375 0.171875,0.5 0.171875,0.90625 0,0.203125 0,0.609375 -0.21875,0.921875 -0.171875,0.25 -0.46875,0.421875 -0.8125,0.421875 -0.453125,0 -0.921875,-0.25 -1.09375,-0.71875 0.265625,0.015625 0.40625,-0.15625 0.40625,-0.34375 0,-0.296875 -0.265625,-0.34375 -0.359375,-0.34375 0,0 -0.34375,0 -0.34375,0.375 0,0.625 0.578125,1.25 1.40625,1.25 0.890625,0 1.671875,-0.65625 1.671875,-1.546875 0,-0.78125 -0.59375,-1.5 -1.453125,-1.5 -0.3125,0 -0.671875,0.0625 -0.984375,0.328125 z"
               id="path4211" />
          </symbol>
        </g>
      </defs>
      <g
         id="textext-ec93c705-4">
        <g
           style="fill:#000000;fill-opacity:1"
           id="g4214">
          <use
             height="1503"
             width="2188"
             xlink:href="#textext-ec93c705-1"
             x="223.43201"
             y="134.765"
             id="use4216" />
        </g>
        <g
           style="fill:#000000;fill-opacity:1"
           id="g4218">
          <use
             height="1503"
             width="2188"
             xlink:href="#textext-ec93c705-3"
             x="229.13499"
             y="136.259"
             id="use4220" />
        </g>
      </g>
    </g>
    <g
       id="g4451"
       ns0:preamble=""
       ns0:text="$u_6$"
       transform="matrix(20,0,0,20,-2693.487,-717.46918)">
      <defs
         id="defs4453">
        <g
           id="g4455">
          <symbol
             id="textext-cbc9897f-0"
             overflow="visible"
             style="overflow:visible">
            <path
               id="path4458"
               d=""
               style="stroke:none"
               inkscape:connector-curvature="0" />
          </symbol>
          <symbol
             id="textext-cbc9897f-1"
             overflow="visible"
             style="overflow:visible">
            <path
               id="path4461"
               d="M 3.484375,-0.5625 C 3.59375,-0.15625 3.953125,0.109375 4.375,0.109375 4.71875,0.109375 4.953125,-0.125 5.109375,-0.4375 5.28125,-0.796875 5.40625,-1.40625 5.40625,-1.421875 c 0,-0.109375 -0.078125,-0.109375 -0.109375,-0.109375 -0.109375,0 -0.109375,0.046875 -0.140625,0.1875 -0.140625,0.5625 -0.328125,1.234375 -0.75,1.234375 -0.203125,0 -0.3125,-0.125 -0.3125,-0.453125 0,-0.21875 0.125,-0.6875 0.203125,-1.046875 L 4.578125,-2.6875 C 4.609375,-2.828125 4.703125,-3.203125 4.75,-3.359375 4.796875,-3.59375 4.890625,-3.96875 4.890625,-4.03125 c 0,-0.171875 -0.140625,-0.265625 -0.28125,-0.265625 -0.046875,0 -0.3125,0.015625 -0.390625,0.34375 -0.1875,0.734375 -0.625,2.484375 -0.75,3 -0.015625,0.046875 -0.40625,0.84375 -1.140625,0.84375 -0.515625,0 -0.609375,-0.453125 -0.609375,-0.8125 0,-0.5625 0.28125,-1.34375 0.53125,-2.03125 0.125,-0.3125 0.171875,-0.453125 0.171875,-0.640625 0,-0.4375 -0.3125,-0.8125 -0.8125,-0.8125 -0.953125,0 -1.3125,1.453125 -1.3125,1.53125 0,0.109375 0.09375,0.109375 0.109375,0.109375 0.109375,0 0.109375,-0.03125 0.15625,-0.1875 0.25,-0.859375 0.640625,-1.234375 1.015625,-1.234375 0.09375,0 0.25,0.015625 0.25,0.328125 0,0.234375 -0.109375,0.53125 -0.171875,0.671875 -0.375,1 -0.578125,1.609375 -0.578125,2.09375 0,0.953125 0.6875,1.203125 1.21875,1.203125 0.65625,0 1.015625,-0.453125 1.1875,-0.671875 z"
               style="stroke:none"
               inkscape:connector-curvature="0" />
          </symbol>
          <symbol
             id="textext-cbc9897f-2"
             overflow="visible"
             style="overflow:visible">
            <path
               id="path4464"
               d=""
               style="stroke:none"
               inkscape:connector-curvature="0" />
          </symbol>
          <symbol
             id="textext-cbc9897f-3"
             overflow="visible"
             style="overflow:visible">
            <path
               id="path4467"
               d="m 1.046875,-2.28125 c 0,-0.5625 0.046875,-1.078125 0.3125,-1.515625 0.234375,-0.375 0.609375,-0.625 1.0625,-0.625 0.203125,0 0.484375,0.046875 0.625,0.234375 C 2.875,-4.171875 2.71875,-4.046875 2.71875,-3.84375 c 0,0.171875 0.125,0.328125 0.328125,0.328125 0.21875,0 0.34375,-0.140625 0.34375,-0.34375 0,-0.40625 -0.296875,-0.765625 -0.984375,-0.765625 -1,0 -2.03125,0.921875 -2.03125,2.421875 0,1.796875 0.84375,2.34375 1.625,2.34375 0.84375,0 1.578125,-0.65625 1.578125,-1.5625 0,-0.890625 -0.703125,-1.546875 -1.515625,-1.546875 -0.5625,0 -0.859375,0.375 -1.015625,0.6875 z M 2,-0.078125 c -0.359375,0 -0.625,-0.203125 -0.78125,-0.515625 C 1.125,-0.796875 1.0625,-1.15625 1.0625,-1.5625 c 0,-0.6875 0.40625,-1.203125 0.96875,-1.203125 0.3125,0 0.53125,0.125 0.703125,0.375 0.171875,0.265625 0.171875,0.5625 0.171875,0.96875 0,0.390625 0,0.6875 -0.1875,0.96875 -0.15625,0.234375 -0.390625,0.375 -0.71875,0.375 z"
               style="stroke:none"
               inkscape:connector-curvature="0" />
          </symbol>
        </g>
      </defs>
      <g
         id="textext-cbc9897f-4">
        <g
           id="g4470"
           style="fill:#000000;fill-opacity:1">
          <use
             id="use4472"
             y="134.765"
             x="223.43201"
             xlink:href="#textext-cbc9897f-1"
             width="2188"
             height="1503" />
        </g>
        <g
           id="g4474"
           style="fill:#000000;fill-opacity:1">
          <use
             id="use4476"
             y="136.259"
             x="229.13499"
             xlink:href="#textext-cbc9897f-3"
             width="2188"
             height="1503" />
        </g>
      </g>
    </g>
    <g
       transform="matrix(20,0,0,20,-2236.3351,-1698.6653)"
       ns0:text="$u_1$"
       ns0:preamble=""
       id="g4715">
      <defs
         id="defs4717">
        <g
           id="g4719">
          <symbol
             style="overflow:visible"
             overflow="visible"
             id="textext-dce0e6f8-0">
            <path
               inkscape:connector-curvature="0"
               style="stroke:none"
               d=""
               id="path4722" />
          </symbol>
          <symbol
             style="overflow:visible"
             overflow="visible"
             id="textext-dce0e6f8-1">
            <path
               inkscape:connector-curvature="0"
               style="stroke:none"
               d="M 3.484375,-0.5625 C 3.59375,-0.15625 3.953125,0.109375 4.375,0.109375 4.71875,0.109375 4.953125,-0.125 5.109375,-0.4375 5.28125,-0.796875 5.40625,-1.40625 5.40625,-1.421875 c 0,-0.109375 -0.078125,-0.109375 -0.109375,-0.109375 -0.109375,0 -0.109375,0.046875 -0.140625,0.1875 -0.140625,0.5625 -0.328125,1.234375 -0.75,1.234375 -0.203125,0 -0.3125,-0.125 -0.3125,-0.453125 0,-0.21875 0.125,-0.6875 0.203125,-1.046875 L 4.578125,-2.6875 C 4.609375,-2.828125 4.703125,-3.203125 4.75,-3.359375 4.796875,-3.59375 4.890625,-3.96875 4.890625,-4.03125 c 0,-0.171875 -0.140625,-0.265625 -0.28125,-0.265625 -0.046875,0 -0.3125,0.015625 -0.390625,0.34375 -0.1875,0.734375 -0.625,2.484375 -0.75,3 -0.015625,0.046875 -0.40625,0.84375 -1.140625,0.84375 -0.515625,0 -0.609375,-0.453125 -0.609375,-0.8125 0,-0.5625 0.28125,-1.34375 0.53125,-2.03125 0.125,-0.3125 0.171875,-0.453125 0.171875,-0.640625 0,-0.4375 -0.3125,-0.8125 -0.8125,-0.8125 -0.953125,0 -1.3125,1.453125 -1.3125,1.53125 0,0.109375 0.09375,0.109375 0.109375,0.109375 0.109375,0 0.109375,-0.03125 0.15625,-0.1875 0.25,-0.859375 0.640625,-1.234375 1.015625,-1.234375 0.09375,0 0.25,0.015625 0.25,0.328125 0,0.234375 -0.109375,0.53125 -0.171875,0.671875 -0.375,1 -0.578125,1.609375 -0.578125,2.09375 0,0.953125 0.6875,1.203125 1.21875,1.203125 0.65625,0 1.015625,-0.453125 1.1875,-0.671875 z"
               id="path4725" />
          </symbol>
          <symbol
             style="overflow:visible"
             overflow="visible"
             id="textext-dce0e6f8-2">
            <path
               inkscape:connector-curvature="0"
               style="stroke:none"
               d=""
               id="path4728" />
          </symbol>
          <symbol
             style="overflow:visible"
             overflow="visible"
             id="textext-dce0e6f8-3">
            <path
               inkscape:connector-curvature="0"
               style="stroke:none"
               d="m 2.328125,-4.4375 c 0,-0.1875 0,-0.1875 -0.203125,-0.1875 -0.453125,0.4375 -1.078125,0.4375 -1.359375,0.4375 l 0,0.25 c 0.15625,0 0.625,0 1,-0.1875 l 0,3.546875 c 0,0.234375 0,0.328125 -0.6875,0.328125 l -0.265625,0 0,0.25 c 0.125,0 0.984375,-0.03125 1.234375,-0.03125 0.21875,0 1.09375,0.03125 1.25,0.03125 l 0,-0.25 -0.265625,0 c -0.703125,0 -0.703125,-0.09375 -0.703125,-0.328125 z"
               id="path4731" />
          </symbol>
        </g>
      </defs>
      <g
         id="textext-dce0e6f8-4">
        <g
           style="fill:#000000;fill-opacity:1"
           id="g4734">
          <use
             height="1503"
             width="2188"
             xlink:href="#textext-dce0e6f8-1"
             x="223.43201"
             y="134.765"
             id="use4736" />
        </g>
        <g
           style="fill:#000000;fill-opacity:1"
           id="g4738">
          <use
             height="1503"
             width="2188"
             xlink:href="#textext-dce0e6f8-3"
             x="229.13499"
             y="136.259"
             id="use4740" />
        </g>
      </g>
    </g>
    <g
       id="g4990"
       ns0:preamble=""
       ns0:text="$u_7$"
       transform="matrix(20,0,0,20,-3182.1233,-1689.7212)">
      <defs
         id="defs4992">
        <g
           id="g4994">
          <symbol
             id="textext-402673ad-0"
             overflow="visible"
             style="overflow:visible">
            <path
               id="path4997"
               d=""
               style="stroke:none"
               inkscape:connector-curvature="0" />
          </symbol>
          <symbol
             id="textext-402673ad-1"
             overflow="visible"
             style="overflow:visible">
            <path
               id="path5000"
               d="M 3.484375,-0.5625 C 3.59375,-0.15625 3.953125,0.109375 4.375,0.109375 4.71875,0.109375 4.953125,-0.125 5.109375,-0.4375 5.28125,-0.796875 5.40625,-1.40625 5.40625,-1.421875 c 0,-0.109375 -0.078125,-0.109375 -0.109375,-0.109375 -0.109375,0 -0.109375,0.046875 -0.140625,0.1875 -0.140625,0.5625 -0.328125,1.234375 -0.75,1.234375 -0.203125,0 -0.3125,-0.125 -0.3125,-0.453125 0,-0.21875 0.125,-0.6875 0.203125,-1.046875 L 4.578125,-2.6875 C 4.609375,-2.828125 4.703125,-3.203125 4.75,-3.359375 4.796875,-3.59375 4.890625,-3.96875 4.890625,-4.03125 c 0,-0.171875 -0.140625,-0.265625 -0.28125,-0.265625 -0.046875,0 -0.3125,0.015625 -0.390625,0.34375 -0.1875,0.734375 -0.625,2.484375 -0.75,3 -0.015625,0.046875 -0.40625,0.84375 -1.140625,0.84375 -0.515625,0 -0.609375,-0.453125 -0.609375,-0.8125 0,-0.5625 0.28125,-1.34375 0.53125,-2.03125 0.125,-0.3125 0.171875,-0.453125 0.171875,-0.640625 0,-0.4375 -0.3125,-0.8125 -0.8125,-0.8125 -0.953125,0 -1.3125,1.453125 -1.3125,1.53125 0,0.109375 0.09375,0.109375 0.109375,0.109375 0.109375,0 0.109375,-0.03125 0.15625,-0.1875 0.25,-0.859375 0.640625,-1.234375 1.015625,-1.234375 0.09375,0 0.25,0.015625 0.25,0.328125 0,0.234375 -0.109375,0.53125 -0.171875,0.671875 -0.375,1 -0.578125,1.609375 -0.578125,2.09375 0,0.953125 0.6875,1.203125 1.21875,1.203125 0.65625,0 1.015625,-0.453125 1.1875,-0.671875 z"
               style="stroke:none"
               inkscape:connector-curvature="0" />
          </symbol>
          <symbol
             id="textext-402673ad-2"
             overflow="visible"
             style="overflow:visible">
            <path
               id="path5003"
               d=""
               style="stroke:none"
               inkscape:connector-curvature="0" />
          </symbol>
          <symbol
             id="textext-402673ad-3"
             overflow="visible"
             style="overflow:visible">
            <path
               id="path5006"
               d="m 3.734375,-4.203125 c 0.0625,-0.09375 0.0625,-0.109375 0.0625,-0.28125 l -1.828125,0 C 1.6875,-4.484375 1.609375,-4.5 1.359375,-4.515625 1,-4.546875 0.984375,-4.59375 0.96875,-4.703125 l -0.234375,0 -0.25,1.484375 0.234375,0 c 0.015625,-0.109375 0.09375,-0.5625 0.203125,-0.640625 0.046875,-0.03125 0.625,-0.03125 0.71875,-0.03125 l 1.515625,0 c -0.21875,0.28125 -0.578125,0.71875 -0.71875,0.921875 -0.90625,1.1875 -1,2.296875 -1,2.703125 0,0.078125 0,0.40625 0.328125,0.40625 0.34375,0 0.34375,-0.3125 0.34375,-0.40625 l 0,-0.28125 c 0,-1.34375 0.28125,-1.96875 0.578125,-2.34375 z"
               style="stroke:none"
               inkscape:connector-curvature="0" />
          </symbol>
        </g>
      </defs>
      <g
         id="textext-402673ad-4">
        <g
           id="g5009"
           style="fill:#000000;fill-opacity:1">
          <use
             id="use5011"
             y="134.765"
             x="223.43201"
             xlink:href="#textext-402673ad-1"
             width="2188"
             height="1503" />
        </g>
        <g
           id="g5013"
           style="fill:#000000;fill-opacity:1">
          <use
             id="use5015"
             y="136.259"
             x="229.13499"
             xlink:href="#textext-402673ad-3"
             width="2188"
             height="1503" />
        </g>
      </g>
    </g>
    <g
       transform="matrix(20,0,0,20,-3777.8003,-1352.4313)"
       ns0:text="$u_8$"
       ns0:preamble=""
       id="g5294">
      <defs
         id="defs5296">
        <g
           id="g5298">
          <symbol
             style="overflow:visible"
             overflow="visible"
             id="textext-772fecb2-0">
            <path
               inkscape:connector-curvature="0"
               style="stroke:none"
               d=""
               id="path5301" />
          </symbol>
          <symbol
             style="overflow:visible"
             overflow="visible"
             id="textext-772fecb2-1">
            <path
               inkscape:connector-curvature="0"
               style="stroke:none"
               d="M 3.484375,-0.5625 C 3.59375,-0.15625 3.953125,0.109375 4.375,0.109375 4.71875,0.109375 4.953125,-0.125 5.109375,-0.4375 5.28125,-0.796875 5.40625,-1.40625 5.40625,-1.421875 c 0,-0.109375 -0.078125,-0.109375 -0.109375,-0.109375 -0.109375,0 -0.109375,0.046875 -0.140625,0.1875 -0.140625,0.5625 -0.328125,1.234375 -0.75,1.234375 -0.203125,0 -0.3125,-0.125 -0.3125,-0.453125 0,-0.21875 0.125,-0.6875 0.203125,-1.046875 L 4.578125,-2.6875 C 4.609375,-2.828125 4.703125,-3.203125 4.75,-3.359375 4.796875,-3.59375 4.890625,-3.96875 4.890625,-4.03125 c 0,-0.171875 -0.140625,-0.265625 -0.28125,-0.265625 -0.046875,0 -0.3125,0.015625 -0.390625,0.34375 -0.1875,0.734375 -0.625,2.484375 -0.75,3 -0.015625,0.046875 -0.40625,0.84375 -1.140625,0.84375 -0.515625,0 -0.609375,-0.453125 -0.609375,-0.8125 0,-0.5625 0.28125,-1.34375 0.53125,-2.03125 0.125,-0.3125 0.171875,-0.453125 0.171875,-0.640625 0,-0.4375 -0.3125,-0.8125 -0.8125,-0.8125 -0.953125,0 -1.3125,1.453125 -1.3125,1.53125 0,0.109375 0.09375,0.109375 0.109375,0.109375 0.109375,0 0.109375,-0.03125 0.15625,-0.1875 0.25,-0.859375 0.640625,-1.234375 1.015625,-1.234375 0.09375,0 0.25,0.015625 0.25,0.328125 0,0.234375 -0.109375,0.53125 -0.171875,0.671875 -0.375,1 -0.578125,1.609375 -0.578125,2.09375 0,0.953125 0.6875,1.203125 1.21875,1.203125 0.65625,0 1.015625,-0.453125 1.1875,-0.671875 z"
               id="path5304" />
          </symbol>
          <symbol
             style="overflow:visible"
             overflow="visible"
             id="textext-772fecb2-2">
            <path
               inkscape:connector-curvature="0"
               style="stroke:none"
               d=""
               id="path5307" />
          </symbol>
          <symbol
             style="overflow:visible"
             overflow="visible"
             id="textext-772fecb2-3">
            <path
               inkscape:connector-curvature="0"
               style="stroke:none"
               d="m 2.46875,-2.515625 c 0.546875,-0.265625 0.890625,-0.59375 0.890625,-1.078125 0,-0.671875 -0.703125,-1.03125 -1.375,-1.03125 -0.765625,0 -1.390625,0.5 -1.390625,1.15625 0,0.328125 0.15625,0.5625 0.28125,0.703125 0.125,0.15625 0.171875,0.1875 0.578125,0.421875 C 1.0625,-2.171875 0.375,-1.796875 0.375,-1.0625 c 0,0.765625 0.796875,1.203125 1.59375,1.203125 0.890625,0 1.609375,-0.5625 1.609375,-1.3125 0,-0.46875 -0.265625,-0.859375 -0.671875,-1.09375 -0.09375,-0.0625 -0.328125,-0.1875 -0.4375,-0.25 z m -1.125,-0.65625 c -0.1875,-0.109375 -0.375,-0.296875 -0.375,-0.5625 0,-0.4375 0.5,-0.6875 1,-0.6875 0.546875,0 1.03125,0.34375 1.03125,0.828125 0,0.625 -0.734375,0.9375 -0.734375,0.9375 -0.015625,0 -0.03125,0 -0.078125,-0.03125 z m 0.328125,0.96875 0.96875,0.546875 c 0.171875,0.109375 0.515625,0.3125 0.515625,0.71875 0,0.53125 -0.578125,0.859375 -1.171875,0.859375 -0.640625,0 -1.1875,-0.421875 -1.1875,-0.984375 0,-0.515625 0.375,-0.921875 0.875,-1.140625 z"
               id="path5310" />
          </symbol>
        </g>
      </defs>
      <g
         id="textext-772fecb2-4">
        <g
           style="fill:#000000;fill-opacity:1"
           id="g5313">
          <use
             height="1503"
             width="2188"
             xlink:href="#textext-772fecb2-1"
             x="223.43201"
             y="134.765"
             id="use5315" />
        </g>
        <g
           style="fill:#000000;fill-opacity:1"
           id="g5317">
          <use
             height="1503"
             width="2188"
             xlink:href="#textext-772fecb2-3"
             x="229.13499"
             y="136.259"
             id="use5319" />
        </g>
      </g>
    </g>
    <g
       id="g5624"
       ns0:preamble=""
       ns0:text="$u_9$"
       transform="matrix(20,0,0,20,-3236.8071,-905.30762)">
      <defs
         id="defs5626">
        <g
           id="g5628">
          <symbol
             id="textext-de6a7698-0"
             overflow="visible"
             style="overflow:visible">
            <path
               id="path5631"
               d=""
               style="stroke:none"
               inkscape:connector-curvature="0" />
          </symbol>
          <symbol
             id="textext-de6a7698-1"
             overflow="visible"
             style="overflow:visible">
            <path
               id="path5634"
               d="M 3.484375,-0.5625 C 3.59375,-0.15625 3.953125,0.109375 4.375,0.109375 4.71875,0.109375 4.953125,-0.125 5.109375,-0.4375 5.28125,-0.796875 5.40625,-1.40625 5.40625,-1.421875 c 0,-0.109375 -0.078125,-0.109375 -0.109375,-0.109375 -0.109375,0 -0.109375,0.046875 -0.140625,0.1875 -0.140625,0.5625 -0.328125,1.234375 -0.75,1.234375 -0.203125,0 -0.3125,-0.125 -0.3125,-0.453125 0,-0.21875 0.125,-0.6875 0.203125,-1.046875 L 4.578125,-2.6875 C 4.609375,-2.828125 4.703125,-3.203125 4.75,-3.359375 4.796875,-3.59375 4.890625,-3.96875 4.890625,-4.03125 c 0,-0.171875 -0.140625,-0.265625 -0.28125,-0.265625 -0.046875,0 -0.3125,0.015625 -0.390625,0.34375 -0.1875,0.734375 -0.625,2.484375 -0.75,3 -0.015625,0.046875 -0.40625,0.84375 -1.140625,0.84375 -0.515625,0 -0.609375,-0.453125 -0.609375,-0.8125 0,-0.5625 0.28125,-1.34375 0.53125,-2.03125 0.125,-0.3125 0.171875,-0.453125 0.171875,-0.640625 0,-0.4375 -0.3125,-0.8125 -0.8125,-0.8125 -0.953125,0 -1.3125,1.453125 -1.3125,1.53125 0,0.109375 0.09375,0.109375 0.109375,0.109375 0.109375,0 0.109375,-0.03125 0.15625,-0.1875 0.25,-0.859375 0.640625,-1.234375 1.015625,-1.234375 0.09375,0 0.25,0.015625 0.25,0.328125 0,0.234375 -0.109375,0.53125 -0.171875,0.671875 -0.375,1 -0.578125,1.609375 -0.578125,2.09375 0,0.953125 0.6875,1.203125 1.21875,1.203125 0.65625,0 1.015625,-0.453125 1.1875,-0.671875 z"
               style="stroke:none"
               inkscape:connector-curvature="0" />
          </symbol>
          <symbol
             id="textext-de6a7698-2"
             overflow="visible"
             style="overflow:visible">
            <path
               id="path5637"
               d=""
               style="stroke:none"
               inkscape:connector-curvature="0" />
          </symbol>
          <symbol
             id="textext-de6a7698-3"
             overflow="visible"
             style="overflow:visible">
            <path
               id="path5640"
               d="m 2.90625,-2.078125 c 0,1.734375 -0.84375,2 -1.265625,2 -0.15625,0 -0.53125,-0.015625 -0.71875,-0.234375 0.296875,-0.03125 0.3125,-0.265625 0.3125,-0.328125 0,-0.171875 -0.125,-0.328125 -0.328125,-0.328125 -0.203125,0 -0.328125,0.140625 -0.328125,0.34375 0,0.46875 0.390625,0.765625 1.0625,0.765625 1,0 1.9375,-0.9375 1.9375,-2.4375 C 3.578125,-4.015625 2.8125,-4.625 2,-4.625 c -0.234375,0 -0.703125,0.03125 -1.109375,0.421875 -0.234375,0.234375 -0.515625,0.5 -0.515625,1.125 0,0.890625 0.703125,1.546875 1.515625,1.546875 0.5625,0 0.859375,-0.375 1.015625,-0.6875 z m -0.96875,0.34375 c -0.28125,0 -0.53125,-0.078125 -0.734375,-0.40625 -0.15625,-0.25 -0.15625,-0.546875 -0.15625,-0.9375 0,-0.40625 0,-0.671875 0.203125,-0.953125 0.171875,-0.25 0.390625,-0.390625 0.75,-0.390625 0.359375,0 0.578125,0.21875 0.6875,0.40625 0.1875,0.28125 0.203125,0.78125 0.203125,1.015625 0,0.90625 -0.515625,1.265625 -0.953125,1.265625 z"
               style="stroke:none"
               inkscape:connector-curvature="0" />
          </symbol>
        </g>
      </defs>
      <g
         id="textext-de6a7698-4">
        <g
           id="g5643"
           style="fill:#000000;fill-opacity:1">
          <use
             id="use5645"
             y="134.765"
             x="223.43201"
             xlink:href="#textext-de6a7698-1"
             width="2188"
             height="1503" />
        </g>
        <g
           id="g5647"
           style="fill:#000000;fill-opacity:1">
          <use
             id="use5649"
             y="136.259"
             x="229.13499"
             xlink:href="#textext-de6a7698-3"
             width="2188"
             height="1503" />
        </g>
      </g>
    </g>
  </g>
  <g
     id="g3981"
     ns0:preamble=""
     ns0:text="$u_4$"
     transform="matrix(20,0,0,20,-2854.052,-2054.786)">
    <defs
       id="defs3983">
      <g
         id="g3985">
        <symbol
           id="textext-00d7b45e-0"
           overflow="visible"
           style="overflow:visible">
          <path
             id="path3988"
             d=""
             style="stroke:none"
             inkscape:connector-curvature="0" />
        </symbol>
        <symbol
           id="textext-00d7b45e-1"
           overflow="visible"
           style="overflow:visible">
          <path
             id="path3991"
             d="M 3.484375,-0.5625 C 3.59375,-0.15625 3.953125,0.109375 4.375,0.109375 4.71875,0.109375 4.953125,-0.125 5.109375,-0.4375 5.28125,-0.796875 5.40625,-1.40625 5.40625,-1.421875 c 0,-0.109375 -0.078125,-0.109375 -0.109375,-0.109375 -0.109375,0 -0.109375,0.046875 -0.140625,0.1875 -0.140625,0.5625 -0.328125,1.234375 -0.75,1.234375 -0.203125,0 -0.3125,-0.125 -0.3125,-0.453125 0,-0.21875 0.125,-0.6875 0.203125,-1.046875 L 4.578125,-2.6875 C 4.609375,-2.828125 4.703125,-3.203125 4.75,-3.359375 4.796875,-3.59375 4.890625,-3.96875 4.890625,-4.03125 c 0,-0.171875 -0.140625,-0.265625 -0.28125,-0.265625 -0.046875,0 -0.3125,0.015625 -0.390625,0.34375 -0.1875,0.734375 -0.625,2.484375 -0.75,3 -0.015625,0.046875 -0.40625,0.84375 -1.140625,0.84375 -0.515625,0 -0.609375,-0.453125 -0.609375,-0.8125 0,-0.5625 0.28125,-1.34375 0.53125,-2.03125 0.125,-0.3125 0.171875,-0.453125 0.171875,-0.640625 0,-0.4375 -0.3125,-0.8125 -0.8125,-0.8125 -0.953125,0 -1.3125,1.453125 -1.3125,1.53125 0,0.109375 0.09375,0.109375 0.109375,0.109375 0.109375,0 0.109375,-0.03125 0.15625,-0.1875 0.25,-0.859375 0.640625,-1.234375 1.015625,-1.234375 0.09375,0 0.25,0.015625 0.25,0.328125 0,0.234375 -0.109375,0.53125 -0.171875,0.671875 -0.375,1 -0.578125,1.609375 -0.578125,2.09375 0,0.953125 0.6875,1.203125 1.21875,1.203125 0.65625,0 1.015625,-0.453125 1.1875,-0.671875 z"
             style="stroke:none"
             inkscape:connector-curvature="0" />
        </symbol>
        <symbol
           id="textext-00d7b45e-2"
           overflow="visible"
           style="overflow:visible">
          <path
             id="path3994"
             d=""
             style="stroke:none"
             inkscape:connector-curvature="0" />
        </symbol>
        <symbol
           id="textext-00d7b45e-3"
           overflow="visible"
           style="overflow:visible">
          <path
             id="path3997"
             d="m 3.6875,-1.140625 0,-0.25 -0.78125,0 0,-3.109375 c 0,-0.140625 0,-0.203125 -0.140625,-0.203125 -0.09375,0 -0.125,0 -0.1875,0.109375 l -2.3125,3.203125 0,0.25 2.0625,0 0,0.5625 c 0,0.25 0,0.328125 -0.578125,0.328125 l -0.1875,0 0,0.25 C 1.921875,-0.015625 2.359375,-0.03125 2.609375,-0.03125 2.875,-0.03125 3.3125,-0.015625 3.671875,0 l 0,-0.25 -0.1875,0 C 2.90625,-0.25 2.90625,-0.328125 2.90625,-0.578125 l 0,-0.5625 z M 2.375,-3.9375 l 0,2.546875 -1.84375,0 z"
             style="stroke:none"
             inkscape:connector-curvature="0" />
        </symbol>
      </g>
    </defs>
    <g
       id="textext-00d7b45e-4">
      <g
         id="g4000"
         style="fill:#000000;fill-opacity:1">
        <use
           id="use4002"
           y="134.765"
           x="223.43201"
           xlink:href="#textext-00d7b45e-1"
           width="2188"
           height="1503" />
      </g>
      <g
         id="g4004"
         style="fill:#000000;fill-opacity:1">
        <use
           id="use4006"
           y="136.259"
           x="229.13499"
           xlink:href="#textext-00d7b45e-3"
           width="2188"
           height="1503" />
      </g>
    </g>
  </g>
</svg>
