<?xml version="1.0" encoding="UTF-8" standalone="no"?>
<!-- Created with Inkscape (http://www.inkscape.org/) -->

<svg
   xmlns:dc="http://purl.org/dc/elements/1.1/"
   xmlns:cc="http://creativecommons.org/ns#"
   xmlns:rdf="http://www.w3.org/1999/02/22-rdf-syntax-ns#"
   xmlns:svg="http://www.w3.org/2000/svg"
   xmlns="http://www.w3.org/2000/svg"
   xmlns:sodipodi="http://sodipodi.sourceforge.net/DTD/sodipodi-0.dtd"
   xmlns:inkscape="http://www.inkscape.org/namespaces/inkscape"
   width="165.78662"
   height="166.59854"
   id="svg6103"
   version="1.1"
   inkscape:version="0.48.4 r9939"
   sodipodi:docname="New document 15">
  <defs
     id="defs6105" />
  <sodipodi:namedview
     id="base"
     pagecolor="#ffffff"
     bordercolor="#666666"
     borderopacity="1.0"
     inkscape:pageopacity="0.0"
     inkscape:pageshadow="2"
     inkscape:zoom="1.979899"
     inkscape:cx="110.08439"
     inkscape:cy="42.400936"
     inkscape:document-units="px"
     inkscape:current-layer="layer1"
     showgrid="false"
     fit-margin-top="0"
     fit-margin-left="0"
     fit-margin-right="0"
     fit-margin-bottom="0"
     inkscape:window-width="1366"
     inkscape:window-height="744"
     inkscape:window-x="0"
     inkscape:window-y="24"
     inkscape:window-maximized="1" />
  <metadata
     id="metadata6108">
    <rdf:RDF>
      <cc:Work
         rdf:about="">
        <dc:format>image/svg+xml</dc:format>
        <dc:type
           rdf:resource="http://purl.org/dc/dcmitype/StillImage" />
        <dc:title></dc:title>
      </cc:Work>
    </rdf:RDF>
  </metadata>
  <g
     inkscape:label="Layer 1"
     inkscape:groupmode="layer"
     id="layer1"
     transform="translate(-308.53526,-106.20577)">
    <rect
       style="fill:#000000;fill-opacity:0;stroke:#000000;stroke-width:4;stroke-linecap:butt;stroke-miterlimit:4;stroke-opacity:1;stroke-dasharray:none;stroke-dashoffset:0"
       id="rect2990"
       width="158.10512"
       height="158.10512"
       x="311.8439"
       y="110.45251" />
    <rect
       style="fill:#000000;fill-opacity:0;stroke:#000000;stroke-width:3;stroke-linecap:butt;stroke-miterlimit:4;stroke-opacity:1;stroke-dasharray:none;stroke-dashoffset:0"
       id="rect5214"
       width="79.052559"
       height="79.052551"
       x="311.8439"
       y="189.50507" />
    <rect
       style="fill:#000000;fill-opacity:0;stroke:#000000;stroke-width:3;stroke-linecap:butt;stroke-miterlimit:4;stroke-opacity:1;stroke-dasharray:none;stroke-dashoffset:0"
       id="rect5216"
       width="79.052559"
       height="79.052551"
       x="390.89648"
       y="189.50507" />
    <rect
       style="fill:#000000;fill-opacity:0;stroke:#000000;stroke-width:3;stroke-linecap:butt;stroke-miterlimit:4;stroke-opacity:1;stroke-dasharray:none;stroke-dashoffset:0"
       id="rect5218"
       width="79.052559"
       height="79.052551"
       x="390.89648"
       y="110.45251" />
    <rect
       style="fill:#000000;fill-opacity:0;stroke:#000000;stroke-width:3;stroke-linecap:butt;stroke-miterlimit:4;stroke-opacity:1;stroke-dasharray:none;stroke-dashoffset:0"
       id="rect5220"
       width="79.052559"
       height="79.052551"
       x="311.8439"
       y="110.45251" />
    <rect
       style="fill:#0000ff;fill-opacity:1;stroke:#000000;stroke-width:2;stroke-linecap:butt;stroke-miterlimit:4;stroke-opacity:1;stroke-dasharray:none;stroke-dashoffset:0"
       id="rect5222"
       width="39.526291"
       height="39.526215"
       x="311.8439"
       y="229.03131" />
    <rect
       style="fill:#00ff00;fill-opacity:1;stroke:#000000;stroke-width:2;stroke-linecap:butt;stroke-miterlimit:4;stroke-opacity:1;stroke-dasharray:none;stroke-dashoffset:0"
       id="rect5232"
       width="39.526283"
       height="39.526276"
       x="311.8439"
       y="189.50507" />
    <rect
       style="fill:#ffb0f3;fill-opacity:0;stroke:#000000;stroke-width:2;stroke-linecap:butt;stroke-miterlimit:4;stroke-opacity:1;stroke-dasharray:none;stroke-dashoffset:0"
       id="rect5234"
       width="39.526283"
       height="39.526276"
       x="351.37021"
       y="189.50507" />
    <rect
       style="fill:#ff0055;fill-opacity:1;stroke:#000000;stroke-width:2;stroke-linecap:butt;stroke-miterlimit:4;stroke-opacity:1;stroke-dasharray:none;stroke-dashoffset:0"
       id="rect5236"
       width="39.526283"
       height="39.526276"
       x="351.37021"
       y="229.03131" />
    <rect
       y="229.03131"
       x="390.89648"
       height="39.526215"
       width="39.526291"
       id="rect5265"
       style="fill:#0000ff;fill-opacity:1;stroke:#000000;stroke-width:2;stroke-linecap:butt;stroke-miterlimit:4;stroke-opacity:1;stroke-dasharray:none;stroke-dashoffset:0" />
    <rect
       y="189.50507"
       x="390.89648"
       height="39.526276"
       width="39.526283"
       id="rect5267"
       style="fill:#00ff00;fill-opacity:1;stroke:#000000;stroke-width:2;stroke-linecap:butt;stroke-miterlimit:4;stroke-opacity:1;stroke-dasharray:none;stroke-dashoffset:0" />
    <rect
       y="189.50507"
       x="430.42276"
       height="39.526276"
       width="39.526283"
       id="rect5269"
       style="fill:#ffb0f3;fill-opacity:0;stroke:#000000;stroke-width:2;stroke-linecap:butt;stroke-miterlimit:4;stroke-opacity:1;stroke-dasharray:none;stroke-dashoffset:0" />
    <rect
       y="229.03131"
       x="430.42276"
       height="39.526276"
       width="39.526283"
       id="rect5271"
       style="fill:#ff0055;fill-opacity:1;stroke:#000000;stroke-width:2;stroke-linecap:butt;stroke-miterlimit:4;stroke-opacity:1;stroke-dasharray:none;stroke-dashoffset:0" />
    <rect
       style="fill:#0000ff;fill-opacity:1;stroke:#000000;stroke-width:2;stroke-linecap:butt;stroke-miterlimit:4;stroke-opacity:1;stroke-dasharray:none;stroke-dashoffset:0"
       id="rect5273"
       width="39.526291"
       height="39.526215"
       x="390.89648"
       y="149.97882" />
    <rect
       style="fill:#00ff00;fill-opacity:1;stroke:#000000;stroke-width:2;stroke-linecap:butt;stroke-miterlimit:4;stroke-opacity:1;stroke-dasharray:none;stroke-dashoffset:0"
       id="rect5275"
       width="39.526283"
       height="39.526276"
       x="390.89648"
       y="110.45257" />
    <rect
       style="fill:#ffb0f3;fill-opacity:0;stroke:#000000;stroke-width:2;stroke-linecap:butt;stroke-miterlimit:4;stroke-opacity:1;stroke-dasharray:none;stroke-dashoffset:0"
       id="rect5277"
       width="39.526283"
       height="39.526276"
       x="430.42276"
       y="110.45257" />
    <rect
       style="fill:#ff0055;fill-opacity:1;stroke:#000000;stroke-width:2;stroke-linecap:butt;stroke-miterlimit:4;stroke-opacity:1;stroke-dasharray:none;stroke-dashoffset:0"
       id="rect5279"
       width="39.526283"
       height="39.526276"
       x="430.42276"
       y="149.97882" />
    <rect
       y="149.97882"
       x="311.8439"
       height="39.526215"
       width="39.526291"
       id="rect5281"
       style="fill:#0000ff;fill-opacity:1;stroke:#000000;stroke-width:2;stroke-linecap:butt;stroke-miterlimit:4;stroke-opacity:1;stroke-dasharray:none;stroke-dashoffset:0" />
    <rect
       y="110.45257"
       x="311.8439"
       height="39.526276"
       width="39.526283"
       id="rect5283"
       style="fill:#00ff00;fill-opacity:1;stroke:#000000;stroke-width:2;stroke-linecap:butt;stroke-miterlimit:4;stroke-opacity:1;stroke-dasharray:none;stroke-dashoffset:0" />
    <rect
       y="110.45257"
       x="351.37021"
       height="39.526276"
       width="39.526283"
       id="rect5285"
       style="fill:#ffb0f3;fill-opacity:0;stroke:#000000;stroke-width:2;stroke-linecap:butt;stroke-miterlimit:4;stroke-opacity:1;stroke-dasharray:none;stroke-dashoffset:0" />
    <rect
       y="149.97882"
       x="351.37021"
       height="39.526276"
       width="39.526283"
       id="rect5287"
       style="fill:#ff0055;fill-opacity:1;stroke:#000000;stroke-width:2;stroke-linecap:butt;stroke-miterlimit:4;stroke-opacity:1;stroke-dasharray:none;stroke-dashoffset:0" />
    <path
       sodipodi:type="arc"
       style="fill:#fffff3;fill-opacity:1;stroke:#000000;stroke-width:2;stroke-linecap:butt;stroke-miterlimit:4;stroke-opacity:1;stroke-dasharray:none;stroke-dashoffset:0"
       id="path5345"
       sodipodi:cx="2.3040316"
       sodipodi:cy="1.5909137"
       sodipodi:rx="2.6880369"
       sodipodi:ry="2.6880369"
       d="m 4.9920685,1.5909137 c 0,1.4845618 -1.2034751,2.6880369 -2.6880369,2.6880369 -1.48456179,0 -2.68803691,-1.2034751 -2.68803691,-2.6880369 0,-1.48456184 1.20347512,-2.688037 2.68803691,-2.688037 1.4845618,0 2.6880369,1.20347516 2.6880369,2.688037 z"
       transform="matrix(0.88035893,0,0,0.88035892,309.97556,108.05199)" />
    <path
       sodipodi:type="arc"
       style="fill:#fffff3;fill-opacity:1;stroke:#000000;stroke-width:2;stroke-linecap:butt;stroke-miterlimit:4;stroke-opacity:1;stroke-dasharray:none;stroke-dashoffset:0"
       id="path5345-0"
       sodipodi:cx="2.3040316"
       sodipodi:cy="1.5909137"
       sodipodi:rx="2.6880369"
       sodipodi:ry="2.6880369"
       d="m 4.9920685,1.5909137 c 0,1.4845618 -1.2034751,2.6880369 -2.6880369,2.6880369 -1.48456179,0 -2.68803691,-1.2034751 -2.68803691,-2.6880369 0,-1.48456184 1.20347512,-2.688037 2.68803691,-2.688037 1.4845618,0 2.6880369,1.20347516 2.6880369,2.688037 z"
       transform="matrix(0.88035893,0,0,0.88035892,349.56369,108.05199)" />
    <path
       sodipodi:type="arc"
       style="fill:#fffff3;fill-opacity:1;stroke:#000000;stroke-width:2;stroke-linecap:butt;stroke-miterlimit:4;stroke-opacity:1;stroke-dasharray:none;stroke-dashoffset:0"
       id="path5345-3"
       sodipodi:cx="2.3040316"
       sodipodi:cy="1.5909137"
       sodipodi:rx="2.6880369"
       sodipodi:ry="2.6880369"
       d="m 4.9920685,1.5909137 c 0,1.4845618 -1.2034751,2.6880369 -2.6880369,2.6880369 -1.48456179,0 -2.68803691,-1.2034751 -2.68803691,-2.6880369 0,-1.48456184 1.20347512,-2.688037 2.68803691,-2.688037 1.4845618,0 2.6880369,1.20347516 2.6880369,2.688037 z"
       transform="matrix(0.88035893,0,0,0.88035892,388.74205,108.05199)" />
    <path
       sodipodi:type="arc"
       style="fill:#fffff3;fill-opacity:1;stroke:#000000;stroke-width:2;stroke-linecap:butt;stroke-miterlimit:4;stroke-opacity:1;stroke-dasharray:none;stroke-dashoffset:0"
       id="path5345-6"
       sodipodi:cx="2.3040316"
       sodipodi:cy="1.5909137"
       sodipodi:rx="2.6880369"
       sodipodi:ry="2.6880369"
       d="m 4.9920685,1.5909137 c 0,1.4845618 -1.2034751,2.6880369 -2.6880369,2.6880369 -1.48456179,0 -2.68803691,-1.2034751 -2.68803691,-2.6880369 0,-1.48456184 1.20347512,-2.688037 2.68803691,-2.688037 1.4845618,0 2.6880369,1.20347516 2.6880369,2.688037 z"
       transform="matrix(0.88035893,0,0,0.88035892,428.49619,108.05199)" />
    <path
       sodipodi:type="arc"
       style="fill:#fffff3;fill-opacity:1;stroke:#000000;stroke-width:2;stroke-linecap:butt;stroke-miterlimit:4;stroke-opacity:1;stroke-dasharray:none;stroke-dashoffset:0"
       id="path5345-2"
       sodipodi:cx="2.3040316"
       sodipodi:cy="1.5909137"
       sodipodi:rx="2.6880369"
       sodipodi:ry="2.6880369"
       d="m 4.9920685,1.5909137 c 0,1.4845618 -1.2034751,2.6880369 -2.6880369,2.6880369 -1.48456179,0 -2.68803691,-1.2034751 -2.68803691,-2.6880369 0,-1.48456184 1.20347512,-2.688037 2.68803691,-2.688037 1.4845618,0 2.6880369,1.20347516 2.6880369,2.688037 z"
       transform="matrix(0.88035893,0,0,0.88035892,468.92067,108.05199)" />
    <path
       transform="matrix(0.88035893,0,0,0.88035892,309.75368,148.57821)"
       d="m 4.9920685,1.5909137 c 0,1.4845618 -1.2034751,2.6880369 -2.6880369,2.6880369 -1.48456179,0 -2.68803691,-1.2034751 -2.68803691,-2.6880369 0,-1.48456184 1.20347512,-2.688037 2.68803691,-2.688037 1.4845618,0 2.6880369,1.20347516 2.6880369,2.688037 z"
       sodipodi:ry="2.6880369"
       sodipodi:rx="2.6880369"
       sodipodi:cy="1.5909137"
       sodipodi:cx="2.3040316"
       id="path5396"
       style="fill:#fffff3;fill-opacity:1;stroke:#000000;stroke-width:2;stroke-linecap:butt;stroke-miterlimit:4;stroke-opacity:1;stroke-dasharray:none;stroke-dashoffset:0"
       sodipodi:type="arc" />
    <path
       transform="matrix(0.88035893,0,0,0.88035892,349.34181,148.57821)"
       d="m 4.9920685,1.5909137 c 0,1.4845618 -1.2034751,2.6880369 -2.6880369,2.6880369 -1.48456179,0 -2.68803691,-1.2034751 -2.68803691,-2.6880369 0,-1.48456184 1.20347512,-2.688037 2.68803691,-2.688037 1.4845618,0 2.6880369,1.20347516 2.6880369,2.688037 z"
       sodipodi:ry="2.6880369"
       sodipodi:rx="2.6880369"
       sodipodi:cy="1.5909137"
       sodipodi:cx="2.3040316"
       id="path5398"
       style="fill:#fffff3;fill-opacity:1;stroke:#000000;stroke-width:2;stroke-linecap:butt;stroke-miterlimit:4;stroke-opacity:1;stroke-dasharray:none;stroke-dashoffset:0"
       sodipodi:type="arc" />
    <path
       transform="matrix(0.88035893,0,0,0.88035892,388.52017,148.57821)"
       d="m 4.9920685,1.5909137 c 0,1.4845618 -1.2034751,2.6880369 -2.6880369,2.6880369 -1.48456179,0 -2.68803691,-1.2034751 -2.68803691,-2.6880369 0,-1.48456184 1.20347512,-2.688037 2.68803691,-2.688037 1.4845618,0 2.6880369,1.20347516 2.6880369,2.688037 z"
       sodipodi:ry="2.6880369"
       sodipodi:rx="2.6880369"
       sodipodi:cy="1.5909137"
       sodipodi:cx="2.3040316"
       id="path5400"
       style="fill:#fffff3;fill-opacity:1;stroke:#000000;stroke-width:2;stroke-linecap:butt;stroke-miterlimit:4;stroke-opacity:1;stroke-dasharray:none;stroke-dashoffset:0"
       sodipodi:type="arc" />
    <path
       transform="matrix(0.88035893,0,0,0.88035892,428.27431,148.57821)"
       d="m 4.9920685,1.5909137 c 0,1.4845618 -1.2034751,2.6880369 -2.6880369,2.6880369 -1.48456179,0 -2.68803691,-1.2034751 -2.68803691,-2.6880369 0,-1.48456184 1.20347512,-2.688037 2.68803691,-2.688037 1.4845618,0 2.6880369,1.20347516 2.6880369,2.688037 z"
       sodipodi:ry="2.6880369"
       sodipodi:rx="2.6880369"
       sodipodi:cy="1.5909137"
       sodipodi:cx="2.3040316"
       id="path5402"
       style="fill:#fffff3;fill-opacity:1;stroke:#000000;stroke-width:2;stroke-linecap:butt;stroke-miterlimit:4;stroke-opacity:1;stroke-dasharray:none;stroke-dashoffset:0"
       sodipodi:type="arc" />
    <path
       transform="matrix(0.88035893,0,0,0.88035892,468.69879,148.57821)"
       d="m 4.9920685,1.5909137 c 0,1.4845618 -1.2034751,2.6880369 -2.6880369,2.6880369 -1.48456179,0 -2.68803691,-1.2034751 -2.68803691,-2.6880369 0,-1.48456184 1.20347512,-2.688037 2.68803691,-2.688037 1.4845618,0 2.6880369,1.20347516 2.6880369,2.688037 z"
       sodipodi:ry="2.6880369"
       sodipodi:rx="2.6880369"
       sodipodi:cy="1.5909137"
       sodipodi:cx="2.3040316"
       id="path5404"
       style="fill:#fffff3;fill-opacity:1;stroke:#000000;stroke-width:2;stroke-linecap:butt;stroke-miterlimit:4;stroke-opacity:1;stroke-dasharray:none;stroke-dashoffset:0"
       sodipodi:type="arc" />
    <path
       sodipodi:type="arc"
       style="fill:#fffff3;fill-opacity:1;stroke:#000000;stroke-width:2;stroke-linecap:butt;stroke-miterlimit:4;stroke-opacity:1;stroke-dasharray:none;stroke-dashoffset:0"
       id="path5406"
       sodipodi:cx="2.3040316"
       sodipodi:cy="1.5909137"
       sodipodi:rx="2.6880369"
       sodipodi:ry="2.6880369"
       d="m 4.9920685,1.5909137 c 0,1.4845618 -1.2034751,2.6880369 -2.6880369,2.6880369 -1.48456179,0 -2.68803691,-1.2034751 -2.68803691,-2.6880369 0,-1.48456184 1.20347512,-2.688037 2.68803691,-2.688037 1.4845618,0 2.6880369,1.20347516 2.6880369,2.688037 z"
       transform="matrix(0.88035893,0,0,0.88035892,310.1016,188.10449)" />
    <path
       sodipodi:type="arc"
       style="fill:#fffff3;fill-opacity:1;stroke:#000000;stroke-width:2;stroke-linecap:butt;stroke-miterlimit:4;stroke-opacity:1;stroke-dasharray:none;stroke-dashoffset:0"
       id="path5408"
       sodipodi:cx="2.3040316"
       sodipodi:cy="1.5909137"
       sodipodi:rx="2.6880369"
       sodipodi:ry="2.6880369"
       d="m 4.9920685,1.5909137 c 0,1.4845618 -1.2034751,2.6880369 -2.6880369,2.6880369 -1.48456179,0 -2.68803691,-1.2034751 -2.68803691,-2.6880369 0,-1.48456184 1.20347512,-2.688037 2.68803691,-2.688037 1.4845618,0 2.6880369,1.20347516 2.6880369,2.688037 z"
       transform="matrix(0.88035893,0,0,0.88035892,349.68973,188.10449)" />
    <path
       sodipodi:type="arc"
       style="fill:#fffff3;fill-opacity:1;stroke:#000000;stroke-width:2;stroke-linecap:butt;stroke-miterlimit:4;stroke-opacity:1;stroke-dasharray:none;stroke-dashoffset:0"
       id="path5410"
       sodipodi:cx="2.3040316"
       sodipodi:cy="1.5909137"
       sodipodi:rx="2.6880369"
       sodipodi:ry="2.6880369"
       d="m 4.9920685,1.5909137 c 0,1.4845618 -1.2034751,2.6880369 -2.6880369,2.6880369 -1.48456179,0 -2.68803691,-1.2034751 -2.68803691,-2.6880369 0,-1.48456184 1.20347512,-2.688037 2.68803691,-2.688037 1.4845618,0 2.6880369,1.20347516 2.6880369,2.688037 z"
       transform="matrix(0.88035893,0,0,0.88035892,388.86809,188.10449)" />
    <path
       sodipodi:type="arc"
       style="fill:#fffff3;fill-opacity:1;stroke:#000000;stroke-width:2;stroke-linecap:butt;stroke-miterlimit:4;stroke-opacity:1;stroke-dasharray:none;stroke-dashoffset:0"
       id="path5412"
       sodipodi:cx="2.3040316"
       sodipodi:cy="1.5909137"
       sodipodi:rx="2.6880369"
       sodipodi:ry="2.6880369"
       d="m 4.9920685,1.5909137 c 0,1.4845618 -1.2034751,2.6880369 -2.6880369,2.6880369 -1.48456179,0 -2.68803691,-1.2034751 -2.68803691,-2.6880369 0,-1.48456184 1.20347512,-2.688037 2.68803691,-2.688037 1.4845618,0 2.6880369,1.20347516 2.6880369,2.688037 z"
       transform="matrix(0.88035893,0,0,0.88035892,428.62223,188.10449)" />
    <path
       sodipodi:type="arc"
       style="fill:#fffff3;fill-opacity:1;stroke:#000000;stroke-width:2;stroke-linecap:butt;stroke-miterlimit:4;stroke-opacity:1;stroke-dasharray:none;stroke-dashoffset:0"
       id="path5414"
       sodipodi:cx="2.3040316"
       sodipodi:cy="1.5909137"
       sodipodi:rx="2.6880369"
       sodipodi:ry="2.6880369"
       d="m 4.9920685,1.5909137 c 0,1.4845618 -1.2034751,2.6880369 -2.6880369,2.6880369 -1.48456179,0 -2.68803691,-1.2034751 -2.68803691,-2.6880369 0,-1.48456184 1.20347512,-2.688037 2.68803691,-2.688037 1.4845618,0 2.6880369,1.20347516 2.6880369,2.688037 z"
       transform="matrix(0.88035893,0,0,0.88035892,469.04671,188.10449)" />
    <path
       transform="matrix(0.88035893,0,0,0.88035892,309.75368,227.63076)"
       d="m 4.9920685,1.5909137 c 0,1.4845618 -1.2034751,2.6880369 -2.6880369,2.6880369 -1.48456179,0 -2.68803691,-1.2034751 -2.68803691,-2.6880369 0,-1.48456184 1.20347512,-2.688037 2.68803691,-2.688037 1.4845618,0 2.6880369,1.20347516 2.6880369,2.688037 z"
       sodipodi:ry="2.6880369"
       sodipodi:rx="2.6880369"
       sodipodi:cy="1.5909137"
       sodipodi:cx="2.3040316"
       id="path5416"
       style="fill:#fffff3;fill-opacity:1;stroke:#000000;stroke-width:2;stroke-linecap:butt;stroke-miterlimit:4;stroke-opacity:1;stroke-dasharray:none;stroke-dashoffset:0"
       sodipodi:type="arc" />
    <path
       transform="matrix(0.88035893,0,0,0.88035892,349.34181,227.63076)"
       d="m 4.9920685,1.5909137 c 0,1.4845618 -1.2034751,2.6880369 -2.6880369,2.6880369 -1.48456179,0 -2.68803691,-1.2034751 -2.68803691,-2.6880369 0,-1.48456184 1.20347512,-2.688037 2.68803691,-2.688037 1.4845618,0 2.6880369,1.20347516 2.6880369,2.688037 z"
       sodipodi:ry="2.6880369"
       sodipodi:rx="2.6880369"
       sodipodi:cy="1.5909137"
       sodipodi:cx="2.3040316"
       id="path5418"
       style="fill:#fffff3;fill-opacity:1;stroke:#000000;stroke-width:2;stroke-linecap:butt;stroke-miterlimit:4;stroke-opacity:1;stroke-dasharray:none;stroke-dashoffset:0"
       sodipodi:type="arc" />
    <path
       transform="matrix(0.88035893,0,0,0.88035892,388.52017,227.63076)"
       d="m 4.9920685,1.5909137 c 0,1.4845618 -1.2034751,2.6880369 -2.6880369,2.6880369 -1.48456179,0 -2.68803691,-1.2034751 -2.68803691,-2.6880369 0,-1.48456184 1.20347512,-2.688037 2.68803691,-2.688037 1.4845618,0 2.6880369,1.20347516 2.6880369,2.688037 z"
       sodipodi:ry="2.6880369"
       sodipodi:rx="2.6880369"
       sodipodi:cy="1.5909137"
       sodipodi:cx="2.3040316"
       id="path5420"
       style="fill:#fffff3;fill-opacity:1;stroke:#000000;stroke-width:2;stroke-linecap:butt;stroke-miterlimit:4;stroke-opacity:1;stroke-dasharray:none;stroke-dashoffset:0"
       sodipodi:type="arc" />
    <path
       transform="matrix(0.88035893,0,0,0.88035892,428.27431,227.63076)"
       d="m 4.9920685,1.5909137 c 0,1.4845618 -1.2034751,2.6880369 -2.6880369,2.6880369 -1.48456179,0 -2.68803691,-1.2034751 -2.68803691,-2.6880369 0,-1.48456184 1.20347512,-2.688037 2.68803691,-2.688037 1.4845618,0 2.6880369,1.20347516 2.6880369,2.688037 z"
       sodipodi:ry="2.6880369"
       sodipodi:rx="2.6880369"
       sodipodi:cy="1.5909137"
       sodipodi:cx="2.3040316"
       id="path5422"
       style="fill:#fffff3;fill-opacity:1;stroke:#000000;stroke-width:2;stroke-linecap:butt;stroke-miterlimit:4;stroke-opacity:1;stroke-dasharray:none;stroke-dashoffset:0"
       sodipodi:type="arc" />
    <path
       transform="matrix(0.88035893,0,0,0.88035892,468.69879,227.63076)"
       d="m 4.9920685,1.5909137 c 0,1.4845618 -1.2034751,2.6880369 -2.6880369,2.6880369 -1.48456179,0 -2.68803691,-1.2034751 -2.68803691,-2.6880369 0,-1.48456184 1.20347512,-2.688037 2.68803691,-2.688037 1.4845618,0 2.6880369,1.20347516 2.6880369,2.688037 z"
       sodipodi:ry="2.6880369"
       sodipodi:rx="2.6880369"
       sodipodi:cy="1.5909137"
       sodipodi:cx="2.3040316"
       id="path5424"
       style="fill:#fffff3;fill-opacity:1;stroke:#000000;stroke-width:2;stroke-linecap:butt;stroke-miterlimit:4;stroke-opacity:1;stroke-dasharray:none;stroke-dashoffset:0"
       sodipodi:type="arc" />
    <path
       sodipodi:type="arc"
       style="fill:#fffff3;fill-opacity:1;stroke:#000000;stroke-width:2;stroke-linecap:butt;stroke-miterlimit:4;stroke-opacity:1;stroke-dasharray:none;stroke-dashoffset:0"
       id="path5426"
       sodipodi:cx="2.3040316"
       sodipodi:cy="1.5909137"
       sodipodi:rx="2.6880369"
       sodipodi:ry="2.6880369"
       d="m 4.9920685,1.5909137 c 0,1.4845618 -1.2034751,2.6880369 -2.6880369,2.6880369 -1.48456179,0 -2.68803691,-1.2034751 -2.68803691,-2.6880369 0,-1.48456184 1.20347512,-2.688037 2.68803691,-2.688037 1.4845618,0 2.6880369,1.20347516 2.6880369,2.688037 z"
       transform="matrix(0.88035893,0,0,0.88035892,309.75368,268.15694)" />
    <path
       sodipodi:type="arc"
       style="fill:#fffff3;fill-opacity:1;stroke:#000000;stroke-width:2;stroke-linecap:butt;stroke-miterlimit:4;stroke-opacity:1;stroke-dasharray:none;stroke-dashoffset:0"
       id="path5428"
       sodipodi:cx="2.3040316"
       sodipodi:cy="1.5909137"
       sodipodi:rx="2.6880369"
       sodipodi:ry="2.6880369"
       d="m 4.9920685,1.5909137 c 0,1.4845618 -1.2034751,2.6880369 -2.6880369,2.6880369 -1.48456179,0 -2.68803691,-1.2034751 -2.68803691,-2.6880369 0,-1.48456184 1.20347512,-2.688037 2.68803691,-2.688037 1.4845618,0 2.6880369,1.20347516 2.6880369,2.688037 z"
       transform="matrix(0.88035893,0,0,0.88035892,349.34181,268.15694)" />
    <path
       sodipodi:type="arc"
       style="fill:#fffff3;fill-opacity:1;stroke:#000000;stroke-width:2;stroke-linecap:butt;stroke-miterlimit:4;stroke-opacity:1;stroke-dasharray:none;stroke-dashoffset:0"
       id="path5430"
       sodipodi:cx="2.3040316"
       sodipodi:cy="1.5909137"
       sodipodi:rx="2.6880369"
       sodipodi:ry="2.6880369"
       d="m 4.9920685,1.5909137 c 0,1.4845618 -1.2034751,2.6880369 -2.6880369,2.6880369 -1.48456179,0 -2.68803691,-1.2034751 -2.68803691,-2.6880369 0,-1.48456184 1.20347512,-2.688037 2.68803691,-2.688037 1.4845618,0 2.6880369,1.20347516 2.6880369,2.688037 z"
       transform="matrix(0.88035893,0,0,0.88035892,388.52017,268.15694)" />
    <path
       sodipodi:type="arc"
       style="fill:#fffff3;fill-opacity:1;stroke:#000000;stroke-width:2;stroke-linecap:butt;stroke-miterlimit:4;stroke-opacity:1;stroke-dasharray:none;stroke-dashoffset:0"
       id="path5432"
       sodipodi:cx="2.3040316"
       sodipodi:cy="1.5909137"
       sodipodi:rx="2.6880369"
       sodipodi:ry="2.6880369"
       d="m 4.9920685,1.5909137 c 0,1.4845618 -1.2034751,2.6880369 -2.6880369,2.6880369 -1.48456179,0 -2.68803691,-1.2034751 -2.68803691,-2.6880369 0,-1.48456184 1.20347512,-2.688037 2.68803691,-2.688037 1.4845618,0 2.6880369,1.20347516 2.6880369,2.688037 z"
       transform="matrix(0.88035893,0,0,0.88035892,428.27431,268.15694)" />
    <path
       sodipodi:type="arc"
       style="fill:#fffff3;fill-opacity:1;stroke:#000000;stroke-width:2;stroke-linecap:butt;stroke-miterlimit:4;stroke-opacity:1;stroke-dasharray:none;stroke-dashoffset:0"
       id="path5434"
       sodipodi:cx="2.3040316"
       sodipodi:cy="1.5909137"
       sodipodi:rx="2.6880369"
       sodipodi:ry="2.6880369"
       d="m 4.9920685,1.5909137 c 0,1.4845618 -1.2034751,2.6880369 -2.6880369,2.6880369 -1.48456179,0 -2.68803691,-1.2034751 -2.68803691,-2.6880369 0,-1.48456184 1.20347512,-2.688037 2.68803691,-2.688037 1.4845618,0 2.6880369,1.20347516 2.6880369,2.688037 z"
       transform="matrix(0.88035893,0,0,0.88035892,468.69879,268.15694)" />
  </g>
</svg>
