<?xml version="1.0" encoding="UTF-8" standalone="no"?>
<!-- Created with Inkscape (http://www.inkscape.org/) -->

<svg
   xmlns:dc="http://purl.org/dc/elements/1.1/"
   xmlns:cc="http://creativecommons.org/ns#"
   xmlns:rdf="http://www.w3.org/1999/02/22-rdf-syntax-ns#"
   xmlns:svg="http://www.w3.org/2000/svg"
   xmlns="http://www.w3.org/2000/svg"
   xmlns:sodipodi="http://sodipodi.sourceforge.net/DTD/sodipodi-0.dtd"
   xmlns:inkscape="http://www.inkscape.org/namespaces/inkscape"
   width="162.49879"
   height="141.79591"
   id="svg60943"
   version="1.1"
   inkscape:version="0.48.4 r9939"
   sodipodi:docname="triangle_mesh_color.svg">
  <defs
     id="defs60945" />
  <sodipodi:namedview
     id="base"
     pagecolor="#ffffff"
     bordercolor="#666666"
     borderopacity="1.0"
     inkscape:pageopacity="0.0"
     inkscape:pageshadow="2"
     inkscape:zoom="2.8"
     inkscape:cx="189.27935"
     inkscape:cy="61.983853"
     inkscape:document-units="px"
     inkscape:current-layer="g3469"
     showgrid="false"
     fit-margin-top="0"
     fit-margin-left="0"
     fit-margin-right="0"
     fit-margin-bottom="0"
     inkscape:window-width="1366"
     inkscape:window-height="744"
     inkscape:window-x="0"
     inkscape:window-y="24"
     inkscape:window-maximized="1" />
  <metadata
     id="metadata60948">
    <rdf:RDF>
      <cc:Work
         rdf:about="">
        <dc:format>image/svg+xml</dc:format>
        <dc:type
           rdf:resource="http://purl.org/dc/dcmitype/StillImage" />
        <dc:title></dc:title>
      </cc:Work>
    </rdf:RDF>
  </metadata>
  <g
     inkscape:label="Layer 1"
     inkscape:groupmode="layer"
     id="layer1"
     transform="translate(-693.03632,-507.17851)">
    <g
       id="g3469"
       transform="matrix(0.4922225,0,0,0.4922225,480.53261,435.16164)">
      <path
         inkscape:transform-center-y="-22.6567"
         transform="translate(435.94295,297.67349)"
         d="m 160.84631,128.6127 -156.9702233,0 L 82.361199,-7.3274994 z"
         inkscape:randomized="0"
         inkscape:rounded="0"
         inkscape:flatsided="true"
         sodipodi:arg2="1.5707963"
         sodipodi:arg1="0.52359878"
         sodipodi:r2="45.3134"
         sodipodi:r1="90.626801"
         sodipodi:cy="83.299301"
         sodipodi:cx="82.361198"
         sodipodi:sides="3"
         id="path5930-4"
         style="fill:#ffffff;fill-opacity:1;stroke:#000000;stroke-width:4;stroke-linecap:butt;stroke-miterlimit:3;stroke-opacity:1;stroke-dasharray:none;stroke-dashoffset:0"
         sodipodi:type="star" />
      <path
         inkscape:connector-curvature="0"
         id="path5940-9"
         d="M 596.78926,426.28619 518.30415,290.34599"
         style="fill:none;stroke:#000000;stroke-width:1px;stroke-linecap:butt;stroke-linejoin:miter;stroke-opacity:1" />
      <path
         inkscape:connector-curvature="0"
         id="path5942-4"
         d="m 557.54669,358.31609 -39.24254,67.9701 78.48511,0 z"
         style="fill:#ff0055;stroke:#000000;stroke-width:3;stroke-linecap:butt;stroke-linejoin:miter;stroke-miterlimit:4;stroke-opacity:1;stroke-dasharray:none" />
      <path
         inkscape:connector-curvature="0"
         id="path5944-6"
         d="m 518.30415,426.28619 -78.48511,0 39.24255,-67.9701 z"
         style="fill:#0000ff;stroke:#000000;stroke-width:3;stroke-linecap:butt;stroke-linejoin:miter;stroke-miterlimit:4;stroke-opacity:1;stroke-dasharray:none" />
      <path
         inkscape:connector-curvature="0"
         id="path5946-8"
         d="m 479.06159,358.31609 78.4851,0 -39.24254,-67.9701 -39.24256,67.9701"
         style="fill:#00ff00;stroke:#000000;stroke-width:3;stroke-linecap:butt;stroke-linejoin:miter;stroke-miterlimit:4;stroke-opacity:1;stroke-dasharray:none" />
      <path
         inkscape:connector-curvature="0"
         id="path5948-8"
         d="m 479.06159,358.31609 39.24256,67.9701 39.24254,-67.9701 z"
         style="fill:#ffb0f3;stroke:#000000;stroke-width:3;stroke-linecap:butt;stroke-linejoin:miter;stroke-miterlimit:4;stroke-opacity:1;stroke-dasharray:none;fill-opacity:0" />
      <path
         inkscape:transform-center-y="-22.6567"
         transform="matrix(-0.5,-0.8660254,0.8660254,-0.5,644.31566,493.94931)"
         d="m 160.84631,128.6127 -156.9702233,0 L 82.361199,-7.3274994 z"
         inkscape:randomized="0"
         inkscape:rounded="0"
         inkscape:flatsided="true"
         sodipodi:arg2="1.5707963"
         sodipodi:arg1="0.52359878"
         sodipodi:r2="45.3134"
         sodipodi:r1="90.626801"
         sodipodi:cy="83.299301"
         sodipodi:cx="82.361198"
         sodipodi:sides="3"
         id="path5930-4-7"
         style="fill:#ffffff;fill-opacity:1;stroke:#000000;stroke-width:4;stroke-linecap:butt;stroke-miterlimit:3;stroke-opacity:1;stroke-dasharray:none;stroke-dashoffset:0"
         sodipodi:type="star" />
      <path
         inkscape:connector-curvature="0"
         id="path5940-9-7"
         d="m 675.27437,290.34597 -78.48511,135.9402"
         style="fill:none;stroke:#000000;stroke-width:1px;stroke-linecap:butt;stroke-linejoin:miter;stroke-opacity:1" />
      <path
         inkscape:connector-curvature="0"
         id="path5942-4-5"
         d="m 636.03182,358.31609 78.48511,-2e-5 -39.24256,-67.9701 z"
         style="fill:#ff0055;stroke:#000000;stroke-width:3;stroke-linecap:butt;stroke-linejoin:miter;stroke-miterlimit:4;stroke-opacity:1;stroke-dasharray:none" />
      <path
         inkscape:connector-curvature="0"
         id="path5944-6-2"
         d="m 714.51693,358.31607 39.24255,67.9701 -78.48511,10e-6 z"
         style="fill:#0000ff;stroke:#000000;stroke-width:3;stroke-linecap:butt;stroke-linejoin:miter;stroke-miterlimit:4;stroke-opacity:1;stroke-dasharray:none" />
      <path
         inkscape:connector-curvature="0"
         id="path5946-8-9"
         d="m 675.27437,426.28618 -39.24255,-67.97009 -39.24256,67.97008 78.48511,10e-6"
         style="fill:#00ff00;stroke:#000000;stroke-width:3;stroke-linecap:butt;stroke-linejoin:miter;stroke-miterlimit:4;stroke-opacity:1;stroke-dasharray:none" />
      <path
         inkscape:connector-curvature="0"
         id="path5948-8-6"
         d="m 675.27437,426.28618 39.24256,-67.97011 -78.48511,2e-5 z"
         style="fill:#ffb0f3;stroke:#000000;stroke-width:3;stroke-linecap:butt;stroke-linejoin:miter;stroke-miterlimit:4;stroke-opacity:1;stroke-dasharray:none;fill-opacity:0" />
      <path
         inkscape:transform-center-y="-22.6567"
         transform="matrix(-0.5,0.8660254,-0.8660254,-0.5,710.10916,215.35533)"
         d="m 160.84631,128.6127 -156.9702233,0 L 82.361199,-7.3274994 z"
         inkscape:randomized="0"
         inkscape:rounded="0"
         inkscape:flatsided="true"
         sodipodi:arg2="1.5707963"
         sodipodi:arg1="0.52359878"
         sodipodi:r2="45.3134"
         sodipodi:r1="90.626801"
         sodipodi:cy="83.299301"
         sodipodi:cx="82.361198"
         sodipodi:sides="3"
         id="path5930-4-7-3"
         style="fill:#ffffff;fill-opacity:1;stroke:#000000;stroke-width:4;stroke-linecap:butt;stroke-miterlimit:3;stroke-opacity:1;stroke-dasharray:none;stroke-dashoffset:0"
         sodipodi:type="star" />
      <path
         inkscape:connector-curvature="0"
         id="path5940-9-7-7"
         d="m 518.30414,290.34597 156.97022,0"
         style="fill:none;stroke:#000000;stroke-width:1px;stroke-linecap:butt;stroke-linejoin:miter;stroke-opacity:1" />
      <path
         inkscape:connector-curvature="0"
         id="path5942-4-5-6"
         d="m 596.78926,290.34596 -39.24257,-67.97009 -39.24255,67.9701 z"
         style="fill:#ff0055;stroke:#000000;stroke-width:3;stroke-linecap:butt;stroke-linejoin:miter;stroke-miterlimit:4;stroke-opacity:1;stroke-dasharray:none" />
      <path
         inkscape:connector-curvature="0"
         id="path5944-6-2-7"
         d="m 557.54669,222.37587 39.24256,-67.97009 39.24256,67.97009 z"
         style="fill:#0000ff;stroke:#000000;stroke-width:3;stroke-linecap:butt;stroke-linejoin:miter;stroke-miterlimit:4;stroke-opacity:1;stroke-dasharray:none" />
      <path
         inkscape:connector-curvature="0"
         id="path5946-8-9-9"
         d="m 636.03181,222.37587 -39.24255,67.97009 78.4851,1e-5 -39.24255,-67.9701"
         style="fill:#00ff00;stroke:#000000;stroke-width:3;stroke-linecap:butt;stroke-linejoin:miter;stroke-miterlimit:4;stroke-opacity:1;stroke-dasharray:none" />
      <path
         inkscape:connector-curvature="0"
         id="path5948-8-6-8"
         d="m 636.03181,222.37587 -78.48512,0 39.24257,67.97009 z"
         style="fill:#ffb0f3;stroke:#000000;stroke-width:3;stroke-linecap:butt;stroke-linejoin:miter;stroke-miterlimit:4;stroke-opacity:1;stroke-dasharray:none;fill-opacity:0" />
      <path
         inkscape:transform-center-y="-22.6567"
         transform="matrix(-1,0,0,-1,679.15039,418.95869)"
         d="m 160.84631,128.6127 -156.9702233,0 L 82.361199,-7.3274994 z"
         inkscape:randomized="0"
         inkscape:rounded="0"
         inkscape:flatsided="true"
         sodipodi:arg2="1.5707963"
         sodipodi:arg1="0.52359878"
         sodipodi:r2="45.3134"
         sodipodi:r1="90.626801"
         sodipodi:cy="83.299301"
         sodipodi:cx="82.361198"
         sodipodi:sides="3"
         id="path5930-4-4-7"
         style="fill:#ffffff;fill-opacity:1;stroke:#000000;stroke-width:4;stroke-linecap:butt;stroke-miterlimit:3;stroke-opacity:1;stroke-dasharray:none;stroke-dashoffset:0"
         sodipodi:type="star" />
      <path
         inkscape:connector-curvature="0"
         id="path5940-9-1-2"
         d="m 518.30408,290.34599 78.48511,135.9402"
         style="fill:none;stroke:#000000;stroke-width:1px;stroke-linecap:butt;stroke-linejoin:miter;stroke-opacity:1" />
      <path
         inkscape:connector-curvature="0"
         id="path5942-4-7-2"
         d="m 557.54665,358.31609 39.24254,-67.9701 -78.48511,0 z"
         style="fill:#00ffc8;stroke:#000000;stroke-width:3;stroke-linecap:butt;stroke-linejoin:miter;stroke-miterlimit:4;stroke-opacity:1;stroke-dasharray:none" />
      <path
         inkscape:connector-curvature="0"
         id="path5944-6-4-6"
         d="m 596.78919,290.34599 78.48511,0 -39.24255,67.9701 z"
         style="fill:#ffb955;stroke:#000000;stroke-width:3;stroke-linecap:butt;stroke-linejoin:miter;stroke-miterlimit:4;stroke-opacity:1;stroke-dasharray:none" />
      <path
         inkscape:connector-curvature="0"
         id="path5946-8-93-7"
         d="m 636.03175,358.31609 -78.4851,0 39.24254,67.9701 39.24256,-67.9701"
         style="fill:#7a007d;stroke:#000000;stroke-width:3;stroke-linecap:butt;stroke-linejoin:miter;stroke-miterlimit:4;stroke-opacity:1;stroke-dasharray:none" />
      <path
         inkscape:connector-curvature="0"
         id="path5948-8-8-7"
         d="m 636.03175,358.31609 -39.24256,-67.9701 -39.24254,67.9701 z"
         style="fill:#0000ff;stroke:#000000;stroke-width:3;stroke-linecap:butt;stroke-linejoin:miter;stroke-miterlimit:4;stroke-opacity:1;stroke-dasharray:none" />
    </g>
    <path
       sodipodi:type="arc"
       style="fill:#fffff3;fill-opacity:1;stroke:#000000;stroke-width:2;stroke-linecap:butt;stroke-miterlimit:4;stroke-opacity:1;stroke-dasharray:none;stroke-dashoffset:0"
       id="path5345-66-34"
       sodipodi:cx="2.3040316"
       sodipodi:cy="1.5909137"
       sodipodi:rx="2.6880369"
       sodipodi:ry="2.6880369"
       d="m 4.9920685,1.5909137 c 0,1.4845618 -1.2034751,2.6880369 -2.6880369,2.6880369 -1.48456179,0 -2.68803691,-1.2034751 -2.68803691,-2.6880369 0,-1.48456184 1.20347512,-2.688037 2.68803691,-2.688037 1.4845618,0 2.6880369,1.20347516 2.6880369,2.688037 z"
       transform="matrix(0.88035893,0,0,0.88035892,772.25733,509.02473)" />
    <path
       sodipodi:type="arc"
       style="fill:#fffff3;fill-opacity:1;stroke:#000000;stroke-width:2;stroke-linecap:butt;stroke-miterlimit:4;stroke-opacity:1;stroke-dasharray:none;stroke-dashoffset:0"
       id="path5345-66-8"
       sodipodi:cx="2.3040316"
       sodipodi:cy="1.5909137"
       sodipodi:rx="2.6880369"
       sodipodi:ry="2.6880369"
       d="m 4.9920685,1.5909137 c 0,1.4845618 -1.2034751,2.6880369 -2.6880369,2.6880369 -1.48456179,0 -2.68803691,-1.2034751 -2.68803691,-2.6880369 0,-1.48456184 1.20347512,-2.688037 2.68803691,-2.688037 1.4845618,0 2.6880369,1.20347516 2.6880369,2.688037 z"
       transform="matrix(0.88035893,0,0,0.88035892,791.5734,542.48114)" />
    <path
       sodipodi:type="arc"
       style="fill:#fffff3;fill-opacity:1;stroke:#000000;stroke-width:2;stroke-linecap:butt;stroke-miterlimit:4;stroke-opacity:1;stroke-dasharray:none;stroke-dashoffset:0"
       id="path5345-66-6"
       sodipodi:cx="2.3040316"
       sodipodi:cy="1.5909137"
       sodipodi:rx="2.6880369"
       sodipodi:ry="2.6880369"
       d="m 4.9920685,1.5909137 c 0,1.4845618 -1.2034751,2.6880369 -2.6880369,2.6880369 -1.48456179,0 -2.68803691,-1.2034751 -2.68803691,-2.6880369 0,-1.48456184 1.20347512,-2.688037 2.68803691,-2.688037 1.4845618,0 2.6880369,1.20347516 2.6880369,2.688037 z"
       transform="matrix(0.88035893,0,0,0.88035892,752.20293,543.95781)" />
    <path
       sodipodi:type="arc"
       style="fill:#fffff3;fill-opacity:1;stroke:#000000;stroke-width:2;stroke-linecap:butt;stroke-miterlimit:4;stroke-opacity:1;stroke-dasharray:none;stroke-dashoffset:0"
       id="path5345-66-33"
       sodipodi:cx="2.3040316"
       sodipodi:cy="1.5909137"
       sodipodi:rx="2.6880369"
       sodipodi:ry="2.6880369"
       d="m 4.9920685,1.5909137 c 0,1.4845618 -1.2034751,2.6880369 -2.6880369,2.6880369 -1.48456179,0 -2.68803691,-1.2034751 -2.68803691,-2.6880369 0,-1.48456184 1.20347512,-2.688037 2.68803691,-2.688037 1.4845618,0 2.6880369,1.20347516 2.6880369,2.688037 z"
       transform="matrix(0.88035893,0,0,0.88035892,771.51897,575.93756)" />
    <path
       sodipodi:type="arc"
       style="fill:#fffff3;fill-opacity:1;stroke:#000000;stroke-width:2;stroke-linecap:butt;stroke-miterlimit:4;stroke-opacity:1;stroke-dasharray:none;stroke-dashoffset:0"
       id="path5345-66-68"
       sodipodi:cx="2.3040316"
       sodipodi:cy="1.5909137"
       sodipodi:rx="2.6880369"
       sodipodi:ry="2.6880369"
       d="m 4.9920685,1.5909137 c 0,1.4845618 -1.2034751,2.6880369 -2.6880369,2.6880369 -1.48456179,0 -2.68803691,-1.2034751 -2.68803691,-2.6880369 0,-1.48456184 1.20347512,-2.688037 2.68803691,-2.688037 1.4845618,0 2.6880369,1.20347516 2.6880369,2.688037 z"
       transform="matrix(0.88035893,0,0,0.88035892,811.13558,576.67589)" />
    <path
       sodipodi:type="arc"
       style="fill:#fffff3;fill-opacity:1;stroke:#000000;stroke-width:2;stroke-linecap:butt;stroke-miterlimit:4;stroke-opacity:1;stroke-dasharray:none;stroke-dashoffset:0"
       id="path5345-66-38"
       sodipodi:cx="2.3040316"
       sodipodi:cy="1.5909137"
       sodipodi:rx="2.6880369"
       sodipodi:ry="2.6880369"
       d="m 4.9920685,1.5909137 c 0,1.4845618 -1.2034751,2.6880369 -2.6880369,2.6880369 -1.48456179,0 -2.68803691,-1.2034751 -2.68803691,-2.6880369 0,-1.48456184 1.20347512,-2.688037 2.68803691,-2.688037 1.4845618,0 2.6880369,1.20347516 2.6880369,2.688037 z"
       transform="matrix(0.88035893,0,0,0.88035892,733.62519,575.93756)" />
    <path
       sodipodi:type="arc"
       style="fill:#fffff3;fill-opacity:1;stroke:#000000;stroke-width:2;stroke-linecap:butt;stroke-miterlimit:4;stroke-opacity:1;stroke-dasharray:none;stroke-dashoffset:0"
       id="path5345-66-687"
       sodipodi:cx="2.3040316"
       sodipodi:cy="1.5909137"
       sodipodi:rx="2.6880369"
       sodipodi:ry="2.6880369"
       d="m 4.9920685,1.5909137 c 0,1.4845618 -1.2034751,2.6880369 -2.6880369,2.6880369 -1.48456179,0 -2.68803691,-1.2034751 -2.68803691,-2.6880369 0,-1.48456184 1.20347512,-2.688037 2.68803691,-2.688037 1.4845618,0 2.6880369,1.20347516 2.6880369,2.688037 z"
       transform="matrix(0.88035893,0,0,0.88035892,714.30913,609.39397)" />
    <path
       sodipodi:type="arc"
       style="fill:#fffff3;fill-opacity:1;stroke:#000000;stroke-width:2;stroke-linecap:butt;stroke-miterlimit:4;stroke-opacity:1;stroke-dasharray:none;stroke-dashoffset:0"
       id="path5345-66-29"
       sodipodi:cx="2.3040316"
       sodipodi:cy="1.5909137"
       sodipodi:rx="2.6880369"
       sodipodi:ry="2.6880369"
       d="m 4.9920685,1.5909137 c 0,1.4845618 -1.2034751,2.6880369 -2.6880369,2.6880369 -1.48456179,0 -2.68803691,-1.2034751 -2.68803691,-2.6880369 0,-1.48456184 1.20347512,-2.688037 2.68803691,-2.688037 1.4845618,0 2.6880369,1.20347516 2.6880369,2.688037 z"
       transform="matrix(0.88035893,0,0,0.88035892,752.94123,610.87064)" />
    <path
       sodipodi:type="arc"
       style="fill:#fffff3;fill-opacity:1;stroke:#000000;stroke-width:2;stroke-linecap:butt;stroke-miterlimit:4;stroke-opacity:1;stroke-dasharray:none;stroke-dashoffset:0"
       id="path5345-66-27"
       sodipodi:cx="2.3040316"
       sodipodi:cy="1.5909137"
       sodipodi:rx="2.6880369"
       sodipodi:ry="2.6880369"
       d="m 4.9920685,1.5909137 c 0,1.4845618 -1.2034751,2.6880369 -2.6880369,2.6880369 -1.48456179,0 -2.68803691,-1.2034751 -2.68803691,-2.6880369 0,-1.48456184 1.20347512,-2.688037 2.68803691,-2.688037 1.4845618,0 2.6880369,1.20347516 2.6880369,2.688037 z"
       transform="matrix(0.88035893,0,0,0.88035892,792.31171,610.87064)" />
    <path
       sodipodi:type="arc"
       style="fill:#fffff3;fill-opacity:1;stroke:#000000;stroke-width:2;stroke-linecap:butt;stroke-miterlimit:4;stroke-opacity:1;stroke-dasharray:none;stroke-dashoffset:0"
       id="path5345-66-86"
       sodipodi:cx="2.3040316"
       sodipodi:cy="1.5909137"
       sodipodi:rx="2.6880369"
       sodipodi:ry="2.6880369"
       d="m 4.9920685,1.5909137 c 0,1.4845618 -1.2034751,2.6880369 -2.6880369,2.6880369 -1.48456179,0 -2.68803691,-1.2034751 -2.68803691,-2.6880369 0,-1.48456184 1.20347512,-2.688037 2.68803691,-2.688037 1.4845618,0 2.6880369,1.20347516 2.6880369,2.688037 z"
       transform="matrix(0.88035893,0,0,0.88035892,830.20554,609.39396)" />
    <path
       sodipodi:type="arc"
       style="fill:#fffff3;fill-opacity:1;stroke:#000000;stroke-width:2;stroke-linecap:butt;stroke-miterlimit:4;stroke-opacity:1;stroke-dasharray:none;stroke-dashoffset:0"
       id="path5345-66-25"
       sodipodi:cx="2.3040316"
       sodipodi:cy="1.5909137"
       sodipodi:rx="2.6880369"
       sodipodi:ry="2.6880369"
       d="m 4.9920685,1.5909137 c 0,1.4845618 -1.2034751,2.6880369 -2.6880369,2.6880369 -1.48456179,0 -2.68803691,-1.2034751 -2.68803691,-2.6880369 0,-1.48456184 1.20347512,-2.688037 2.68803691,-2.688037 1.4845618,0 2.6880369,1.20347516 2.6880369,2.688037 z"
       transform="matrix(0.88035893,0,0,0.88035892,850.25994,644.32705)" />
    <path
       sodipodi:type="arc"
       style="fill:#fffff3;fill-opacity:1;stroke:#000000;stroke-width:2;stroke-linecap:butt;stroke-miterlimit:4;stroke-opacity:1;stroke-dasharray:none;stroke-dashoffset:0"
       id="path5345-66-49"
       sodipodi:cx="2.3040316"
       sodipodi:cy="1.5909137"
       sodipodi:rx="2.6880369"
       sodipodi:ry="2.6880369"
       d="m 4.9920685,1.5909137 c 0,1.4845618 -1.2034751,2.6880369 -2.6880369,2.6880369 -1.48456179,0 -2.68803691,-1.2034751 -2.68803691,-2.6880369 0,-1.48456184 1.20347512,-2.688037 2.68803691,-2.688037 1.4845618,0 2.6880369,1.20347516 2.6880369,2.688037 z"
       transform="matrix(0.88035893,0,0,0.88035892,811.13559,643.83482)" />
    <path
       sodipodi:type="arc"
       style="fill:#fffff3;fill-opacity:1;stroke:#000000;stroke-width:2;stroke-linecap:butt;stroke-miterlimit:4;stroke-opacity:1;stroke-dasharray:none;stroke-dashoffset:0"
       id="path5345-66-22"
       sodipodi:cx="2.3040316"
       sodipodi:cy="1.5909137"
       sodipodi:rx="2.6880369"
       sodipodi:ry="2.6880369"
       d="m 4.9920685,1.5909137 c 0,1.4845618 -1.2034751,2.6880369 -2.6880369,2.6880369 -1.48456179,0 -2.68803691,-1.2034751 -2.68803691,-2.6880369 0,-1.48456184 1.20347512,-2.688037 2.68803691,-2.688037 1.4845618,0 2.6880369,1.20347516 2.6880369,2.688037 z"
       transform="matrix(0.88035893,0,0,0.88035892,772.25731,644.32705)" />
    <path
       sodipodi:type="arc"
       style="fill:#fffff3;fill-opacity:1;stroke:#000000;stroke-width:2;stroke-linecap:butt;stroke-miterlimit:4;stroke-opacity:1;stroke-dasharray:none;stroke-dashoffset:0"
       id="path5345-66-75"
       sodipodi:cx="2.3040316"
       sodipodi:cy="1.5909137"
       sodipodi:rx="2.6880369"
       sodipodi:ry="2.6880369"
       d="m 4.9920685,1.5909137 c 0,1.4845618 -1.2034751,2.6880369 -2.6880369,2.6880369 -1.48456179,0 -2.68803691,-1.2034751 -2.68803691,-2.6880369 0,-1.48456184 1.20347512,-2.688037 2.68803691,-2.688037 1.4845618,0 2.6880369,1.20347516 2.6880369,2.688037 z"
       transform="matrix(0.88035893,0,0,0.88035892,733.37909,643.83483)" />
    <path
       sodipodi:type="arc"
       style="fill:#fffff3;fill-opacity:1;stroke:#000000;stroke-width:2;stroke-linecap:butt;stroke-miterlimit:4;stroke-opacity:1;stroke-dasharray:none;stroke-dashoffset:0"
       id="path5345-66-71"
       sodipodi:cx="2.3040316"
       sodipodi:cy="1.5909137"
       sodipodi:rx="2.6880369"
       sodipodi:ry="2.6880369"
       d="m 4.9920685,1.5909137 c 0,1.4845618 -1.2034751,2.6880369 -2.6880369,2.6880369 -1.48456179,0 -2.68803691,-1.2034751 -2.68803691,-2.6880369 0,-1.48456184 1.20347512,-2.688037 2.68803691,-2.688037 1.4845618,0 2.6880369,1.20347516 2.6880369,2.688037 z"
       transform="matrix(0.88035893,0,0,0.88035892,694.25474,644.32705)" />
  </g>
</svg>
